<?xml version="1.0" encoding="utf-8"?>
<!-- Generator: Adobe Illustrator 19.0.0, SVG Export Plug-In . SVG Version: 6.00 Build 0)  -->
<svg version="1.1" id="Layer_1" xmlns="http://www.w3.org/2000/svg" xmlns:xlink="http://www.w3.org/1999/xlink" x="0px" y="0px"
	 viewBox="0 0 1920 595.3" style="enable-background:new 0 0 1920 595.3;" xml:space="preserve">
<style type="text/css">
	.st0{fill:#28A8E0;}
	.st1{fill:#595A5C;}
</style>
<g>
	<g>
		<g>
			<path class="st0" d="M390.3,190c5.4,5,9.8,11.3,13.3,18.9c3.5,7.5,6.4,15.8,8.8,24.6c2.4,8.9,4.7,17.4,7,25.4
				c1.3,4.7,3.1,10.6,5.3,17.6c2.2,7,4.9,13.9,8,20.6c3.2,6.7,6.9,12.4,11.3,17.1c4.3,4.7,9.4,7,15.1,7c6.7,0,12.4-2.5,17.1-7.5
				c4.7-5,8.5-11.1,11.6-18.1c3-7,5.5-14.1,7.5-21.1c2-7,3.9-12.6,5.5-16.6c1.7-4.7,3.3-10.8,4.8-18.4c1.5-7.5,3.5-14.8,6.1-21.9
				c2.5-7,5.9-13.2,10.3-18.4c4.3-5.2,10.2-7.8,17.6-7.8c7.7,0,11.6,4.9,11.6,14.6c0,7.4-1.8,16.9-5.5,28.7
				c-3.7,11.7-7.7,24.1-12.1,37.2L511,340.8c-4,11.7-7.6,22.6-10.6,32.4c-3,9.9-6.3,18.4-9.8,25.6c-3.5,7.2-7.6,12.8-12.3,16.8
				c-4.7,4-10.6,6-17.6,6c-8.7,0-15.8-2.4-21.1-7.3c-5.4-4.9-9.9-11.1-13.6-18.6c-3.7-7.5-6.8-15.7-9.3-24.4
				c-2.5-8.7-5-17.1-7.3-25.1c-1.7-5.7-3.8-12.1-6.3-19.1c-2.5-7-5.5-13.7-9.1-19.9c-3.5-6.2-7.5-11.4-12.1-15.6
				c-4.5-4.2-9.8-6.3-15.8-6.3c-12.1,0-21,6-26.9,18.1c-5.8,12.1-11.1,27.7-15.8,46.8c-2,8.7-4.1,17.3-6.3,25.9
				c-2.2,8.5-4.9,16.3-8,23.1c-3.2,6.9-7.5,12.5-12.8,16.8c-5.4,4.4-12.4,6.5-21.1,6.5c-7.1,0-13.1-2.1-18.1-6.3
				c-5-4.2-9.5-9.9-13.3-17.1c-3.9-7.2-7.5-15.7-10.8-25.6c-3.4-9.9-6.9-20.7-10.6-32.4l-23.1-70.4c-5-15.1-9.4-28.3-13.1-39.7
				c-3.7-11.4-5.5-20.4-5.5-27.2c0-10.7,5.4-16.1,16.1-16.1c6,0,11.1,2,15.4,6c4.2,4,7.7,9.1,10.6,15.3c2.8,6.2,5.4,13.1,7.5,20.6
				s4.4,14.8,6.8,21.9c3,8.4,5.9,16.7,8.6,24.9c2.7,8.2,5.7,15.6,9.1,22.1c3.3,6.5,7,11.8,11,15.8c4,4,8.6,6,13.6,6
				c6.4,0,11.7-2.1,16.1-6.3c4.3-4.2,8-9.5,11.1-15.8c3-6.4,5.5-13,7.5-19.9c2-6.9,3.7-13.2,5-18.9c2.3-9,4.5-18.2,6.5-27.4
				c2-9.2,4.7-17.5,8-24.9c3.4-7.4,7.9-13.4,13.6-18.1c5.7-4.7,13.2-7,22.6-7C378,182.4,384.9,184.9,390.3,190z"/>
		</g>
		<g>
			<g>
				<path class="st0" d="M116.1,135.6c-2.2,10.4-3.3,20.6-3.3,30.7V198c0,19.1-1,33.4-3,43c-2,9.6-4.3,17.3-6.8,23.1
					c-2.5,5.9-4.8,11.2-6.8,15.8c-2,4.7-3,11.6-3,20.6c0,8,1,14.1,3,18.1c2,4,4.3,8.9,6.8,14.6c2.5,5.7,4.9,13.6,7,23.6
					c2.2,10.1,3.3,25.1,3.3,45.3v38.2c0,8.7,1,17.1,3,25.1c2,8,5.4,14.7,10.1,20.1c2,2,4.4,4,7,6c2.7,2,5.3,4.1,7.8,6.3
					c2.5,2.2,4.7,4.6,6.5,7.3c1.8,2.7,2.8,5.9,2.8,9.6c0,1.7-1.1,2.9-3.3,3.8c-2.2,0.8-5,1.3-8.3,1.3c-5,0-10.6-0.9-16.6-2.8
					c-6-1.8-10.9-4.6-14.6-8.3C97.1,498,90.3,487.1,87.5,476c-2.9-11.1-4.3-23-4.3-35.7v-39.2c0-19.8-2.1-34.9-6.3-45.5
					c-4.2-10.6-8.8-18.9-13.8-24.9c-5-6-9.6-11.1-13.8-15.1c-4.2-4-6.3-9.6-6.3-16.6c0-5.4,1-9.7,3-13.1c2-3.3,4.4-6.4,7.3-9.1
					c2.8-2.7,5.9-5.7,9.3-9.1c3.3-3.3,6.5-7.8,9.3-13.3c2.8-5.5,5.3-12.8,7.3-21.9c2-9.1,3-20.6,3-34.7v-37.2
					c0-12.1,1.1-24.1,3.3-36.2c2.2-12.1,6.6-21.6,13.3-28.7c5.4-5.4,11.8-9.8,19.4-13.3c7.5-3.5,14.2-5.3,19.9-5.3
					c7.4,0,11.1,3,11.1,9.1c0,3.7-2,7.2-6,10.6c-4,3.4-9.2,8.4-15.6,15.1C122.1,117.3,118.3,125.2,116.1,135.6z"/>
				<path class="st0" d="M604.6,459.4c2-10.4,3-23.8,3-40.2v-26.1c0-18.1,1-31.7,3-40.7c2-9.1,4.3-16.3,6.8-21.9s4.9-10.6,7-15.3
					c2.2-4.7,3.3-11.6,3.3-20.6c0-8-1.1-14.1-3.3-18.1c-2.2-4-4.5-8.7-7-14.1c-2.5-5.4-4.8-12.8-6.8-22.4c-2-9.6-3-23.7-3-42.5
					v-23.6c0-15.1-0.7-27.9-2-38.5c-1.3-10.6-5-19-11.1-25.4c-2-2.3-4.5-4.4-7.3-6.3c-2.9-1.8-5.5-3.9-8-6.3
					c-2.5-2.3-4.6-4.9-6.3-7.5c-1.7-2.7-2.5-5.9-2.5-9.6c0-1.7,1.1-2.9,3.3-3.8c2.2-0.8,4.8-1.3,7.8-1.3c5.4,0,11.1,0.9,17.3,2.8
					c6.2,1.8,11.1,4.6,14.8,8.3c6.4,6.7,11.2,13.4,14.6,20.1c3.3,6.7,5.8,13.6,7.3,20.6c1.5,7,2.3,14.4,2.3,22.1
					c0,7.4,0,15.3,0,23.6v24.6c0,19.1,2.1,33.7,6.3,43.7c4.2,10.1,8.8,18,13.8,23.9c5,5.9,9.7,10.8,14.1,14.8
					c4.4,4,6.5,9.4,6.5,16.1c0,5.7-1,10.1-3,13.1c-2,3-4.4,5.9-7.3,8.6c-2.9,2.7-6,5.7-9.6,9.1c-3.5,3.4-6.7,7.8-9.6,13.3
					c-2.9,5.5-5.3,12.8-7.3,21.9c-2,9.1-3,20.6-3,34.7v23.6c0,6.7-0.1,13.8-0.3,21.4c-0.2,7.5-0.8,14.8-1.8,21.9s-2.6,13.7-4.8,20.1
					c-2.2,6.4-5.3,11.6-9.3,15.6c-5.4,5.4-11.9,9.9-19.6,13.6c-7.7,3.7-14.4,5.5-20.1,5.5c-7,0-10.6-3-10.6-9.1
					c0-3.7,1.9-7.3,5.8-10.8c3.9-3.5,9.1-8.6,15.8-15.3C599.1,477.7,602.6,469.8,604.6,459.4z"/>
			</g>
		</g>
	</g>
	<g>
		<path class="st1" d="M795.5,273.1c-11.5,0-21-1-28.7-2.9c-7.7-1.9-13.8-5-18.4-9.2c-4.6-4.2-7.8-9.7-9.7-16.5
			c-1.9-6.8-2.9-15.2-2.9-25.1v-16.8c0-9.9,1-18.4,2.9-25.2c1.9-6.9,5.2-12.4,9.7-16.6c4.6-4.2,10.7-7.3,18.4-9.2
			c7.6-1.9,17.2-2.9,28.7-2.9h77.8c6.7,0,12.2,5.4,12.2,12.2v5.1c0,6.7-5.4,12.2-12.2,12.2h-76.7c-5.4,0-9.7,0.4-13.2,1.1
			c-3.5,0.8-6.2,2.1-8.2,4c-2,1.9-3.4,4.6-4.1,7.9c-0.8,3.4-1.2,7.6-1.2,12.6v14.7c0,4.9,0.4,9,1.2,12.3c0.8,3.3,2.1,5.9,4.1,7.9
			c2,2,4.7,3.4,8.2,4.2c3.4,0.8,7.8,1.3,13.2,1.3h76.9c6.7,0,12.2,5.4,12.2,12.2v4.6c0,6.7-5.4,12.2-12.2,12.2H795.5z"/>
		<path class="st1" d="M969,273.1c-11.5,0-21-1-28.7-2.9c-7.7-1.9-13.8-5-18.4-9.2c-4.6-4.2-7.8-9.7-9.7-16.5
			c-1.9-6.8-2.9-15.2-2.9-25.1v-16.8c0-9.9,1-18.4,2.9-25.2c1.9-6.9,5.2-12.4,9.7-16.6c4.6-4.2,10.7-7.3,18.4-9.2
			c7.6-1.9,17.2-2.9,28.7-2.9h41.5c11.6,0,21.3,1,28.9,2.9s13.8,5,18.4,9.3c4.6,4.3,7.8,9.9,9.8,16.8c1.9,6.9,2.9,15.3,2.9,25.2
			v16.5c0,10-1,18.3-2.9,25.1c-1.9,6.8-5.2,12.3-9.8,16.5c-4.6,4.2-10.7,7.3-18.4,9.2c-7.7,1.9-17.3,2.9-28.9,2.9H969z
			 M1036.2,203.8c0-5.2-0.4-9.5-1.3-12.9c-0.8-3.4-2.4-6-4.6-7.9c-2.2-1.9-5.3-3.2-9.3-3.9c-4-0.7-9-1-15.1-1h-32.4
			c-6.1,0-11.1,0.3-15,1s-7,2-9.2,3.9c-2.2,1.9-3.8,4.6-4.6,7.9c-0.8,3.4-1.3,7.7-1.3,12.9v14.7c0,5.2,0.4,9.4,1.3,12.7
			c0.8,3.3,2.4,5.9,4.6,7.8c2.2,1.9,5.3,3.3,9.2,4c3.9,0.8,8.9,1.1,15,1.1h32.4c6.1,0,11.2-0.4,15.1-1.1c4-0.8,7.1-2.1,9.3-4
			c2.2-1.9,3.8-4.5,4.6-7.8c0.8-3.3,1.3-7.5,1.3-12.7V203.8z"/>
		<path class="st1" d="M1155.1,273.1c-11.6,0-21.3-1-29-2.9c-7.7-1.9-13.9-5-18.5-9.2c-4.6-4.2-7.8-9.7-9.8-16.5
			c-1.9-6.8-2.9-15.2-2.9-25.1v-16.8c0-9.9,1-18.4,2.9-25.2c1.9-6.9,5.2-12.4,9.8-16.6c4.6-4.2,10.7-7.3,18.5-9.2
			c7.7-1.9,17.4-2.9,29-2.9h56.9c6.7,0,12.2-5.4,12.2-12.2v-15.8c0-6.7,5.4-12.2,12.2-12.2h9.9c6.7,0,12.2,5.4,12.2,12.2v98.7
			c0,10-1,18.3-2.9,25.1c-1.9,6.8-5.2,12.3-9.7,16.5c-4.6,4.2-10.7,7.3-18.4,9.2c-7.6,1.9-17.3,2.9-28.9,2.9H1155.1z M1129.1,218.4
			c0,5.5,0.4,9.9,1.3,13.3c0.8,3.4,2.4,6,4.7,7.8c2.3,1.8,5.4,3.1,9.3,3.7c3.9,0.6,8.9,0.9,15,0.9h38.1c5.4,0,9.7-0.3,13.2-1
			c3.4-0.7,6.2-2,8.1-3.9c2-1.9,3.4-4.5,4.1-7.8c0.8-3.3,1.2-7.5,1.2-12.7v-28.5c0-6.7-5.4-12.2-12.2-12.2h-52.8
			c-6,0-10.9,0.3-14.8,0.9c-3.9,0.6-7,1.8-9.3,3.7c-2.3,1.8-3.9,4.4-4.7,7.8c-0.9,3.4-1.3,7.8-1.3,13.3V218.4z"/>
		<path class="st1" d="M1296.4,141.6c-4.3,0-7.3-0.8-9.1-2.5c-1.8-1.7-2.6-4.4-2.6-8v-13.3c0-3.7,0.9-6.3,2.6-7.9
			c1.8-1.6,4.8-2.4,9.1-2.4h11.2c4.4,0,7.5,0.8,9.3,2.4c1.8,1.6,2.6,4.2,2.6,7.9V131c0,3.7-0.9,6.3-2.6,8c-1.8,1.7-4.9,2.5-9.3,2.5
			H1296.4z M1284.7,260.9v-96.8c0-6.7,5.4-12.2,12.2-12.2h10.6c6.7,0,12.2,5.4,12.2,12.2v96.8c0,6.7-5.4,12.2-12.2,12.2h-10.6
			C1290.2,273.1,1284.7,267.6,1284.7,260.9z"/>
		<path class="st1" d="M1485.1,273.1c-6.7,0-12.2-5.4-12.2-12.2v-57.1c0-5.2-0.4-9.4-1.3-12.7c-0.9-3.3-2.3-5.9-4.4-7.8
			c-2.1-1.9-4.9-3.2-8.5-4c-3.6-0.8-8.1-1.1-13.7-1.1h-37.2c-5.4,0-9.8,0.4-13.4,1.1c-3.6,0.8-6.5,2.1-8.6,4
			c-2.1,1.9-3.6,4.5-4.5,7.8c-0.8,3.3-1.3,7.5-1.3,12.7v57.1c0,6.7-5.4,12.2-12.2,12.2h-9.9c-6.7,0-12.2-5.4-12.2-12.2v-58.3
			c0-9.9,1-18.4,2.9-25.2c1.9-6.9,5.2-12.4,9.7-16.6c4.6-4.2,10.7-7.3,18.4-9.2c7.6-1.9,17.2-2.9,28.7-2.9h41.5
			c11.6,0,21.3,1,28.9,2.9c7.7,1.9,13.8,5,18.4,9.2c4.6,4.2,7.8,9.8,9.8,16.6c1.9,6.9,2.9,15.3,2.9,25.2v58.3
			c0,6.7-5.4,12.2-12.2,12.2H1485.1z"/>
		<path class="st1" d="M1600.3,298.1v-3.7c0-6.7,5.4-12.2,12.2-12.2h35.3c5.1,0,8.7-1,10.8-3c2.1-2,3.2-5.4,3.2-10.3v-10.1h-78
			c-9.5,0-17.5-0.8-24.2-2.3c-6.7-1.5-12-3.9-16.2-7.2c-4.1-3.3-7.1-7.6-9-12.9c-1.8-5.3-2.8-11.7-2.8-19.2v-19
			c0-9.5,0.8-17.4,2.4-23.7c1.6-6.3,4.4-11.4,8.5-15.3c4.1-3.8,9.6-6.5,16.5-8.1c7-1.6,15.7-2.4,26.3-2.4h55.5
			c10.3,0,18.9,0.9,25.8,2.8c7,1.8,12.5,4.7,16.8,8.7c4.2,4,7.2,9.1,9,15.4c1.8,6.3,2.6,13.8,2.6,22.7v72.5c0,13.9-3.4,24-10.3,30.2
			c-6.9,6.2-18.1,9.3-33.7,9.3h-38.6C1605.7,310.2,1600.3,304.8,1600.3,298.1z M1661.8,198.9c0-8.3-1.6-13.8-4.8-16.8
			c-3.2-2.9-9-4.4-17.4-4.4h-53.7c-8,0-13.4,1.5-16.3,4.5c-2.9,3-4.4,8.6-4.4,16.9v16.3c0,3.4,0.3,6.1,1,8.3
			c0.7,2.1,1.8,3.9,3.4,5.2c1.6,1.3,3.7,2.2,6.3,2.6s5.9,0.7,9.9,0.7h63.8c6.7,0,12.2-5.4,12.2-12.2V198.9z"/>
		<path class="st1" d="M795.5,479.6c-11.5,0-21-1-28.7-2.9c-7.7-1.9-13.8-5-18.4-9.2c-4.6-4.2-7.8-9.7-9.7-16.5
			c-1.9-6.8-2.9-15.2-2.9-25.1v-16.8c0-9.9,1-18.4,2.9-25.2c1.9-6.9,5.2-12.4,9.7-16.6c4.6-4.2,10.7-7.3,18.4-9.2
			c7.6-1.9,17.2-2.9,28.7-2.9h77.8c6.7,0,12.2,5.4,12.2,12.2v5.1c0,6.7-5.4,12.2-12.2,12.2h-76.7c-5.4,0-9.7,0.4-13.2,1.1
			c-3.5,0.8-6.2,2.1-8.2,4c-2,1.9-3.4,4.6-4.1,7.9c-0.8,3.4-1.2,7.6-1.2,12.6V425c0,4.9,0.4,9,1.2,12.3c0.8,3.3,2.1,5.9,4.1,7.9
			c2,2,4.7,3.4,8.2,4.2c3.4,0.8,7.8,1.3,13.2,1.3h76.9c6.7,0,12.2,5.4,12.2,12.2v4.6c0,6.7-5.4,12.2-12.2,12.2H795.5z"/>
		<path class="st1" d="M952.9,479.6c-9,0-16.4-0.8-22.3-2.3c-5.8-1.5-10.4-3.7-13.9-6.5c-3.5-2.8-5.9-6.3-7.2-10.3
			c-1.4-4.1-2.1-8.6-2.1-13.7v-11.7c0-5.2,0.6-9.8,1.9-13.9c1.3-4.1,3.6-7.5,6.8-10.3c3.2-2.8,7.6-5,13.2-6.4
			c5.6-1.5,12.7-2.2,21.2-2.2h92v-2.8c0-8-1.6-13.3-4.8-16c-3.2-2.7-8.7-4-16.3-4h-21.8c-6.7,0-12.2-5.4-12.2-12.2v0
			c0-6.7,5.4-12.2,12.2-12.2h21.8c9.9,0,18.4,0.9,25.4,2.8c7,1.8,12.7,4.6,17.1,8.4c4.4,3.8,7.7,8.5,9.8,14.2
			c2.1,5.7,3.1,12.6,3.1,20.5v30.3c0,9-0.9,16.6-2.6,22.7c-1.8,6.1-4.8,11.1-9.2,14.9c-4.4,3.8-10.2,6.5-17.4,8.1
			c-7.3,1.6-16.4,2.4-27.4,2.4H952.9z M1042.6,423.4h-88.4c-4,0-7.1,0.9-9.4,2.6c-2.3,1.8-3.4,5.1-3.4,10v8.5c0,4.4,1.2,7.5,3.7,9.2
			c2.4,1.7,5.9,2.5,10.3,2.5h64.3c4,0,7.4-0.3,10.3-0.9c2.9-0.6,5.3-1.7,7.1-3.3c1.8-1.6,3.2-3.9,4.1-6.8c0.9-2.9,1.4-6.7,1.4-11.2
			V423.4z"/>
		<path class="st1" d="M1310.4,479.6c-6.7,0-12.2-5.4-12.2-12.2v-62.7c0-7.8-1.5-13.1-4.5-16c-3-2.8-7.8-4.2-14.3-4.2h-22.3
			c-5,0-9.2,0.3-12.5,1s-5.9,1.8-7.8,3.4c-1.9,1.6-3.2,3.7-4,6.2c-0.8,2.5-1.1,5.7-1.1,9.5v62.7c0,6.7-5.4,12.2-12.2,12.2h-5.7
			c-6.7,0-12.2-5.4-12.2-12.2v-62.7c0-3.8-0.3-7-1-9.5c-0.7-2.5-2-4.6-3.9-6.2c-1.9-1.6-4.6-2.8-7.9-3.4s-7.7-1-12.9-1h-21.8
			c-6.9,0-11.7,1.4-14.6,4.2c-2.8,2.8-4.2,8.1-4.2,16v62.7c0,6.7-5.4,12.2-12.2,12.2h-8.9c-6.7,0-12.2-5.4-12.2-12.2v-67.7
			c0-7.6,0.8-14.3,2.3-19.9c1.5-5.6,4-10.2,7.6-13.9c3.5-3.7,8.1-6.4,13.8-8.1c5.7-1.8,12.6-2.6,20.9-2.6h30.1
			c6.3,0,11.7,0.5,16.2,1.4c4.5,0.9,8.3,2.3,11.5,4c3.1,1.8,5.7,4,7.6,6.8c1.9,2.8,3.5,6,4.7,9.6c2.1-7.3,6.2-12.8,12.3-16.4
			c6-3.6,15.2-5.4,27.4-5.4h31c8.3,0,15.2,0.9,20.9,2.6c5.7,1.8,10.2,4.5,13.8,8.1c3.5,3.7,6,8.3,7.6,13.9
			c1.5,5.6,2.3,12.2,2.3,19.9v67.7c0,6.7-5.4,12.2-12.2,12.2H1310.4z"/>
		<path class="st1" d="M1460.7,355.2c11.6,0,21.3,1,28.9,2.9c7.7,1.9,13.8,5,18.4,9.2c4.6,4.2,7.8,9.8,9.7,16.6
			c1.9,6.9,2.9,15.3,2.9,25.2v16.8c0,10-1,18.3-2.9,25.1c-1.9,6.8-5.2,12.3-9.7,16.5c-4.6,4.2-10.7,7.3-18.4,9.2
			c-7.7,1.9-17.3,2.9-28.9,2.9h-57.1c-6.7,0-12.2,5.4-12.2,12.2v12.9c0,6.7-5.4,12.2-12.2,12.2h-9.9c-6.7,0-12.2-5.4-12.2-12.2
			v-95.5c0-9.9,1-18.4,2.9-25.2c1.9-6.9,5.2-12.4,9.8-16.6c4.6-4.2,10.7-7.3,18.4-9.2c7.7-1.9,17.3-2.9,28.9-2.9H1460.7z
			 M1486.4,410.1c0-5.5-0.4-9.9-1.3-13.3c-0.8-3.4-2.4-6-4.7-7.8c-2.3-1.8-5.4-3.1-9.3-3.7c-3.9-0.6-8.8-0.9-14.8-0.9h-38.1
			c-5.4,0-9.8,0.4-13.3,1.1c-3.5,0.8-6.3,2.1-8.3,4c-2,1.9-3.4,4.5-4.1,7.8s-1.1,7.5-1.1,12.5v28.5c0,6.7,5.4,12.2,12.2,12.2h53
			c6,0,10.9-0.3,14.7-0.8c3.8-0.5,6.9-1.7,9.2-3.6c2.3-1.8,3.9-4.4,4.7-7.8c0.8-3.4,1.3-7.9,1.3-13.5V410.1z"/>
		<path class="st1" d="M1605.5,479.6c-11.5,0-21-1-28.7-2.9c-7.7-1.9-13.8-5-18.4-9.2c-4.6-4.2-7.8-9.7-9.7-16.5
			c-1.9-6.8-2.9-15.2-2.9-25.1v-58.5c0-6.7,5.4-12.2,12.2-12.2h10.1c6.7,0,12.2,5.4,12.2,12.2V425c0,5.4,0.5,9.7,1.5,13
			c1,3.3,2.6,5.8,4.7,7.7c2.1,1.8,5,3.1,8.6,3.8c3.6,0.7,8,1,13.2,1h35.8c5.5,0,10.1-0.3,13.8-1s6.5-1.9,8.6-3.8
			c2.1-1.8,3.5-4.4,4.4-7.7c0.8-3.3,1.3-7.6,1.3-13v-57.6c0-6.7,5.4-12.2,12.2-12.2h9.6c6.7,0,12.2,5.4,12.2,12.2v58.5
			c0,10-1,18.3-2.9,25.1c-1.9,6.8-5.2,12.3-9.7,16.5c-4.6,4.2-10.8,7.3-18.5,9.2c-7.7,1.9-17.4,2.9-29,2.9H1605.5z"/>
		<path class="st1" d="M1878.6,446.6c0,6.1-0.5,11.3-1.6,15.5c-1.1,4.2-3.2,7.6-6.3,10.2c-3.1,2.6-7.4,4.5-12.9,5.6
			c-5.4,1.1-12.5,1.7-21.2,1.7h-94.8c-6.7,0-12.2-5.4-12.2-12.2v-2.5c0-6.7,5.4-12.2,12.2-12.2h90.4c4.6,0,7.8-0.8,9.6-2.3
			s2.8-4.4,2.8-8.7v-4.1c0-4.6-0.9-7.5-2.6-8.6c-1.8-1.1-4.7-1.7-8.8-1.7h-69.8c-7,0-12.7-0.7-17.1-2.1c-4.4-1.4-7.8-3.4-10.2-6.2
			c-2.5-2.8-4.1-6.2-4.9-10.2c-0.9-4.1-1.3-8.8-1.3-14.3V385c0-5.4,0.6-9.9,1.7-13.8c1.1-3.8,3-6.9,5.6-9.3
			c2.6-2.4,6.1-4.1,10.6-5.2c4.4-1.1,10-1.6,16.8-1.6h35.1c6.7,0,12.2,5.4,12.2,12.2v1.6c0,6.7-5.4,12.2-12.2,12.2h-26.8
			c-3.4,0-5.8,0.6-7.2,1.8c-1.5,1.2-2.2,3.4-2.2,6.7v5.7c0,3.5,0.7,5.9,2.1,7.1c1.4,1.2,3.6,1.8,6.7,1.8h67.5c8,0,14.5,0.7,19.5,1.9
			c5.1,1.3,9,3.4,11.9,6.2c2.9,2.8,4.9,6.5,6,11c1.1,4.5,1.6,10.1,1.6,16.6V446.6z"/>
	</g>
</g>
</svg>
