<?xml version="1.0" encoding="utf-8"?>
<!-- Generator: Adobe Illustrator 19.0.0, SVG Export Plug-In . SVG Version: 6.00 Build 0)  -->
<svg version="1.1" id="Layer_1" xmlns="http://www.w3.org/2000/svg" xmlns:xlink="http://www.w3.org/1999/xlink" x="0px" y="0px"
	 viewBox="0 0 255.1 283.5" style="enable-background:new 0 0 255.1 283.5;" xml:space="preserve">
<style type="text/css">
	.st0{fill:url(#XMLID_196_);}
	.st1{fill:#FFFFFF;}
</style>
<g id="XMLID_21_">
	<linearGradient id="XMLID_196_" gradientUnits="userSpaceOnUse" x1="36.7084" y1="141.7323" x2="276.044" y2="141.7323">
		<stop  offset="0" style="stop-color:#00B6F2"/>
		<stop  offset="1" style="stop-color:#0055F2"/>
	</linearGradient>
	<rect id="XMLID_34_" class="st0" width="255.1" height="283.5"/>
	<g id="XMLID_24_">
		<g id="XMLID_31_">
			<path id="XMLID_32_" class="st1" d="M135.1,107.3c1.7,1.6,3.1,3.6,4.3,6c1.1,2.4,2.1,5,2.8,7.9c0.8,2.8,1.5,5.6,2.3,8.1
				c0.4,1.5,1,3.4,1.7,5.6c0.7,2.3,1.6,4.5,2.6,6.6c1,2.1,2.2,4,3.6,5.5c1.4,1.5,3,2.3,4.8,2.3c2.1,0,4-0.8,5.5-2.4
				c1.5-1.6,2.7-3.5,3.7-5.8c1-2.3,1.8-4.5,2.4-6.8c0.6-2.3,1.2-4,1.8-5.3c0.5-1.5,1-3.5,1.5-5.9c0.5-2.4,1.1-4.7,1.9-7
				c0.8-2.3,1.9-4.2,3.3-5.9c1.4-1.7,3.3-2.5,5.6-2.5c2.5,0,3.7,1.6,3.7,4.7c0,2.4-0.6,5.4-1.8,9.2c-1.2,3.8-2.5,7.7-3.9,11.9
				l-7.2,22c-1.3,3.8-2.4,7.2-3.4,10.4c-1,3.2-2,5.9-3.1,8.2c-1.1,2.3-2.4,4.1-3.9,5.4c-1.5,1.3-3.4,1.9-5.6,1.9
				c-2.8,0-5-0.8-6.8-2.3c-1.7-1.6-3.2-3.5-4.3-6c-1.2-2.4-2.2-5-3-7.8c-0.8-2.8-1.6-5.5-2.3-8c-0.5-1.8-1.2-3.9-2-6.1
				c-0.8-2.3-1.8-4.4-2.9-6.4c-1.1-2-2.4-3.6-3.9-5c-1.4-1.3-3.1-2-5.1-2c-3.9,0-6.7,1.9-8.6,5.8c-1.9,3.9-3.6,8.9-5.1,15
				c-0.6,2.8-1.3,5.6-2,8.3s-1.6,5.2-2.6,7.4c-1,2.2-2.4,4-4.1,5.4c-1.7,1.4-4,2.1-6.8,2.1c-2.3,0-4.2-0.7-5.8-2
				c-1.6-1.3-3-3.2-4.3-5.5c-1.2-2.3-2.4-5-3.5-8.2c-1.1-3.2-2.2-6.6-3.4-10.4l-7.4-22.5c-1.6-4.8-3-9.1-4.2-12.7
				c-1.2-3.6-1.8-6.5-1.8-8.7c0-3.4,1.7-5.2,5.2-5.2c1.9,0,3.6,0.6,4.9,1.9c1.3,1.3,2.5,2.9,3.4,4.9c0.9,2,1.7,4.2,2.4,6.6
				c0.7,2.4,1.4,4.7,2.2,7c1,2.7,1.9,5.3,2.7,8c0.9,2.6,1.8,5,2.9,7.1c1.1,2.1,2.3,3.8,3.5,5.1c1.3,1.3,2.7,1.9,4.3,1.9
				c2,0,3.8-0.7,5.2-2c1.4-1.3,2.6-3,3.5-5.1c1-2,1.8-4.2,2.4-6.4c0.6-2.2,1.2-4.2,1.6-6c0.7-2.9,1.4-5.8,2.1-8.8
				c0.6-2.9,1.5-5.6,2.6-8c1.1-2.4,2.5-4.3,4.3-5.8c1.8-1.5,4.2-2.3,7.2-2.3C131.2,104.9,133.4,105.7,135.1,107.3z"/>
		</g>
		<g id="XMLID_25_">
			<g id="XMLID_26_">
				<path id="XMLID_29_" class="st1" d="M47.3,89.9c-0.7,3.3-1,6.6-1,9.8v10.1c0,6.1-0.3,10.7-1,13.8c-0.6,3.1-1.4,5.5-2.2,7.4
					c-0.8,1.9-1.5,3.6-2.2,5.1c-0.6,1.5-1,3.7-1,6.6c0,2.6,0.3,4.5,1,5.8c0.6,1.3,1.4,2.8,2.2,4.7c0.8,1.8,1.6,4.3,2.3,7.6
					c0.7,3.2,1,8,1,14.5v12.2c0,2.8,0.3,5.5,1,8s1.7,4.7,3.2,6.4c0.6,0.6,1.4,1.3,2.3,1.9c0.9,0.6,1.7,1.3,2.5,2
					c0.8,0.7,1.5,1.5,2.1,2.3c0.6,0.9,0.9,1.9,0.9,3.1c0,0.5-0.3,0.9-1,1.2c-0.7,0.3-1.6,0.4-2.7,0.4c-1.6,0-3.4-0.3-5.3-0.9
					c-1.9-0.6-3.5-1.5-4.7-2.7c-3.4-3.4-5.6-6.9-6.5-10.5c-0.9-3.5-1.4-7.3-1.4-11.4v-12.6c0-6.3-0.7-11.2-2-14.6
					c-1.3-3.4-2.8-6-4.4-8c-1.6-1.9-3.1-3.5-4.4-4.8c-1.3-1.3-2-3.1-2-5.3c0-1.7,0.3-3.1,1-4.2c0.6-1.1,1.4-2,2.3-2.9
					c0.9-0.9,1.9-1.8,3-2.9c1.1-1.1,2.1-2.5,3-4.3c0.9-1.8,1.7-4.1,2.3-7c0.6-2.9,1-6.6,1-11.1V98c0-3.9,0.3-7.7,1-11.6
					c0.7-3.9,2.1-6.9,4.3-9.2c1.7-1.7,3.8-3.1,6.2-4.3c2.4-1.1,4.5-1.7,6.4-1.7c2.4,0,3.5,1,3.5,2.9c0,1.2-0.6,2.3-1.9,3.4
					c-1.3,1.1-3,2.7-5,4.8C49.3,84.1,48,86.6,47.3,89.9z"/>
				<path id="XMLID_27_" class="st1" d="M203.7,193.6c0.6-3.3,1-7.6,1-12.9v-8.4c0-5.8,0.3-10.1,1-13s1.4-5.2,2.2-7
					c0.8-1.8,1.6-3.4,2.3-4.9c0.7-1.5,1-3.7,1-6.6c0-2.6-0.4-4.5-1-5.8c-0.7-1.3-1.4-2.8-2.3-4.5c-0.8-1.7-1.5-4.1-2.2-7.2
					c-0.6-3.1-1-7.6-1-13.6v-7.6c0-4.8-0.2-8.9-0.6-12.3c-0.4-3.4-1.6-6.1-3.5-8.1c-0.6-0.7-1.4-1.4-2.3-2c-0.9-0.6-1.8-1.3-2.6-2
					c-0.8-0.7-1.5-1.6-2-2.4c-0.5-0.9-0.8-1.9-0.8-3.1c0-0.5,0.3-0.9,1-1.2c0.7-0.3,1.5-0.4,2.5-0.4c1.7,0,3.6,0.3,5.6,0.9
					c2,0.6,3.6,1.5,4.7,2.7c2,2.1,3.6,4.3,4.7,6.4c1.1,2.1,1.9,4.3,2.3,6.6c0.5,2.3,0.7,4.6,0.7,7.1c0,2.4,0,4.9,0,7.6v7.9
					c0,6.1,0.7,10.8,2,14c1.3,3.2,2.8,5.8,4.4,7.6c1.6,1.9,3.1,3.5,4.5,4.7c1.4,1.3,2.1,3,2.1,5.2c0,1.8-0.3,3.2-1,4.2
					c-0.6,1-1.4,1.9-2.3,2.7c-0.9,0.9-1.9,1.8-3.1,2.9c-1.1,1.1-2.1,2.5-3.1,4.3c-0.9,1.8-1.7,4.1-2.3,7c-0.6,2.9-1,6.6-1,11.1v7.6
					c0,2.1,0,4.4-0.1,6.8c-0.1,2.4-0.2,4.7-0.6,7c-0.3,2.3-0.8,4.4-1.5,6.4c-0.7,2-1.7,3.7-3,5c-1.7,1.7-3.8,3.2-6.3,4.3
					c-2.5,1.2-4.6,1.8-6.4,1.8c-2.3,0-3.4-1-3.4-2.9c0-1.2,0.6-2.3,1.9-3.5c1.2-1.1,2.9-2.8,5.1-4.9
					C201.9,199.4,203.1,196.9,203.7,193.6z"/>
			</g>
		</g>
	</g>
</g>
</svg>
