<?xml version="1.0" encoding="utf-8"?>
<!-- Generator: Adobe Illustrator 19.0.0, SVG Export Plug-In . SVG Version: 6.00 Build 0)  -->
<svg version="1.1" id="Layer_1" xmlns="http://www.w3.org/2000/svg" xmlns:xlink="http://www.w3.org/1999/xlink" x="0px" y="0px"
	 viewBox="0 0 255.1 171.3" style="enable-background:new 0 0 255.1 171.3;" xml:space="preserve">
<style type="text/css">
	.st0{fill:url(#XMLID_104_);}
	.st1{fill:#FFFFFF;}
</style>
<g id="XMLID_1_">
	<linearGradient id="XMLID_104_" gradientUnits="userSpaceOnUse" x1="106.6526" y1="105.471" x2="168.4438" y2="46.8485">
		<stop  offset="0" style="stop-color:#FE6E00"/>
		<stop  offset="1" style="stop-color:#FF593D"/>
	</linearGradient>
	<rect id="XMLID_76_" class="st0" width="255.1" height="171.3"/>
	<g id="XMLID_34_">
		<g id="XMLID_66_">
			<g id="XMLID_73_">
				<path id="XMLID_74_" class="st1" d="M56.2,33.5c0.6,0.6,1.2,1.3,1.6,2.2c0.4,0.9,0.8,1.9,1,2.9c0.3,1,0.6,2,0.8,3
					c0.2,0.6,0.4,1.2,0.6,2.1c0.3,0.8,0.6,1.6,0.9,2.4c0.4,0.8,0.8,1.5,1.3,2c0.5,0.6,1.1,0.8,1.8,0.8c0.8,0,1.5-0.3,2-0.9
					c0.6-0.6,1-1.3,1.4-2.1c0.4-0.8,0.7-1.7,0.9-2.5c0.2-0.8,0.5-1.5,0.7-2c0.2-0.6,0.4-1.3,0.6-2.2c0.2-0.9,0.4-1.7,0.7-2.6
					c0.3-0.8,0.7-1.5,1.2-2.2c0.5-0.6,1.2-0.9,2.1-0.9c0.9,0,1.4,0.6,1.4,1.7c0,0.9-0.2,2-0.7,3.4c-0.4,1.4-0.9,2.8-1.4,4.4
					l-2.7,8.1c-0.5,1.4-0.9,2.7-1.2,3.8c-0.4,1.2-0.7,2.2-1.2,3c-0.4,0.8-0.9,1.5-1.4,2c-0.6,0.5-1.2,0.7-2.1,0.7
					c-1,0-1.9-0.3-2.5-0.9c-0.6-0.6-1.2-1.3-1.6-2.2c-0.4-0.9-0.8-1.8-1.1-2.9c-0.3-1-0.6-2-0.9-3c-0.2-0.7-0.4-1.4-0.7-2.2
					c-0.3-0.8-0.7-1.6-1.1-2.3c-0.4-0.7-0.9-1.3-1.4-1.8c-0.5-0.5-1.2-0.7-1.9-0.7c-1.4,0-2.5,0.7-3.2,2.1c-0.7,1.4-1.3,3.3-1.9,5.5
					c-0.2,1-0.5,2-0.7,3c-0.3,1-0.6,1.9-0.9,2.7c-0.4,0.8-0.9,1.5-1.5,2c-0.6,0.5-1.5,0.8-2.5,0.8c-0.8,0-1.5-0.2-2.1-0.7
					c-0.6-0.5-1.1-1.2-1.6-2c-0.5-0.8-0.9-1.9-1.3-3c-0.4-1.2-0.8-2.4-1.2-3.8L33.7,43c-0.6-1.8-1.1-3.3-1.5-4.7
					c-0.4-1.3-0.7-2.4-0.7-3.2c0-1.3,0.6-1.9,1.9-1.9c0.7,0,1.3,0.2,1.8,0.7c0.5,0.5,0.9,1.1,1.2,1.8c0.3,0.7,0.6,1.5,0.9,2.4
					s0.5,1.7,0.8,2.6c0.4,1,0.7,2,1,2.9c0.3,1,0.7,1.8,1.1,2.6c0.4,0.8,0.8,1.4,1.3,1.9c0.5,0.5,1,0.7,1.6,0.7
					c0.7,0,1.4-0.2,1.9-0.7c0.5-0.5,0.9-1.1,1.3-1.9c0.4-0.7,0.7-1.5,0.9-2.3c0.2-0.8,0.4-1.5,0.6-2.2c0.3-1.1,0.5-2.1,0.8-3.2
					c0.2-1.1,0.6-2.1,0.9-2.9c0.4-0.9,0.9-1.6,1.6-2.1c0.7-0.6,1.6-0.8,2.7-0.8C54.8,32.6,55.6,32.9,56.2,33.5z"/>
			</g>
			<g id="XMLID_67_">
				<g id="XMLID_68_">
					<path id="XMLID_71_" class="st1" d="M23.9,27.1c-0.3,1.2-0.4,2.4-0.4,3.6v3.7c0,2.2-0.1,3.9-0.4,5.1c-0.2,1.1-0.5,2-0.8,2.7
						c-0.3,0.7-0.6,1.3-0.8,1.9c-0.2,0.6-0.4,1.4-0.4,2.4c0,0.9,0.1,1.7,0.4,2.1c0.2,0.5,0.5,1,0.8,1.7c0.3,0.7,0.6,1.6,0.8,2.8
						c0.3,1.2,0.4,3,0.4,5.3v4.5c0,1,0.1,2,0.4,3s0.6,1.7,1.2,2.4c0.2,0.2,0.5,0.5,0.8,0.7c0.3,0.2,0.6,0.5,0.9,0.7
						c0.3,0.3,0.6,0.5,0.8,0.9c0.2,0.3,0.3,0.7,0.3,1.1c0,0.2-0.1,0.3-0.4,0.4c-0.3,0.1-0.6,0.1-1,0.1c-0.6,0-1.2-0.1-2-0.3
						c-0.7-0.2-1.3-0.5-1.7-1c-1.3-1.3-2.1-2.5-2.4-3.8c-0.3-1.3-0.5-2.7-0.5-4.2v-4.6c0-2.3-0.2-4.1-0.7-5.4
						c-0.5-1.2-1-2.2-1.6-2.9c-0.6-0.7-1.1-1.3-1.6-1.8c-0.5-0.5-0.7-1.1-0.7-2c0-0.6,0.1-1.1,0.4-1.5c0.2-0.4,0.5-0.7,0.9-1.1
						c0.3-0.3,0.7-0.7,1.1-1.1c0.4-0.4,0.8-0.9,1.1-1.6c0.3-0.7,0.6-1.5,0.9-2.6s0.4-2.4,0.4-4.1V30c0-1.4,0.1-2.8,0.4-4.3
						c0.3-1.4,0.8-2.5,1.6-3.4c0.6-0.6,1.4-1.2,2.3-1.6c0.9-0.4,1.7-0.6,2.3-0.6c0.9,0,1.3,0.4,1.3,1.1c0,0.4-0.2,0.8-0.7,1.2
						c-0.5,0.4-1.1,1-1.8,1.8C24.6,24.9,24.2,25.9,23.9,27.1z"/>
					<path id="XMLID_69_" class="st1" d="M81.4,65.2c0.2-1.2,0.4-2.8,0.4-4.7v-3.1c0-2.1,0.1-3.7,0.4-4.8c0.2-1.1,0.5-1.9,0.8-2.6
						c0.3-0.7,0.6-1.3,0.8-1.8c0.3-0.6,0.4-1.4,0.4-2.4c0-0.9-0.1-1.7-0.4-2.1c-0.3-0.5-0.5-1-0.8-1.7c-0.3-0.6-0.6-1.5-0.8-2.6
						c-0.2-1.1-0.4-2.8-0.4-5v-2.8c0-1.8-0.1-3.3-0.2-4.5c-0.2-1.2-0.6-2.2-1.3-3c-0.2-0.3-0.5-0.5-0.9-0.7
						c-0.3-0.2-0.7-0.5-0.9-0.7c-0.3-0.3-0.5-0.6-0.7-0.9c-0.2-0.3-0.3-0.7-0.3-1.1c0-0.2,0.1-0.3,0.4-0.4C78,20,78.3,20,78.7,20
						c0.6,0,1.3,0.1,2,0.3c0.7,0.2,1.3,0.5,1.7,1c0.7,0.8,1.3,1.6,1.7,2.4c0.4,0.8,0.7,1.6,0.9,2.4c0.2,0.8,0.3,1.7,0.3,2.6
						c0,0.9,0,1.8,0,2.8v2.9c0,2.2,0.2,4,0.7,5.1c0.5,1.2,1,2.1,1.6,2.8c0.6,0.7,1.1,1.3,1.7,1.7c0.5,0.5,0.8,1.1,0.8,1.9
						c0,0.7-0.1,1.2-0.4,1.5c-0.2,0.4-0.5,0.7-0.9,1c-0.3,0.3-0.7,0.7-1.1,1.1c-0.4,0.4-0.8,0.9-1.1,1.6c-0.3,0.7-0.6,1.5-0.9,2.6
						c-0.2,1.1-0.4,2.4-0.4,4.1v2.8c0,0.8,0,1.6,0,2.5c0,0.9-0.1,1.7-0.2,2.6s-0.3,1.6-0.6,2.4c-0.3,0.7-0.6,1.4-1.1,1.8
						c-0.6,0.6-1.4,1.2-2.3,1.6c-0.9,0.4-1.7,0.7-2.4,0.7c-0.8,0-1.2-0.4-1.2-1.1c0-0.4,0.2-0.9,0.7-1.3c0.5-0.4,1.1-1,1.9-1.8
						C80.8,67.3,81.2,66.4,81.4,65.2z"/>
				</g>
			</g>
		</g>
		<g id="XMLID_35_">
			<path id="XMLID_64_" class="st1" d="M103.9,43.3c-1.4,0-2.5-0.1-3.4-0.3c-0.9-0.2-1.6-0.6-2.2-1.1c-0.5-0.5-0.9-1.1-1.1-1.9
				c-0.2-0.8-0.3-1.8-0.3-3v-2c0-1.2,0.1-2.2,0.3-3c0.2-0.8,0.6-1.5,1.1-2c0.5-0.5,1.3-0.9,2.2-1.1c0.9-0.2,2-0.3,3.4-0.3h9.2
				c0.8,0,1.4,0.6,1.4,1.4v0.6c0,0.8-0.6,1.4-1.4,1.4h-9c-0.6,0-1.1,0-1.6,0.1c-0.4,0.1-0.7,0.2-1,0.5c-0.2,0.2-0.4,0.5-0.5,0.9
				c-0.1,0.4-0.1,0.9-0.1,1.5v1.7c0,0.6,0,1.1,0.1,1.4c0.1,0.4,0.3,0.7,0.5,0.9c0.2,0.2,0.6,0.4,1,0.5c0.4,0.1,0.9,0.1,1.6,0.1h9
				c0.8,0,1.4,0.6,1.4,1.4v0.5c0,0.8-0.6,1.4-1.4,1.4H103.9z"/>
			<path id="XMLID_61_" class="st1" d="M124.3,43.3c-1.4,0-2.5-0.1-3.4-0.3c-0.9-0.2-1.6-0.6-2.2-1.1c-0.5-0.5-0.9-1.1-1.1-1.9
				c-0.2-0.8-0.3-1.8-0.3-3v-2c0-1.2,0.1-2.2,0.3-3c0.2-0.8,0.6-1.5,1.1-2c0.5-0.5,1.3-0.9,2.2-1.1c0.9-0.2,2-0.3,3.4-0.3h4.9
				c1.4,0,2.5,0.1,3.4,0.3c0.9,0.2,1.6,0.6,2.2,1.1c0.5,0.5,0.9,1.2,1.1,2c0.2,0.8,0.3,1.8,0.3,3v1.9c0,1.2-0.1,2.2-0.3,3
				c-0.2,0.8-0.6,1.5-1.1,1.9c-0.5,0.5-1.3,0.9-2.2,1.1c-0.9,0.2-2,0.3-3.4,0.3H124.3z M132.2,35.1c0-0.6,0-1.1-0.1-1.5
				c-0.1-0.4-0.3-0.7-0.5-0.9c-0.3-0.2-0.6-0.4-1.1-0.5c-0.5-0.1-1.1-0.1-1.8-0.1h-3.8c-0.7,0-1.3,0-1.8,0.1
				c-0.5,0.1-0.8,0.2-1.1,0.5c-0.3,0.2-0.4,0.5-0.5,0.9c-0.1,0.4-0.1,0.9-0.1,1.5v1.7c0,0.6,0.1,1.1,0.1,1.5s0.3,0.7,0.5,0.9
				c0.3,0.2,0.6,0.4,1.1,0.5c0.5,0.1,1,0.1,1.8,0.1h3.8c0.7,0,1.3,0,1.8-0.1c0.5-0.1,0.8-0.2,1.1-0.5c0.3-0.2,0.4-0.5,0.5-0.9
				s0.1-0.9,0.1-1.5V35.1z"/>
			<path id="XMLID_58_" class="st1" d="M146.2,43.3c-1.4,0-2.5-0.1-3.4-0.3c-0.9-0.2-1.6-0.6-2.2-1.1c-0.5-0.5-0.9-1.1-1.1-1.9
				c-0.2-0.8-0.3-1.8-0.3-3v-2c0-1.2,0.1-2.2,0.3-3c0.2-0.8,0.6-1.5,1.1-2c0.5-0.5,1.3-0.9,2.2-1.1c0.9-0.2,2-0.3,3.4-0.3h6.7
				c0.8,0,1.4-0.6,1.4-1.4v-1.9c0-0.8,0.6-1.4,1.4-1.4h1.2c0.8,0,1.4,0.6,1.4,1.4v11.6c0,1.2-0.1,2.2-0.3,3
				c-0.2,0.8-0.6,1.5-1.1,1.9c-0.5,0.5-1.3,0.9-2.2,1.1c-0.9,0.2-2,0.3-3.4,0.3H146.2z M143.2,36.8c0,0.6,0,1.2,0.1,1.6
				c0.1,0.4,0.3,0.7,0.6,0.9c0.3,0.2,0.6,0.4,1.1,0.4c0.5,0.1,1,0.1,1.8,0.1h4.5c0.6,0,1.1,0,1.6-0.1c0.4-0.1,0.7-0.2,1-0.5
				c0.2-0.2,0.4-0.5,0.5-0.9s0.1-0.9,0.1-1.5v-3.3c0-0.8-0.6-1.4-1.4-1.4h-6.2c-0.7,0-1.3,0-1.7,0.1c-0.5,0.1-0.8,0.2-1.1,0.4
				c-0.3,0.2-0.5,0.5-0.6,0.9c-0.1,0.4-0.1,0.9-0.1,1.6V36.8z"/>
			<path id="XMLID_55_" class="st1" d="M162.8,27.8c-0.5,0-0.9-0.1-1.1-0.3c-0.2-0.2-0.3-0.5-0.3-0.9V25c0-0.4,0.1-0.7,0.3-0.9
				c0.2-0.2,0.6-0.3,1.1-0.3h1.3c0.5,0,0.9,0.1,1.1,0.3c0.2,0.2,0.3,0.5,0.3,0.9v1.6c0,0.4-0.1,0.7-0.3,0.9
				c-0.2,0.2-0.6,0.3-1.1,0.3H162.8z M161.5,41.8V30.4c0-0.8,0.6-1.4,1.4-1.4h1.2c0.8,0,1.4,0.6,1.4,1.4v11.4c0,0.8-0.6,1.4-1.4,1.4
				h-1.2C162.1,43.3,161.5,42.6,161.5,41.8z"/>
			<path id="XMLID_53_" class="st1" d="M185,43.3c-0.8,0-1.4-0.6-1.4-1.4v-6.7c0-0.6,0-1.1-0.1-1.5c-0.1-0.4-0.3-0.7-0.5-0.9
				c-0.2-0.2-0.6-0.4-1-0.5c-0.4-0.1-1-0.1-1.6-0.1H176c-0.6,0-1.2,0-1.6,0.1c-0.4,0.1-0.8,0.2-1,0.5c-0.3,0.2-0.4,0.5-0.5,0.9
				c-0.1,0.4-0.1,0.9-0.1,1.5v6.7c0,0.8-0.6,1.4-1.4,1.4h-1.2c-0.8,0-1.4-0.6-1.4-1.4V35c0-1.2,0.1-2.2,0.3-3c0.2-0.8,0.6-1.5,1.1-2
				c0.5-0.5,1.3-0.9,2.2-1.1c0.9-0.2,2-0.3,3.4-0.3h4.9c1.4,0,2.5,0.1,3.4,0.3c0.9,0.2,1.6,0.6,2.2,1.1c0.5,0.5,0.9,1.1,1.1,2
				c0.2,0.8,0.3,1.8,0.3,3v6.9c0,0.8-0.6,1.4-1.4,1.4H185z"/>
			<path id="XMLID_50_" class="st1" d="M198.6,46.2v-0.4c0-0.8,0.6-1.4,1.4-1.4h4.2c0.6,0,1-0.1,1.3-0.4c0.3-0.2,0.4-0.6,0.4-1.2
				v-1.2h-9.2c-1.1,0-2.1-0.1-2.8-0.3s-1.4-0.5-1.9-0.9c-0.5-0.4-0.8-0.9-1.1-1.5c-0.2-0.6-0.3-1.4-0.3-2.3v-2.2
				c0-1.1,0.1-2,0.3-2.8c0.2-0.7,0.5-1.3,1-1.8c0.5-0.4,1.1-0.8,1.9-1c0.8-0.2,1.9-0.3,3.1-0.3h6.5c1.2,0,2.2,0.1,3,0.3
				c0.8,0.2,1.5,0.6,2,1c0.5,0.5,0.8,1.1,1.1,1.8c0.2,0.7,0.3,1.6,0.3,2.7V43c0,1.6-0.4,2.8-1.2,3.6c-0.8,0.7-2.1,1.1-4,1.1H200
				C199.2,47.6,198.6,47,198.6,46.2z M205.8,34.5c0-1-0.2-1.6-0.6-2c-0.4-0.3-1.1-0.5-2.1-0.5h-6.3c-0.9,0-1.6,0.2-1.9,0.5
				c-0.3,0.4-0.5,1-0.5,2v1.9c0,0.4,0,0.7,0.1,1c0.1,0.3,0.2,0.5,0.4,0.6c0.2,0.2,0.4,0.3,0.7,0.3c0.3,0.1,0.7,0.1,1.2,0.1h7.5
				c0.8,0,1.4-0.6,1.4-1.4V34.5z"/>
			<path id="XMLID_48_" class="st1" d="M103.9,67.6c-1.4,0-2.5-0.1-3.4-0.3c-0.9-0.2-1.6-0.6-2.2-1.1c-0.5-0.5-0.9-1.1-1.1-1.9
				c-0.2-0.8-0.3-1.8-0.3-3v-2c0-1.2,0.1-2.2,0.3-3c0.2-0.8,0.6-1.5,1.1-2c0.5-0.5,1.3-0.9,2.2-1.1c0.9-0.2,2-0.3,3.4-0.3h9.2
				c0.8,0,1.4,0.6,1.4,1.4v0.6c0,0.8-0.6,1.4-1.4,1.4h-9c-0.6,0-1.1,0-1.6,0.1c-0.4,0.1-0.7,0.2-1,0.5c-0.2,0.2-0.4,0.5-0.5,0.9
				c-0.1,0.4-0.1,0.9-0.1,1.5v1.7c0,0.6,0,1.1,0.1,1.4c0.1,0.4,0.3,0.7,0.5,0.9c0.2,0.2,0.6,0.4,1,0.5c0.4,0.1,0.9,0.1,1.6,0.1h9
				c0.8,0,1.4,0.6,1.4,1.4v0.5c0,0.8-0.6,1.4-1.4,1.4H103.9z"/>
			<path id="XMLID_45_" class="st1" d="M122.4,67.6c-1.1,0-1.9-0.1-2.6-0.3c-0.7-0.2-1.2-0.4-1.6-0.8c-0.4-0.3-0.7-0.7-0.9-1.2
				c-0.2-0.5-0.2-1-0.2-1.6v-1.4c0-0.6,0.1-1.2,0.2-1.6c0.2-0.5,0.4-0.9,0.8-1.2c0.4-0.3,0.9-0.6,1.6-0.8c0.7-0.2,1.5-0.3,2.5-0.3
				H133v-0.3c0-0.9-0.2-1.6-0.6-1.9c-0.4-0.3-1-0.5-1.9-0.5h-2.6c-0.8,0-1.4-0.6-1.4-1.4v0c0-0.8,0.6-1.4,1.4-1.4h2.6
				c1.2,0,2.2,0.1,3,0.3c0.8,0.2,1.5,0.5,2,1c0.5,0.4,0.9,1,1.1,1.7c0.2,0.7,0.4,1.5,0.4,2.4v3.6c0,1.1-0.1,2-0.3,2.7
				c-0.2,0.7-0.6,1.3-1.1,1.8c-0.5,0.5-1.2,0.8-2.1,1c-0.9,0.2-1.9,0.3-3.2,0.3H122.4z M133,60.9h-10.4c-0.5,0-0.8,0.1-1.1,0.3
				c-0.3,0.2-0.4,0.6-0.4,1.2v1c0,0.5,0.1,0.9,0.4,1.1c0.3,0.2,0.7,0.3,1.2,0.3h7.6c0.5,0,0.9,0,1.2-0.1c0.3-0.1,0.6-0.2,0.8-0.4
				c0.2-0.2,0.4-0.5,0.5-0.8c0.1-0.3,0.2-0.8,0.2-1.3V60.9z"/>
			<path id="XMLID_43_" class="st1" d="M164.5,67.6c-0.8,0-1.4-0.6-1.4-1.4v-7.4c0-0.9-0.2-1.5-0.5-1.9c-0.4-0.3-0.9-0.5-1.7-0.5
				h-2.6c-0.6,0-1.1,0-1.5,0.1c-0.4,0.1-0.7,0.2-0.9,0.4c-0.2,0.2-0.4,0.4-0.5,0.7c-0.1,0.3-0.1,0.7-0.1,1.1v7.4
				c0,0.8-0.6,1.4-1.4,1.4h-0.7c-0.8,0-1.4-0.6-1.4-1.4v-7.4c0-0.4,0-0.8-0.1-1.1c-0.1-0.3-0.2-0.5-0.5-0.7
				c-0.2-0.2-0.5-0.3-0.9-0.4c-0.4-0.1-0.9-0.1-1.5-0.1h-2.6c-0.8,0-1.4,0.2-1.7,0.5c-0.3,0.3-0.5,1-0.5,1.9v7.4
				c0,0.8-0.6,1.4-1.4,1.4h-1.1c-0.8,0-1.4-0.6-1.4-1.4v-8c0-0.9,0.1-1.7,0.3-2.3c0.2-0.7,0.5-1.2,0.9-1.6c0.4-0.4,1-0.8,1.6-1
				c0.7-0.2,1.5-0.3,2.5-0.3h3.5c0.7,0,1.4,0.1,1.9,0.2c0.5,0.1,1,0.3,1.4,0.5c0.4,0.2,0.7,0.5,0.9,0.8c0.2,0.3,0.4,0.7,0.6,1.1
				c0.3-0.9,0.7-1.5,1.4-1.9c0.7-0.4,1.8-0.6,3.2-0.6h3.6c1,0,1.8,0.1,2.5,0.3c0.7,0.2,1.2,0.5,1.6,1c0.4,0.4,0.7,1,0.9,1.6
				c0.2,0.7,0.3,1.4,0.3,2.3v8c0,0.8-0.6,1.4-1.4,1.4H164.5z"/>
			<path id="XMLID_40_" class="st1" d="M182.2,52.9c1.4,0,2.5,0.1,3.4,0.3s1.6,0.6,2.2,1.1c0.5,0.5,0.9,1.1,1.1,2
				c0.2,0.8,0.3,1.8,0.3,3v2c0,1.2-0.1,2.2-0.3,3c-0.2,0.8-0.6,1.5-1.1,1.9c-0.5,0.5-1.3,0.9-2.2,1.1c-0.9,0.2-2,0.3-3.4,0.3h-6.7
				c-0.8,0-1.4,0.6-1.4,1.4v1.5c0,0.8-0.6,1.4-1.4,1.4h-1.2c-0.8,0-1.4-0.6-1.4-1.4V59.3c0-1.2,0.1-2.2,0.3-3c0.2-0.8,0.6-1.5,1.1-2
				c0.5-0.5,1.3-0.9,2.2-1.1s2-0.3,3.4-0.3H182.2z M185.2,59.4c0-0.6-0.1-1.2-0.1-1.6c-0.1-0.4-0.3-0.7-0.6-0.9
				c-0.3-0.2-0.6-0.4-1.1-0.4c-0.5-0.1-1-0.1-1.7-0.1h-4.5c-0.6,0-1.2,0-1.6,0.1c-0.4,0.1-0.7,0.2-1,0.5c-0.2,0.2-0.4,0.5-0.5,0.9
				c-0.1,0.4-0.1,0.9-0.1,1.5v3.3c0,0.8,0.6,1.4,1.4,1.4h6.2c0.7,0,1.3,0,1.7-0.1s0.8-0.2,1.1-0.4c0.3-0.2,0.5-0.5,0.6-0.9
				c0.1-0.4,0.1-0.9,0.1-1.6V59.4z"/>
			<path id="XMLID_38_" class="st1" d="M199.2,67.6c-1.4,0-2.5-0.1-3.4-0.3c-0.9-0.2-1.6-0.6-2.2-1.1c-0.5-0.5-0.9-1.1-1.1-1.9
				c-0.2-0.8-0.3-1.8-0.3-3v-6.9c0-0.8,0.6-1.4,1.4-1.4h1.2c0.8,0,1.4,0.6,1.4,1.4v6.8c0,0.6,0.1,1.1,0.2,1.5s0.3,0.7,0.6,0.9
				c0.3,0.2,0.6,0.4,1,0.4c0.4,0.1,0.9,0.1,1.6,0.1h4.2c0.6,0,1.2,0,1.6-0.1c0.4-0.1,0.8-0.2,1-0.4c0.2-0.2,0.4-0.5,0.5-0.9
				c0.1-0.4,0.1-0.9,0.1-1.5v-6.8c0-0.8,0.6-1.4,1.4-1.4h1.1c0.8,0,1.4,0.6,1.4,1.4v6.9c0,1.2-0.1,2.2-0.3,3
				c-0.2,0.8-0.6,1.5-1.1,1.9c-0.5,0.5-1.3,0.9-2.2,1.1c-0.9,0.2-2,0.3-3.4,0.3H199.2z"/>
			<path id="XMLID_36_" class="st1" d="M231.4,63.7c0,0.7-0.1,1.3-0.2,1.8c-0.1,0.5-0.4,0.9-0.7,1.2c-0.4,0.3-0.9,0.5-1.5,0.7
				c-0.6,0.1-1.5,0.2-2.5,0.2h-11.2c-0.8,0-1.4-0.6-1.4-1.4v-0.3c0-0.8,0.6-1.4,1.4-1.4h10.6c0.5,0,0.9-0.1,1.1-0.3
				c0.2-0.2,0.3-0.5,0.3-1v-0.5c0-0.5-0.1-0.9-0.3-1c-0.2-0.1-0.6-0.2-1-0.2h-8.2c-0.8,0-1.5-0.1-2-0.2c-0.5-0.2-0.9-0.4-1.2-0.7
				c-0.3-0.3-0.5-0.7-0.6-1.2c-0.1-0.5-0.1-1-0.1-1.7v-1.1c0-0.6,0.1-1.2,0.2-1.6c0.1-0.4,0.4-0.8,0.7-1.1c0.3-0.3,0.7-0.5,1.2-0.6
				c0.5-0.1,1.2-0.2,2-0.2h4.1c0.8,0,1.4,0.6,1.4,1.4v0.2c0,0.8-0.6,1.4-1.4,1.4h-3.2c-0.4,0-0.7,0.1-0.9,0.2
				c-0.2,0.1-0.3,0.4-0.3,0.8v0.7c0,0.4,0.1,0.7,0.2,0.8c0.2,0.1,0.4,0.2,0.8,0.2h7.9c0.9,0,1.7,0.1,2.3,0.2
				c0.6,0.2,1.1,0.4,1.4,0.7c0.3,0.3,0.6,0.8,0.7,1.3c0.1,0.5,0.2,1.2,0.2,2V63.7z"/>
		</g>
	</g>
	<g id="XMLID_2_">
		<path id="XMLID_31_" class="st1" d="M101.2,77.7c0,0.1,0,0.1-0.1,0.1c-0.2,0-0.4,0.1-0.7,0.1c-0.3,0-0.6,0.1-0.9,0.1
			c-0.3,0-0.7,0.1-1,0.1c-0.3,0-0.6,0-0.9,0c-0.2,0-0.4-0.1-0.5-0.2c-0.1-0.1-0.1-0.3-0.1-0.5v-3.4c0-0.2,0-0.4,0.1-0.4
			s0.2-0.1,0.5-0.1h2.7c0.1,0,0.1,0,0.1,0.1v0.3c0,0.1,0,0.1-0.1,0.1h-2.6c-0.1,0-0.1,0-0.1,0c0,0,0,0.1,0,0.1v3.3
			c0,0.1,0,0.1,0,0.2c0,0,0.1,0,0.1,0c0.3,0,0.6,0,0.9,0c0.3,0,0.6,0,0.9-0.1c0.3,0,0.6-0.1,0.8-0.1c0.3,0,0.5-0.1,0.7-0.1
			c0.1,0,0.1,0,0.1,0.1L101.2,77.7z M101.8,75.5v-2.4c0-0.1,0-0.1,0.1-0.1h0.3c0.1,0,0.1,0,0.1,0.1v7c0,0.1,0,0.1-0.1,0.1h-0.3
			c-0.1,0-0.1,0-0.1-0.1V76h-2.1c-0.1,0-0.1,0-0.1-0.1v-0.3c0-0.1,0-0.1,0.1-0.1H101.8z"/>
		<path id="XMLID_26_" class="st1" d="M111.1,76.1C111.1,76.2,111.2,76.2,111.1,76.1l0,0.3c0,0,0,0,0,0.1c0,0-0.1,0-0.1,0h-6.6
			c0,0-0.1,0-0.1,0c0,0,0,0,0-0.1v-0.3c0,0,0-0.1,0-0.1c0,0,0.1,0,0.1,0L111.1,76.1C111.1,76.1,111.1,76.1,111.1,76.1z M110.2,80
			C110.2,80.1,110.2,80.1,110.2,80c-0.1,0.1-0.1,0.1-0.1,0.1H106c-0.2,0-0.4,0-0.5-0.1c-0.1-0.1-0.1-0.2-0.1-0.5V79
			c0-0.2,0-0.4,0.1-0.4c0.1-0.1,0.3-0.1,0.5-0.1h3.4c0.1,0,0.1,0,0.1,0c0,0,0-0.1,0-0.1v-0.4c0-0.1,0-0.1,0-0.1c0,0-0.1,0-0.1,0
			h-3.9c0,0-0.1,0-0.1,0c0,0,0,0,0-0.1v-0.3c0,0,0,0,0-0.1c0,0,0,0,0.1,0h4c0.1,0,0.2,0,0.3,0c0.1,0,0.1,0,0.2,0.1
			c0,0,0.1,0.1,0.1,0.2c0,0.1,0,0.2,0,0.3v0.5c0,0.2,0,0.4-0.1,0.4c-0.1,0.1-0.3,0.1-0.5,0.1h-3.4c-0.1,0-0.1,0-0.1,0
			c0,0,0,0.1,0,0.1v0.5c0,0.1,0,0.1,0,0.1c0,0,0.1,0,0.1,0h4c0,0,0.1,0,0.1,0c0,0,0,0,0,0.1V80z M106,75.5c-0.1,0-0.2,0-0.3,0
			c-0.1,0-0.1,0-0.2-0.1c0,0-0.1-0.1-0.1-0.2c0-0.1,0-0.2,0-0.3V73c0,0,0,0,0-0.1c0,0,0,0,0.1,0h0.3c0,0,0,0,0.1,0c0,0,0,0,0,0.1
			v0.7h3.5v-0.7c0,0,0,0,0-0.1c0,0,0,0,0.1,0h0.3c0,0,0,0,0.1,0c0,0,0,0,0,0.1v2c0,0.2,0,0.3-0.1,0.4c-0.1,0.1-0.2,0.1-0.5,0.1H106z
			 M105.9,74.2v0.6c0,0.1,0,0.1,0,0.2c0,0,0.1,0,0.1,0h3.2c0.1,0,0.1,0,0.1,0c0,0,0-0.1,0-0.2v-0.6H105.9z"/>
		<path id="XMLID_22_" class="st1" d="M114.3,80.1C114.2,80.1,114.2,80.1,114.3,80.1c-0.1-0.1-0.1-0.1-0.1-0.1v-2.5h-1.8
			c0,0-0.1,0-0.1,0c0,0,0,0,0-0.1v-0.3c0,0,0-0.1,0-0.1c0,0,0.1,0,0.1,0h6.6c0,0,0.1,0,0.1,0c0,0,0,0,0,0.1v0.3c0,0,0,0,0,0.1
			c0,0-0.1,0-0.1,0h-1.9V80c0,0,0,0.1,0,0.1c0,0,0,0-0.1,0h-0.3c0,0,0,0-0.1,0c0,0,0-0.1,0-0.1v-2.5h-1.9V80c0,0,0,0.1,0,0.1
			c0,0,0,0-0.1,0H114.3z M115.7,76.2c-0.3,0-0.5,0-0.8-0.1s-0.6-0.1-0.8-0.3c-0.2-0.1-0.5-0.3-0.6-0.5c-0.2-0.2-0.2-0.4-0.2-0.7
			c0-0.3,0.1-0.5,0.2-0.7s0.4-0.4,0.6-0.5c0.2-0.1,0.5-0.2,0.8-0.3s0.6-0.1,0.8-0.1c0.3,0,0.6,0,0.9,0.1c0.3,0.1,0.6,0.1,0.8,0.3
			c0.2,0.1,0.4,0.3,0.6,0.5s0.2,0.4,0.2,0.7c0,0.3-0.1,0.5-0.2,0.7c-0.2,0.2-0.4,0.4-0.6,0.5c-0.2,0.1-0.5,0.2-0.8,0.3
			C116.2,76.1,115.9,76.2,115.7,76.2z M115.7,73.6c-0.2,0-0.4,0-0.6,0c-0.2,0-0.4,0.1-0.6,0.2c-0.2,0.1-0.4,0.2-0.5,0.3
			c-0.1,0.1-0.2,0.3-0.2,0.5s0.1,0.4,0.2,0.5c0.1,0.1,0.3,0.2,0.5,0.3c0.2,0.1,0.4,0.1,0.6,0.2c0.2,0,0.4,0,0.6,0c0.2,0,0.4,0,0.6,0
			c0.2,0,0.4-0.1,0.6-0.2c0.2-0.1,0.4-0.2,0.5-0.3c0.1-0.1,0.2-0.3,0.2-0.5s-0.1-0.4-0.2-0.5c-0.1-0.1-0.3-0.2-0.5-0.3
			c-0.2-0.1-0.4-0.1-0.6-0.2C116,73.6,115.8,73.6,115.7,73.6z"/>
		<path id="XMLID_19_" class="st1" d="M126.4,76.5C126.4,76.6,126.4,76.6,126.4,76.5l0,1.9h3.3c0,0,0.1,0,0.1,0c0,0,0,0,0,0.1v0.3
			c0,0,0,0,0,0.1c0,0-0.1,0-0.1,0h-6.6c0,0-0.1,0-0.1,0c0,0,0,0,0-0.1v-0.3c0,0,0-0.1,0-0.1c0,0,0.1,0,0.1,0h2.8v-1.9
			c0,0,0-0.1,0-0.1c0,0,0,0,0.1,0L126.4,76.5C126.4,76.5,126.4,76.5,126.4,76.5z M124.2,75.4c0.1,0,0.2,0,0.4,0s0.3,0,0.5,0
			c0.2,0,0.4,0,0.6,0c0.2,0,0.4,0,0.5,0c0.2,0,0.3,0,0.5,0c0.1,0,0.2,0,0.3,0c0,0,0.1,0,0.2,0c0.1,0,0.3,0,0.4,0c0.1,0,0.3,0,0.4,0
			c0.1,0,0.2,0,0.3,0c0-0.2,0-0.5,0-0.7c0-0.2,0-0.4,0-0.6c0-0.1,0-0.1,0-0.1c0,0-0.1,0-0.1,0h-4c0,0-0.1,0-0.1,0c0,0,0,0,0-0.1
			v-0.3c0,0,0-0.1,0-0.1c0,0,0.1,0,0.1,0h4.1c0.1,0,0.2,0,0.3,0c0.1,0,0.1,0.1,0.2,0.1c0,0,0.1,0.1,0.1,0.2c0,0.1,0,0.2,0,0.3
			c0,0.2,0,0.5,0,0.8c0,0.3,0,0.6,0,0.9c0,0.3-0.1,0.6-0.1,0.9c0,0.3-0.1,0.5-0.1,0.8c0,0,0,0.1,0,0.1c0,0,0,0-0.1,0l-0.3,0
			c0,0-0.1,0-0.1-0.1c0,0,0-0.1,0-0.1c0-0.2,0.1-0.4,0.1-0.7c0-0.3,0.1-0.5,0.1-0.8c-0.1,0-0.2,0-0.3,0c-0.1,0-0.3,0-0.4,0
			c-0.1,0-0.3,0-0.4,0c-0.1,0-0.2,0-0.2,0c-0.1,0-0.2,0-0.3,0s-0.3,0-0.5,0c-0.2,0-0.4,0-0.6,0c-0.2,0-0.4,0-0.6,0
			c-0.2,0-0.3,0-0.5,0s-0.3,0-0.4,0c-0.1,0-0.1,0-0.1-0.1v-0.3C124.1,75.5,124.1,75.4,124.2,75.4z"/>
		<path id="XMLID_14_" class="st1" d="M135.7,76.3c0,0.1,0,0.1-0.1,0.1c-0.2,0-0.4,0.1-0.7,0.1c-0.3,0-0.6,0-0.9,0.1
			c-0.3,0-0.6,0-0.9,0c-0.3,0-0.6,0-0.8,0c-0.2,0-0.4-0.1-0.5-0.2c-0.1-0.1-0.1-0.3-0.1-0.5v-2.1c0-0.2,0-0.4,0.1-0.4
			c0.1-0.1,0.2-0.1,0.5-0.1h2.7c0.1,0,0.1,0,0.1,0.1v0.3c0,0.1,0,0.1-0.1,0.1h-2.6c-0.1,0-0.1,0-0.1,0c0,0,0,0.1,0,0.1v2
			c0,0.1,0,0.1,0,0.2c0,0,0.1,0,0.1,0c0.5,0,1,0,1.6,0c0.5,0,1.1-0.1,1.6-0.1c0.1,0,0.1,0,0.1,0c0,0,0,0,0,0.1L135.7,76.3z
			 M137.1,78.8c0,0.2-0.1,0.4-0.2,0.6c-0.1,0.2-0.3,0.3-0.5,0.4c-0.2,0.1-0.4,0.2-0.7,0.3c-0.3,0.1-0.6,0.1-0.9,0.1
			c-0.3,0-0.6,0-0.9-0.1c-0.3-0.1-0.5-0.2-0.7-0.3c-0.2-0.1-0.4-0.3-0.5-0.4c-0.1-0.2-0.2-0.4-0.2-0.6c0-0.2,0.1-0.4,0.2-0.6
			c0.1-0.2,0.3-0.3,0.5-0.4c0.2-0.1,0.4-0.2,0.7-0.3c0.3-0.1,0.6-0.1,0.9-0.1c0.3,0,0.6,0,0.9,0.1c0.3,0.1,0.5,0.2,0.7,0.3
			c0.2,0.1,0.4,0.3,0.5,0.4C137,78.4,137.1,78.6,137.1,78.8z M136.5,78.8c0-0.2,0-0.3-0.1-0.4c-0.1-0.1-0.2-0.2-0.4-0.3
			c-0.2-0.1-0.3-0.1-0.5-0.2c-0.2,0-0.4-0.1-0.6-0.1c-0.2,0-0.5,0-0.7,0.1c-0.2,0-0.4,0.1-0.5,0.2c-0.1,0.1-0.3,0.2-0.3,0.3
			c-0.1,0.1-0.1,0.3-0.1,0.4c0,0.2,0,0.3,0.1,0.4c0.1,0.1,0.2,0.2,0.3,0.3c0.1,0.1,0.3,0.1,0.5,0.2c0.2,0,0.4,0.1,0.7,0.1
			c0.2,0,0.4,0,0.6-0.1c0.2,0,0.4-0.1,0.5-0.2c0.2-0.1,0.3-0.2,0.4-0.3C136.5,79.1,136.5,79,136.5,78.8z M136.9,77.3h-0.3
			c-0.1,0-0.1,0-0.1-0.1v-4.1c0-0.1,0-0.1,0.1-0.1h0.3c0.1,0,0.1,0,0.1,0.1v4.1C137,77.3,137,77.3,136.9,77.3z"/>
		<path id="XMLID_9_" class="st1" d="M145.2,73.9c0,0.2-0.1,0.4-0.1,0.6c-0.1,0.2-0.1,0.3-0.2,0.5h1.2v-1.8c0-0.1,0-0.1,0.1-0.1h0.3
			c0.1,0,0.1,0,0.1,0.1V77c0,0.1,0,0.1-0.1,0.1h-0.3c-0.1,0-0.1,0-0.1-0.1v-1.5h-1.5c-0.5,0.7-1.2,1.2-2.2,1.6c-0.1,0-0.1,0-0.2,0
			l-0.1-0.3c0,0,0-0.1,0-0.1c0,0,0,0,0.1-0.1c0.8-0.3,1.5-0.8,1.9-1.4c-0.1,0-0.1,0-0.2,0c-0.1,0-0.1,0-0.1,0c-0.2,0-0.5,0-0.7,0
			c-0.2,0-0.5,0-0.8,0c-0.1,0-0.1,0-0.1-0.1v-0.3c0-0.1,0-0.1,0.1-0.1c0.3,0,0.6,0,0.8,0c0.2,0,0.4,0,0.6,0c0,0,0.1,0,0.1,0
			c0.1,0,0.1,0,0.2,0c0.1,0,0.1,0,0.2,0c0.1,0,0.1,0,0.2,0c0.1-0.2,0.2-0.4,0.2-0.7c0-0.1,0-0.2-0.2-0.2h-2c-0.1,0-0.1,0-0.1-0.1
			v-0.3c0-0.1,0-0.1,0.1-0.1h2.1c0.2,0,0.4,0,0.5,0.1C145.2,73.6,145.3,73.7,145.2,73.9z M143.3,78.1c0-0.2,0-0.4,0.1-0.4
			c0.1-0.1,0.2-0.1,0.5-0.1h3.5c0.1,0,0.2,0,0.3,0c0.1,0,0.1,0,0.2,0.1c0,0,0.1,0.1,0.1,0.2c0,0.1,0,0.2,0,0.3v1.4
			c0,0.2,0,0.4-0.1,0.4c-0.1,0.1-0.2,0.1-0.5,0.1h-3.5c-0.1,0-0.2,0-0.3,0c-0.1,0-0.1,0-0.2-0.1c0,0-0.1-0.1-0.1-0.2
			c0-0.1,0-0.2,0-0.3V78.1z M144,78.1c-0.1,0-0.1,0-0.1,0c0,0,0,0.1,0,0.2v1.2c0,0.1,0,0.1,0,0.2c0,0,0.1,0,0.1,0h3.3
			c0.1,0,0.1,0,0.1,0c0,0,0-0.1,0-0.2v-1.2c0-0.1,0-0.1,0-0.2c0,0-0.1,0-0.1,0H144z M148,77.1c0,0.1,0,0.1-0.1,0.1h-0.3
			c-0.1,0-0.1,0-0.1-0.1v-4c0-0.1,0-0.1,0.1-0.1h0.3c0.1,0,0.1,0,0.1,0.1V77.1z"/>
		<path id="XMLID_6_" class="st1" d="M155.6,76.8h-2.3v1.6h3.1c0,0,0.1,0,0.1,0c0,0,0,0,0,0.1v0.3c0,0,0,0,0,0.1c0,0-0.1,0-0.1,0
			h-6.6c0,0-0.1,0-0.1,0c0,0,0,0,0-0.1v-0.3c0,0,0-0.1,0-0.1c0,0,0.1,0,0.1,0h3v-1.6h-2.3c0,0-0.1,0-0.1,0c0,0,0,0,0-0.1v-0.2
			c0,0,0-0.1,0-0.1c0,0,0,0,0.1,0h1v-2.4h-0.9c0,0-0.1,0-0.1,0c0,0,0,0,0-0.1v-0.2c0,0,0-0.1,0-0.1s0,0,0.1,0h4.8
			c0.1,0,0.1,0,0.1,0.1v0.3c0,0.1,0,0.1-0.1,0.1h-0.8v2.4h1c0.1,0,0.1,0,0.1,0.1v0.3C155.8,76.8,155.7,76.8,155.6,76.8z M152.1,76.4
			h2v-2.4h-2V76.4z"/>
		<path id="XMLID_3_" class="st1" d="M164.5,78.5C164.5,78.5,164.5,78.5,164.5,78.5l0,0.3c0,0,0,0,0,0.1c0,0-0.1,0-0.1,0h-6.6
			c0,0-0.1,0-0.1,0c0,0,0,0,0-0.1v-0.3c0,0,0-0.1,0-0.1c0,0,0.1,0,0.1,0L164.5,78.5C164.4,78.5,164.5,78.5,164.5,78.5z M161.4,73.5
			c0,0.1,0,0.3-0.1,0.4c0,0.1,0,0.1,0,0.2s0,0.1,0.1,0.1c0.1,0.3,0.3,0.5,0.5,0.7c0.2,0.2,0.4,0.4,0.6,0.6c0.2,0.2,0.5,0.3,0.7,0.5
			c0.2,0.1,0.5,0.2,0.8,0.3c0,0,0.1,0,0.1,0.1c0,0,0,0.1,0,0.1l-0.1,0.3c0,0,0,0-0.1,0.1c0,0-0.1,0-0.1,0c-0.3-0.1-0.6-0.2-0.8-0.4
			c-0.3-0.2-0.5-0.3-0.7-0.5c-0.2-0.2-0.4-0.4-0.6-0.6c-0.2-0.2-0.3-0.5-0.5-0.7c-0.1,0.2-0.3,0.5-0.4,0.7c-0.2,0.2-0.4,0.5-0.6,0.7
			c-0.2,0.2-0.5,0.4-0.7,0.5c-0.3,0.2-0.5,0.3-0.8,0.4c-0.1,0-0.1,0-0.2,0l-0.1-0.3c0,0,0-0.1,0-0.1c0,0,0-0.1,0.1-0.1
			c0.3-0.1,0.7-0.3,1-0.5c0.3-0.2,0.6-0.4,0.8-0.7c0.2-0.3,0.4-0.5,0.6-0.9c0.1-0.3,0.2-0.6,0.3-0.9c0-0.1,0-0.1,0.1-0.1l0.4,0
			C161.3,73.4,161.4,73.4,161.4,73.5z"/>
	</g>
</g>
</svg>
