<?xml version="1.0" encoding="utf-8"?>
<!-- Generator: Adobe Illustrator 19.0.0, SVG Export Plug-In . SVG Version: 6.00 Build 0)  -->
<svg version="1.1" id="Layer_1" xmlns="http://www.w3.org/2000/svg" xmlns:xlink="http://www.w3.org/1999/xlink" x="0px" y="0px"
	 viewBox="0 0 265.6 111.5" style="enable-background:new 0 0 265.6 111.5;" xml:space="preserve">
<style type="text/css">
	.st0{fill:url(#XMLID_146_);}
	.st1{fill:url(#XMLID_147_);}
	.st2{fill:url(#XMLID_148_);}
	.st3{fill:url(#XMLID_149_);}
	.st4{fill:url(#XMLID_150_);}
	.st5{fill:url(#XMLID_151_);}
	.st6{fill:url(#XMLID_152_);}
	.st7{fill:url(#XMLID_153_);}
	.st8{fill:url(#XMLID_154_);}
	.st9{fill:url(#XMLID_155_);}
	.st10{fill:url(#XMLID_156_);}
	.st11{fill:url(#XMLID_157_);}
	.st12{fill:url(#XMLID_158_);}
	.st13{fill:url(#XMLID_159_);}
	.st14{fill:url(#XMLID_160_);}
	.st15{fill:url(#XMLID_161_);}
	.st16{fill:url(#XMLID_162_);}
	.st17{fill:url(#XMLID_163_);}
	.st18{fill:url(#XMLID_164_);}
	.st19{fill:url(#XMLID_165_);}
	.st20{fill:url(#XMLID_166_);}
	.st21{fill:url(#XMLID_167_);}
	.st22{fill:url(#XMLID_168_);}
	.st23{fill:url(#XMLID_169_);}
	.st24{fill:url(#XMLID_170_);}
	.st25{fill:url(#XMLID_171_);}
	.st26{fill:url(#XMLID_172_);}
	.st27{fill:url(#XMLID_173_);}
	.st28{fill:url(#XMLID_174_);}
	.st29{fill:url(#XMLID_175_);}
	.st30{fill:url(#XMLID_176_);}
	.st31{fill:url(#XMLID_177_);}
	.st32{fill:url(#XMLID_178_);}
	.st33{fill:url(#XMLID_179_);}
	.st34{fill:url(#XMLID_180_);}
	.st35{fill:url(#XMLID_181_);}
	.st36{fill:url(#XMLID_182_);}
</style>
<g id="XMLID_114_">
	<linearGradient id="XMLID_146_" gradientUnits="userSpaceOnUse" x1="-140.8413" y1="33.9461" x2="-72.9491" y2="33.9461">
		<stop  offset="0" style="stop-color:#00B6F2"/>
		<stop  offset="1" style="stop-color:#0055F2"/>
	</linearGradient>
	<rect id="XMLID_120_" x="-140.8" y="0" class="st0" width="67.9" height="67.9"/>
	<linearGradient id="XMLID_147_" gradientUnits="userSpaceOnUse" x1="-140.8413" y1="116.8216" x2="-72.9491" y2="116.8216">
		<stop  offset="0" style="stop-color:#02EAAB"/>
		<stop  offset="1" style="stop-color:#00FC4C"/>
	</linearGradient>
	<rect id="XMLID_119_" x="-140.8" y="82.9" class="st1" width="67.9" height="67.9"/>
	<linearGradient id="XMLID_148_" gradientUnits="userSpaceOnUse" x1="-140.8413" y1="198.9143" x2="-72.9491" y2="198.9143">
		<stop  offset="0" style="stop-color:#ED2B66"/>
		<stop  offset="1" style="stop-color:#A50266"/>
	</linearGradient>
	<rect id="XMLID_118_" x="-140.8" y="165" class="st2" width="67.9" height="67.9"/>
	<linearGradient id="XMLID_149_" gradientUnits="userSpaceOnUse" x1="-140.8413" y1="278.2548" x2="-72.9491" y2="278.2548">
		<stop  offset="0" style="stop-color:#541DD8"/>
		<stop  offset="1" style="stop-color:#541DA6"/>
	</linearGradient>
	<rect id="XMLID_117_" x="-140.8" y="244.3" class="st3" width="67.9" height="67.9"/>
	<linearGradient id="XMLID_150_" gradientUnits="userSpaceOnUse" x1="-140.8413" y1="360.6317" x2="-72.9491" y2="360.6317">
		<stop  offset="0" style="stop-color:#FE6E00"/>
		<stop  offset="1" style="stop-color:#FF593D"/>
	</linearGradient>
	<rect id="XMLID_116_" x="-140.8" y="326.7" class="st4" width="67.9" height="67.9"/>
</g>
<g id="XMLID_78_">
	<linearGradient id="XMLID_151_" gradientUnits="userSpaceOnUse" x1="-18.9197" y1="-5.1049" x2="272.5585" y2="110.1909">
		<stop  offset="0" style="stop-color:#541DD8"/>
		<stop  offset="1" style="stop-color:#541DA6"/>
	</linearGradient>
	<path id="XMLID_113_" class="st5" d="M24.7,13.7c0.2,0.1,0.4,0.1,0.6,0.1c0.4,0,0.9-0.2,1.1-0.6c0.1-0.1,0.1-0.2,0.2-0.2
		c0.4-0.6,0.2-1.3-0.4-1.7c-0.6-0.4-1.3-0.2-1.7,0.4c-0.1,0.1-0.1,0.2-0.2,0.4C24,12.6,24.1,13.3,24.7,13.7z"/>
	<linearGradient id="XMLID_152_" gradientUnits="userSpaceOnUse" x1="-17.3501" y1="-9.073" x2="274.1281" y2="106.2228">
		<stop  offset="0" style="stop-color:#541DD8"/>
		<stop  offset="1" style="stop-color:#541DA6"/>
	</linearGradient>
	<path id="XMLID_112_" class="st6" d="M28.1,11.1c0.2,0,0.5,0,0.6-0.1c1.1-0.7,2.2-0.9,2.2-0.9C31.5,10,32,9.4,32,8.8
		c-0.1-0.6-0.7-1.1-1.3-1.1c-0.1,0-1.6,0.2-3.2,1.2c-0.6,0.4-0.7,1.1-0.4,1.7C27.3,10.9,27.6,11.1,28.1,11.1z"/>
	<linearGradient id="XMLID_153_" gradientUnits="userSpaceOnUse" x1="-32.2642" y1="28.6312" x2="259.2139" y2="143.927">
		<stop  offset="0" style="stop-color:#541DD8"/>
		<stop  offset="1" style="stop-color:#541DA6"/>
	</linearGradient>
	<path id="XMLID_111_" class="st7" d="M24.2,49.1c-0.7,0-1.2,0.5-1.2,1.2v1.2c0,0.7,0.5,1.2,1.2,1.2s1.2-0.5,1.2-1.2v-1.2
		C25.4,49.6,24.9,49.1,24.2,49.1z"/>
	<linearGradient id="XMLID_154_" gradientUnits="userSpaceOnUse" x1="-31.6359" y1="27.0427" x2="259.8423" y2="142.3385">
		<stop  offset="0" style="stop-color:#541DD8"/>
		<stop  offset="1" style="stop-color:#541DA6"/>
	</linearGradient>
	<path id="XMLID_110_" class="st8" d="M30.1,49.1c0-0.7-0.5-1.2-1.2-1.2s-1.2,0.5-1.2,1.2v3.7c0,0.7,0.5,1.2,1.2,1.2
		s1.2-0.5,1.2-1.2V49.1z"/>
	<linearGradient id="XMLID_155_" gradientUnits="userSpaceOnUse" x1="-31.0048" y1="25.4472" x2="260.4734" y2="140.743">
		<stop  offset="0" style="stop-color:#541DD8"/>
		<stop  offset="1" style="stop-color:#541DA6"/>
	</linearGradient>
	<path id="XMLID_109_" class="st9" d="M33.5,54.6c0.7,0,1.2-0.5,1.2-1.2v-4.9c0-0.7-0.5-1.2-1.2-1.2s-1.2,0.5-1.2,1.2v4.9
		C32.3,54,32.8,54.6,33.5,54.6z"/>
	<linearGradient id="XMLID_156_" gradientUnits="userSpaceOnUse" x1="-30.3791" y1="23.8656" x2="261.099" y2="139.1614">
		<stop  offset="0" style="stop-color:#541DD8"/>
		<stop  offset="1" style="stop-color:#541DA6"/>
	</linearGradient>
	<path id="XMLID_108_" class="st10" d="M39.4,52.8v-3.7c0-0.7-0.5-1.2-1.2-1.2s-1.2,0.5-1.2,1.2v3.7c0,0.7,0.5,1.2,1.2,1.2
		S39.4,53.4,39.4,52.8z"/>
	<linearGradient id="XMLID_157_" gradientUnits="userSpaceOnUse" x1="-29.7613" y1="22.3036" x2="261.7169" y2="137.5994">
		<stop  offset="0" style="stop-color:#541DD8"/>
		<stop  offset="1" style="stop-color:#541DA6"/>
	</linearGradient>
	<path id="XMLID_107_" class="st11" d="M42.7,52.8c0.7,0,1.2-0.5,1.2-1.2v-1.2c0-0.7-0.5-1.2-1.2-1.2c-0.7,0-1.2,0.5-1.2,1.2v1.2
		C41.4,52.2,42,52.8,42.7,52.8z"/>
	<linearGradient id="XMLID_158_" gradientUnits="userSpaceOnUse" x1="-29.5994" y1="21.8943" x2="261.8788" y2="137.1901">
		<stop  offset="0" style="stop-color:#541DD8"/>
		<stop  offset="1" style="stop-color:#541DA6"/>
	</linearGradient>
	<path id="XMLID_106_" class="st12" d="M25.3,40.7c0.6,0,1.2-0.6,1.1-1.3c0-0.7-0.6-1.2-1.3-1.1c-2.2,0.1-6.6,1.6-7.8,6.5
		c-0.1,0.6,0.2,1.3,0.9,1.5c0.1,0,0.2,0,0.2,0c0.5,0,1.1-0.4,1.2-1C20.9,41.1,25.2,40.7,25.3,40.7z"/>
	<linearGradient id="XMLID_159_" gradientUnits="userSpaceOnUse" x1="-37.2666" y1="41.2777" x2="254.2116" y2="156.5735">
		<stop  offset="0" style="stop-color:#541DD8"/>
		<stop  offset="1" style="stop-color:#541DA6"/>
	</linearGradient>
	<path id="XMLID_105_" class="st13" d="M49.6,70.3c-0.6-0.1-1.3,0.2-1.5,0.9c-1.1,4.3-5.4,4.5-5.5,4.6c-0.6,0-1.2,0.6-1.1,1.3
		c0,0.6,0.6,1.1,1.2,1.1c0,0,0,0,0.1,0c2.2-0.1,6.6-1.6,7.8-6.5C50.7,71.1,50.4,70.5,49.6,70.3z"/>
	<linearGradient id="XMLID_160_" gradientUnits="userSpaceOnUse" x1="-35.4135" y1="36.5928" x2="256.0647" y2="151.8886">
		<stop  offset="0" style="stop-color:#541DD8"/>
		<stop  offset="1" style="stop-color:#541DA6"/>
	</linearGradient>
	<path id="XMLID_102_" class="st14" d="M33.4,60.3c-2,0-3.5,1.6-3.5,3.5c0,2,1.6,3.5,3.5,3.5s3.5-1.6,3.5-3.5
		C36.9,61.8,35.3,60.3,33.4,60.3z M33.4,64.9c-0.6,0-1.1-0.5-1.1-1.1s0.5-1.1,1.1-1.1c0.6,0,1.1,0.5,1.1,1.1S34,64.9,33.4,64.9z"/>
	<linearGradient id="XMLID_161_" gradientUnits="userSpaceOnUse" x1="-36.5875" y1="39.5609" x2="254.8907" y2="154.8567">
		<stop  offset="0" style="stop-color:#541DD8"/>
		<stop  offset="1" style="stop-color:#541DA6"/>
	</linearGradient>
	<path id="XMLID_99_" class="st15" d="M24.7,60.3c-2,0-3.5,1.6-3.5,3.5c0,2,1.6,3.5,3.5,3.5s3.5-1.6,3.5-3.5
		C28.2,61.8,26.6,60.3,24.7,60.3z M24.7,64.9c-0.6,0-1.1-0.5-1.1-1.1s0.5-1.1,1.1-1.1s1.1,0.5,1.1,1.1S25.3,64.9,24.7,64.9z"/>
	<linearGradient id="XMLID_162_" gradientUnits="userSpaceOnUse" x1="-34.2229" y1="33.5829" x2="257.2553" y2="148.8787">
		<stop  offset="0" style="stop-color:#541DD8"/>
		<stop  offset="1" style="stop-color:#541DA6"/>
	</linearGradient>
	<path id="XMLID_96_" class="st16" d="M45.7,63.8c0-2-1.6-3.5-3.5-3.5c-2,0-3.5,1.6-3.5,3.5s1.6,3.5,3.5,3.5
		C44.1,67.3,45.7,65.8,45.7,63.8z M41.1,63.8c0-0.6,0.5-1.1,1.1-1.1c0.6,0,1.1,0.5,1.1,1.1s-0.5,1.1-1.1,1.1
		C41.6,64.9,41.1,64.4,41.1,63.8z"/>
	<linearGradient id="XMLID_163_" gradientUnits="userSpaceOnUse" x1="-20.9523" y1="3.366103e-02" x2="270.5259" y2="115.3295">
		<stop  offset="0" style="stop-color:#541DD8"/>
		<stop  offset="1" style="stop-color:#541DA6"/>
	</linearGradient>
	<path id="XMLID_93_" class="st17" d="M28.1,24.2c2.6,0,4.8-2.1,4.8-4.8c0-2.6-2.1-4.8-4.8-4.8c-2.6,0-4.8,2.1-4.8,4.8
		S25.4,24.2,28.1,24.2z M28.1,17.2c1.2,0,2.3,1,2.3,2.3s-1,2.3-2.3,2.3c-1.3,0-2.3-1.1-2.3-2.4C25.8,18.1,26.8,17.2,28.1,17.2z"/>
	<linearGradient id="XMLID_164_" gradientUnits="userSpaceOnUse" x1="-19.5268" y1="-3.5702" x2="271.9514" y2="111.7256">
		<stop  offset="0" style="stop-color:#541DD8"/>
		<stop  offset="1" style="stop-color:#541DA6"/>
	</linearGradient>
	<path id="XMLID_90_" class="st18" d="M38.6,24.2c2.6,0,4.8-2.1,4.8-4.8c0-2.6-2.1-4.8-4.8-4.8c-2.6,0-4.8,2.1-4.8,4.8
		S36.1,24.2,38.6,24.2z M38.6,17.2c1.2,0,2.3,1,2.3,2.3s-1,2.3-2.3,2.3c-1.2,0-2.3-1-2.3-2.3S37.4,17.2,38.6,17.2z"/>
	<linearGradient id="XMLID_165_" gradientUnits="userSpaceOnUse" x1="-23.1226" y1="5.5204" x2="268.3556" y2="120.8162">
		<stop  offset="0" style="stop-color:#541DD8"/>
		<stop  offset="1" style="stop-color:#541DA6"/>
	</linearGradient>
	<path id="XMLID_89_" class="st19" d="M24.3,27.7c0,0.7,0.5,1.2,1.2,1.2h15c0.7,0,1.2-0.5,1.2-1.2s-0.5-1.2-1.2-1.2h-15
		C24.8,26.5,24.3,27,24.3,27.7z"/>
	<linearGradient id="XMLID_166_" gradientUnits="userSpaceOnUse" x1="-34.0068" y1="33.0367" x2="257.4713" y2="148.3325">
		<stop  offset="0" style="stop-color:#541DD8"/>
		<stop  offset="1" style="stop-color:#541DA6"/>
	</linearGradient>
	<path id="XMLID_79_" class="st20" d="M48.3,33V18.1c0-7.7-6-14.1-13.6-14.7V1.2c0-0.7-0.5-1.2-1.2-1.2c-0.7,0-1.2,0.5-1.2,1.2v2.1
		c-7.6,0.6-13.6,7-13.6,14.7v14.9C5,33.1,0,43.9,0,54v18.6V75v0.9c0,3.1,2.6,5.6,5.6,5.6h0.6c2.9,0,5.3-2.2,5.6-5
		c1.5,2.7,3.7,4.9,6.2,6.5v16.7c-0.1,0-0.2,0-0.4,0c-4.5,0-8.2,3.7-8.2,8.1c0,2,1.6,3.4,3.5,3.4h18.5c0.7,0,1.2-0.5,1.2-1.2v-7.8
		v-1.1V85.8h2.7v15.3v1.1v8.1c0,0.7,0.5,1.2,1.2,1.2h18.5c2,0,3.5-1.6,3.5-3.4c0-4.5-3.7-8.1-8.2-8.1c-0.1,0-0.2,0-0.4,0V82.5
		c0-0.1,0-0.1,0-0.2c2.1-1.5,3.8-3.4,5-5.6c0.4,2.8,2.7,5,5.6,5h0.5c3.1,0,5.6-2.6,5.6-5.6v-0.9v-2.4V54.1C66.9,44,62,33.2,48.3,33z
		 M33.5,5.7c6.8,0,12.3,5.5,12.3,12.3v14.8c-2-0.7-4.2-1.2-6.4-1.2H27.6c-2.2,0-4.4,0.5-6.4,1.2V18.1C21.1,11.2,26.6,5.7,33.5,5.7z
		 M2.4,69.8h1.8c0.7,0,1.2-0.5,1.2-1.2S5,67.3,4.3,67.3H2.4V54.1c0-14.2,8.4-17.7,13.7-18.5C12,39,9.4,44,9.4,49.7v2.7
		c0,0,0,0,0,0.1v20.3h-7L2.4,69.8z M9.5,76c0,1.7-1.5,3.2-3.2,3.2H5.7c-1.7,0-3.2-1.5-3.2-3.2v-0.9h7V76z M30.2,99.9h-2.6
		c-0.7,0-1.2,0.5-1.2,1.2c0,0.7,0.5,1.2,1.2,1.2h2.6v6.7H13c-0.6,0-1.1-0.5-1.1-1c0-3.2,2.6-5.6,5.7-5.6c2.2,0,4.3,0.9,5.7,2.4
		c0.2,0.2,0.6,0.4,0.9,0.4c0.4,0,0.6-0.1,0.9-0.4c0.5-0.5,0.5-1.2,0-1.7c-1.3-1.3-2.9-2.3-4.6-2.8V84.5c2.2,0.9,4.5,1.5,7,1.5h2.7
		v13.9H30.2z M47.5,100.2c-1.7,0.5-3.4,1.5-4.6,2.8c-0.5,0.5-0.5,1.2,0,1.7c0.2,0.2,0.5,0.4,0.9,0.4c0.4,0,0.6-0.1,0.9-0.4
		c1.5-1.6,3.5-2.4,5.7-2.4c3.2,0,5.7,2.6,5.7,5.6c0,0.6-0.5,1-1.1,1H37.9v-6.7h2.6c0.7,0,1.2-0.5,1.2-1.2c0-0.7-0.5-1.2-1.2-1.2
		h-2.6V85.8h1.5c2.9,0,5.7-0.7,8.2-2L47.5,100.2z M39.4,83.4H27.5c-8.6,0-15.5-7-15.5-15.5V49.7c0-8.6,7-15.5,15.5-15.5h11.9
		c8.6,0,15.5,7,15.5,15.5v2.7l0,0V68C54.9,76.4,47.9,83.4,39.4,83.4z M64.4,76c0,1.7-1.5,3.2-3.2,3.2h-0.6c-1.7,0-3.2-1.5-3.2-3.2
		v-0.9h7V76z M64.4,67.3h-1.8c-0.7,0-1.2,0.5-1.2,1.2s0.5,1.2,1.2,1.2h1.8v2.9h-7V68c0-0.1,0-0.1,0-0.2v-18c0-5.6-2.6-10.8-6.7-14.1
		c5.3,0.9,13.7,4.4,13.7,18.5V67.3z"/>
</g>
<g id="XMLID_36_">
	<g id="XMLID_37_">
		<linearGradient id="XMLID_167_" gradientUnits="userSpaceOnUse" x1="-5.8962" y1="-38.0294" x2="285.5819" y2="77.2664">
			<stop  offset="0" style="stop-color:#541DD8"/>
			<stop  offset="1" style="stop-color:#541DA6"/>
		</linearGradient>
		<path id="XMLID_77_" class="st21" d="M207.9,50.8c0.4,0,0.7-0.1,1-0.5c1.8-2.4,5.3-3.2,5.3-3.3l0,0c0.6-0.1,1.1-0.7,1-1.5
			c-0.1-0.6-0.7-1.1-1.5-1c-0.1,0-4.3,1-6.7,4.2c-0.4,0.5-0.2,1.3,0.2,1.7C207.3,50.7,207.6,50.8,207.9,50.8z"/>
		<linearGradient id="XMLID_168_" gradientUnits="userSpaceOnUse" x1="-8.1093" y1="-32.4345" x2="283.3688" y2="82.8613">
			<stop  offset="0" style="stop-color:#541DD8"/>
			<stop  offset="1" style="stop-color:#541DA6"/>
		</linearGradient>
		<path id="XMLID_72_" class="st22" d="M224.4,67.7c4.5,0,8.2-3.7,8.2-8.2s-3.7-8.2-8.2-8.2s-8.2,3.7-8.2,8.2S219.8,67.7,224.4,67.7
			z M230.1,59.5c0,1.8-0.9,3.4-2.2,4.4V55C229.3,56.1,230.1,57.7,230.1,59.5z M225.5,53.9v10.8c0,0.1,0,0.4,0.1,0.5
			c-0.4,0.1-0.9,0.1-1.2,0.1s-0.7,0-1.1-0.1c0.1-0.1,0.1-0.4,0.1-0.5V53.9c0.4,0,0.6-0.1,1-0.1S225.1,53.8,225.5,53.9z M220.9,55v9
			c-1.3-1.1-2.3-2.7-2.3-4.5S219.5,56,220.9,55z"/>
		<linearGradient id="XMLID_169_" gradientUnits="userSpaceOnUse" x1="-14.2598" y1="-16.8855" x2="277.2184" y2="98.4103">
			<stop  offset="0" style="stop-color:#541DD8"/>
			<stop  offset="1" style="stop-color:#541DA6"/>
		</linearGradient>
		<path id="XMLID_65_" class="st23" d="M238.3,73h-26.4c-2.3,0-4.3,2-4.3,4.3v1.1c0,2.3,2,4.3,4.3,4.3h26.4c2.3,0,4.3-2,4.3-4.3
			v-1.1C242.6,74.9,240.6,73,238.3,73z M216.5,75.4h4v4.6v0.1h-4.2v-0.1v-4.6L216.5,75.4z M223,80.1v-4.6h4v4.6v0.1h-4.2
			C223,80.1,223,80.1,223,80.1z M229.6,80.1v-4.6h4v4.6v0.1h-4.2C229.5,80.1,229.6,80.1,229.6,80.1z M210.1,78.3v-1.1
			c0-1,0.9-1.8,1.8-1.8h2.2v4.6v0.1h-2.3C210.8,80.2,210.1,79.3,210.1,78.3z M240.1,78.3c0,1-0.9,1.8-1.8,1.8H236v-0.1v-4.6h2.3
			c1,0,1.8,0.9,1.8,1.8V78.3z"/>
		<linearGradient id="XMLID_170_" gradientUnits="userSpaceOnUse" x1="0.1265" y1="-53.2553" x2="291.6046" y2="62.0405">
			<stop  offset="0" style="stop-color:#541DD8"/>
			<stop  offset="1" style="stop-color:#541DA6"/>
		</linearGradient>
		<path id="XMLID_62_" class="st24" d="M257.1,51.5c1.7,0,3.1-1.3,3.1-3.1s-1.3-3.1-3.1-3.1c-1.7,0-3.1,1.3-3.1,3.1
			S255.4,51.5,257.1,51.5z M257.1,47.8c0.4,0,0.6,0.2,0.6,0.6s-0.2,0.6-0.6,0.6c-0.4,0-0.6-0.2-0.6-0.6S256.8,47.8,257.1,47.8z"/>
		<linearGradient id="XMLID_171_" gradientUnits="userSpaceOnUse" x1="-9.3446" y1="-29.3117" x2="282.1336" y2="85.9841">
			<stop  offset="0" style="stop-color:#541DD8"/>
			<stop  offset="1" style="stop-color:#541DA6"/>
		</linearGradient>
		<path id="XMLID_48_" class="st25" d="M261.4,81.3V55.5c2.4-1.5,4.2-4,4.2-7.1c0-4.5-3.7-8.2-8.2-8.2h-13.9
			c3.3-2.3,5.4-6.1,5.4-10.5c0-7.1-5.7-13-13-13h-9.5v-3.3l0,0c1.1-0.5,1.8-1.6,1.8-2.8c0-1.7-1.3-3.1-3.1-3.1s-3.1,1.3-3.1,3.1
			c0,1.2,0.7,2.3,1.8,2.8l0,0v3.3h-9.5c-7.1,0-13,5.7-13,13c0,4.3,2.1,8.1,5.4,10.5h-14.7c-4.5,0-8.2,3.7-8.2,8.2
			c0,3.1,1.7,5.7,4.2,7.1v25.8c-2.2,1.5-3.8,3.9-3.8,6.8c0,3.1,1.7,5.9,4.4,7.2c0.4,0.1,0.7,0.1,1.1,0c0.4-0.1,0.6-0.5,0.6-0.9
			l1-5.1h1.7l1,5.1c0.1,0.4,0.4,0.7,0.6,0.9c0.1,0.1,0.4,0.1,0.5,0.1c0.2,0,0.4,0,0.6-0.1c2.7-1.3,4.4-4.2,4.4-7.2
			c0-2.8-1.5-5.4-3.8-6.8V56.6h3.5v22.7c0,5.9,3.5,10.9,8.6,13.1c-5,2.2-8.6,7.2-8.6,13.1c0,3.3,2.7,6,6,6h37.2c3.3,0,6-2.7,6-6
			c0-5.9-3.5-10.9-8.6-13.1c5-2.2,8.6-7.2,8.6-13.1V56.6h3.5v24.7c-2.2,1.5-3.8,3.9-3.8,6.8c0,3.1,1.7,5.9,4.4,7.2
			c0.4,0.1,0.7,0.1,1.1,0c0.4-0.1,0.6-0.5,0.6-0.9l1-5.1h1.7l1,5.1c0.1,0.4,0.4,0.7,0.6,0.9c0.1,0.1,0.4,0.1,0.5,0.1
			c0.2,0,0.4,0,0.6-0.1c2.7-1.3,4.4-4.2,4.4-7.2C265.2,85.2,263.7,82.7,261.4,81.3z M225.1,9.9c0.4,0,0.6,0.2,0.6,0.6
			s-0.2,0.6-0.6,0.6c-0.4,0-0.6-0.2-0.6-0.6C224.5,10.3,224.7,9.9,225.1,9.9z M263.1,48.4c0,3.2-2.6,5.7-5.7,5.7h-8.1
			c-0.1-4.8-2.6-9-6.4-11.6h14.4C260.5,42.5,263.1,45.2,263.1,48.4z M203.8,29.7c0-5.7,4.6-10.5,10.5-10.5h21.5
			c5.7,0,10.5,4.6,10.5,10.5s-4.6,10.5-10.5,10.5h-1h-2.1h-16.1h-2.1h-0.2C208.6,40.1,203.8,35.4,203.8,29.7z M192.2,42.5h14.3
			c-3.8,2.6-6.2,6.7-6.4,11.6h-8.1c-3.2,0-5.7-2.6-5.7-5.7S188.9,42.5,192.2,42.5z M196.3,92.2l-0.9-4.3c-0.1-0.6-0.6-1-1.2-1h-3.8
			c-0.6,0-1.1,0.4-1.2,1l-0.9,4.3c-1.1-1.1-1.7-2.4-1.7-4c0-3.1,2.6-5.6,5.6-5.6c3.1,0,5.6,2.6,5.6,5.6
			C198,89.7,197.4,91.1,196.3,92.2z M194.2,80.3c-0.6-0.1-1.2-0.2-1.8-0.2c-0.6,0-1.2,0.1-1.8,0.2V68.6h0.6c0.7,0,1.2-0.5,1.2-1.2
			c0-0.7-0.5-1.2-1.2-1.2h-0.6v-9.7c0.5,0.1,1.1,0.1,1.7,0.1h2.1v23.7H194.2z M246.4,102.5l-6.6,2.1l-7.2-2.3
			c-0.2-0.1-0.5-0.1-0.7,0l-7.2,2.3l-7.2-2.3c-0.2-0.1-0.5-0.1-0.7,0l-7.2,2.3l-6.5-2.1c0.2-1,0.6-2,1.2-2.9l4.9,1.6
			c0.2,0.1,0.5,0.1,0.7,0l7.2-2.3l7.2,2.3c0.2,0.1,0.5,0.1,0.7,0l7.2-2.3l7.2,2.3c0.1,0,0.2,0,0.4,0s0.2,0,0.4,0l5-1.6
			C245.8,100.6,246.1,101.6,246.4,102.5z M243.3,109.1h-37.2c-2,0-3.5-1.6-3.5-3.5c0-0.2,0-0.4,0-0.6l6.5,2.1c0.2,0.1,0.5,0.1,0.7,0
			l7.2-2.3l7.2,2.3c0.2,0.1,0.5,0.1,0.7,0l7.2-2.3l7.2,2.3c0.1,0,0.2,0,0.4,0s0.2,0,0.4,0l6.6-2.1c0,0.2,0,0.4,0,0.6
			C246.9,107.6,245.3,109.1,243.3,109.1z M243.7,97.7l-3.9,1.2l-7.2-2.3c-0.2-0.1-0.5-0.1-0.7,0l-7.2,2.3l-7.2-2.3
			c-0.2-0.1-0.5-0.1-0.7,0l-7.2,2.3l-3.8-1.2c2.2-2.4,5.3-3.9,8.8-3.9h20.4C238.4,93.7,241.5,95.2,243.7,97.7z M246.7,79.4
			c0,6.6-5.3,11.9-11.7,11.9h-20.4c-6.6,0-11.9-5.4-11.9-11.9V54.5c0-6.6,5.4-11.9,11.9-11.9h2.1h16.1h2.1c6.6,0,11.9,5.4,11.9,11.9
			V79.4L246.7,79.4z M255.3,56.6h2.1c0.6,0,1.1-0.1,1.7-0.1v9.7h-0.6c-0.7,0-1.2,0.5-1.2,1.2s0.5,1.2,1.2,1.2h0.6v11.7
			c-0.6-0.1-1.2-0.2-1.8-0.2c-0.6,0-1.2,0.1-1.8,0.2L255.3,56.6L255.3,56.6z M261,92.2l-0.9-4.3c-0.1-0.6-0.6-1-1.2-1h-3.8
			c-0.6,0-1.1,0.4-1.2,1l-0.9,4.3c-1.1-1.1-1.7-2.4-1.7-4c0-3.1,2.6-5.6,5.6-5.6c3.1,0,5.6,2.6,5.6,5.6
			C262.7,89.7,262.1,91.1,261,92.2z"/>
		<linearGradient id="XMLID_172_" gradientUnits="userSpaceOnUse" x1="0.9334" y1="-55.2953" x2="292.4115" y2="60.0005">
			<stop  offset="0" style="stop-color:#541DD8"/>
			<stop  offset="1" style="stop-color:#541DA6"/>
		</linearGradient>
		<path id="XMLID_45_" class="st26" d="M221.7,29.7c0-3.2-2.7-5.9-5.9-5.9c-3.2,0-5.9,2.7-5.9,5.9s2.7,5.9,5.9,5.9
			C219,35.6,221.7,32.9,221.7,29.7z M212.4,29.7c0-1.8,1.6-3.4,3.4-3.4c1.8,0,3.4,1.6,3.4,3.4c0,1.8-1.6,3.4-3.4,3.4
			C214,33.1,212.4,31.5,212.4,29.7z"/>
		<linearGradient id="XMLID_173_" gradientUnits="userSpaceOnUse" x1="3.3476" y1="-61.3987" x2="294.8258" y2="53.8971">
			<stop  offset="0" style="stop-color:#541DD8"/>
			<stop  offset="1" style="stop-color:#541DA6"/>
		</linearGradient>
		<path id="XMLID_42_" class="st27" d="M233.7,35.6c3.2,0,5.9-2.7,5.9-5.9s-2.7-5.9-5.9-5.9c-3.2,0-5.9,2.7-5.9,5.9
			S230.5,35.6,233.7,35.6z M233.7,26.3c1.8,0,3.4,1.6,3.4,3.4s-1.6,3.4-3.4,3.4c-1.8,0-3.4-1.6-3.4-3.4S231.8,26.3,233.7,26.3z"/>
		<linearGradient id="XMLID_174_" gradientUnits="userSpaceOnUse" x1="2.6473" y1="-59.6281" x2="294.1254" y2="55.6677">
			<stop  offset="0" style="stop-color:#541DD8"/>
			<stop  offset="1" style="stop-color:#541DA6"/>
		</linearGradient>
		<path id="XMLID_41_" class="st28" d="M212.5,23.1c0.6-0.1,1.1-0.9,0.9-1.5c-0.1-0.6-0.9-1.1-1.5-0.9c-0.1,0-1.8,0.5-3.3,1.8
			c-0.5,0.5-0.5,1.2-0.1,1.7c0.2,0.2,0.6,0.4,0.9,0.4c0.2,0,0.6-0.1,0.9-0.4C211.3,23.5,212.5,23.1,212.5,23.1z"/>
		<linearGradient id="XMLID_175_" gradientUnits="userSpaceOnUse" x1="-8.6375" y1="-31.0992" x2="282.8406" y2="84.1966">
			<stop  offset="0" style="stop-color:#541DD8"/>
			<stop  offset="1" style="stop-color:#541DA6"/>
		</linearGradient>
		<path id="XMLID_38_" class="st29" d="M192.3,51.5c1.7,0,3.1-1.3,3.1-3.1s-1.3-3.1-3.1-3.1c-1.7,0-3.1,1.3-3.1,3.1
			S190.6,51.5,192.3,51.5z M192.3,47.8c0.4,0,0.6,0.2,0.6,0.6s-0.2,0.6-0.6,0.6c-0.4,0-0.6-0.2-0.6-0.6S192,47.8,192.3,47.8z"/>
	</g>
</g>
<g id="XMLID_2_">
	<linearGradient id="XMLID_176_" gradientUnits="userSpaceOnUse" x1="-33.2948" y1="31.2367" x2="258.1833" y2="146.5325">
		<stop  offset="0" style="stop-color:#541DD8"/>
		<stop  offset="1" style="stop-color:#541DA6"/>
	</linearGradient>
	<path id="XMLID_35_" class="st30" d="M149,98.3c-0.6-0.2-1.3,0.1-1.6,0.7c-0.9,2.3-2.6,3.8-5.3,4.3c-0.6,0.1-1.1,0.7-1,1.5
		c0.1,0.6,0.6,1,1.2,1c0.1,0,0.1,0,0.2,0c3.5-0.7,6-2.8,7.1-5.9C150,99.1,149.6,98.5,149,98.3z"/>
	<linearGradient id="XMLID_177_" gradientUnits="userSpaceOnUse" x1="-17.4266" y1="-8.8797" x2="274.0516" y2="106.4161">
		<stop  offset="0" style="stop-color:#541DD8"/>
		<stop  offset="1" style="stop-color:#541DA6"/>
	</linearGradient>
	<path id="XMLID_32_" class="st31" d="M116.6,54.6h20.9c3.1,0,5.5-2.4,5.5-5.5v-1.7c0-3.1-2.4-5.5-5.5-5.5h-20.9
		c-3.1,0-5.5,2.4-5.5,5.5v1.7C111,52.2,113.6,54.6,116.6,54.6z M113.6,47.4c0-1.7,1.2-3.1,2.9-3.1h20.9c1.7,0,3.1,1.3,3.1,3.1v1.7
		c0,1.7-1.3,3.1-3.1,3.1h-20.8c-1.7,0-3.1-1.3-3.1-3.1L113.6,47.4L113.6,47.4z"/>
	<linearGradient id="XMLID_178_" gradientUnits="userSpaceOnUse" x1="-30.1757" y1="23.3514" x2="261.3024" y2="138.6472">
		<stop  offset="0" style="stop-color:#541DD8"/>
		<stop  offset="1" style="stop-color:#541DA6"/>
	</linearGradient>
	<path id="XMLID_26_" class="st32" d="M143,91.9V79.2c0-3.1-2.4-5.5-5.5-5.5h-20.9c-3.1,0-5.5,2.4-5.5,5.5v12.7
		c0,3.1,2.4,5.5,5.5,5.5h20.9C140.6,97.4,143,95,143,91.9z M128.2,76.1h4.9V95h-4.9V76.1z M125.8,95h-4.9V76.1h4.9V95z M113.5,91.9
		V79.2c0-1.7,1.3-3.1,3.1-3.1h1.8V95h-1.8C114.9,95,113.5,93.6,113.5,91.9z M140.6,91.9c0,1.7-1.3,3.1-3.1,3.1h-1.8V76.1h1.8
		c1.7,0,3.1,1.3,3.1,3.1V91.9z"/>
	<linearGradient id="XMLID_179_" gradientUnits="userSpaceOnUse" x1="-18.4282" y1="-6.3474" x2="273.05" y2="108.9484">
		<stop  offset="0" style="stop-color:#541DD8"/>
		<stop  offset="1" style="stop-color:#541DA6"/>
	</linearGradient>
	<path id="XMLID_25_" class="st33" d="M118.5,50.5c0.4,0,0.6-0.1,0.9-0.4l2.1-2.1c0.5-0.5,0.5-1.2,0-1.7s-1.2-0.5-1.7,0l-2.1,2.1
		c-0.5,0.5-0.5,1.2,0,1.7C117.9,50.4,118.2,50.5,118.5,50.5z"/>
	<linearGradient id="XMLID_180_" gradientUnits="userSpaceOnUse" x1="-17.9671" y1="-7.5133" x2="273.5111" y2="107.7825">
		<stop  offset="0" style="stop-color:#541DD8"/>
		<stop  offset="1" style="stop-color:#541DA6"/>
	</linearGradient>
	<path id="XMLID_24_" class="st34" d="M123.6,50.5c0.4,0,0.6-0.1,0.9-0.4l1.1-1.1c0.5-0.5,0.5-1.2,0-1.7c-0.5-0.5-1.2-0.5-1.7,0
		l-1.1,1.1c-0.5,0.5-0.5,1.2,0,1.7C123,50.4,123.4,50.5,123.6,50.5z"/>
	<linearGradient id="XMLID_181_" gradientUnits="userSpaceOnUse" x1="-14.7677" y1="-15.6015" x2="276.7104" y2="99.6943">
		<stop  offset="0" style="stop-color:#541DD8"/>
		<stop  offset="1" style="stop-color:#541DA6"/>
	</linearGradient>
	<path id="XMLID_23_" class="st35" d="M115.7,39.7c0.2,0,0.5-0.1,0.7-0.2c2.1-1.5,4.2-2.1,5.6-2.3c0.6-0.1,1.1-0.7,1-1.5
		c-0.1-0.6-0.7-1.1-1.5-1c-1.6,0.4-4,1.1-6.5,2.7c-0.6,0.4-0.7,1.1-0.4,1.7C114.9,39.5,115.3,39.7,115.7,39.7z"/>
	<linearGradient id="XMLID_182_" gradientUnits="userSpaceOnUse" x1="-25.1536" y1="10.655" x2="266.3246" y2="125.9508">
		<stop  offset="0" style="stop-color:#541DD8"/>
		<stop  offset="1" style="stop-color:#541DA6"/>
	</linearGradient>
	<path id="XMLID_3_" class="st36" d="M173.7,93c0-1.7-1.2-3.2-2.8-3.5v-9.7c0-2.9-2.3-5.3-5.3-5.3h-6.4c-1.1,0-2,0.4-2.8,0.9v-17
		c0-15.8-12.5-28.6-28-29.3V24c2-0.5,3.3-2.3,3.3-4.4c0-2.6-2.1-4.5-4.5-4.5c-2.6,0-4.5,2.1-4.5,4.5c0,2.1,1.5,3.8,3.3,4.4v5.1
		c-15.8,0.6-28.4,13.6-28.4,29.3v17c-0.9-0.5-1.8-0.9-2.8-0.9h-6.4c-2.9,0-5.3,2.3-5.3,5.3v9.7c-1.6,0.4-2.8,1.8-2.8,3.5
		c0,1.7,1.2,3.2,2.8,3.5v9.7c0,2.9,2.3,5.3,5.3,5.3h6.4c2.9,0,5.3-2.3,5.3-5.3v-1.6c2.7,4.2,7.3,6.8,12.7,6.8h28.6
		c5.3,0,9.9-2.7,12.7-6.8v1.6c0,2.9,2.3,5.3,5.3,5.3h6.4c2.9,0,5.3-2.3,5.3-5.3v-9.7C172.5,96.2,173.7,94.7,173.7,93z M86.4,81.9
		c1.7,0.6,3.5,1,5.3,1c1.7,0,3.5-0.4,5.3-1l0.7-0.2v3.2l-1.6,0.6c-2.9,1.1-6,1.1-8.9,0l-1.5-0.7v-3.2L86.4,81.9z M97.7,90.4
		l-1.6,0.6c-2.9,1.1-6,1-8.9,0l-1.5-0.6v-3.2l0.7,0.2c1.7,0.6,3.5,1,5.3,1c1.7,0,3.5-0.4,5.3-1l0.7-0.2L97.7,90.4z M85.7,93.1
		l0.7,0.2c1.7,0.6,3.5,1,5.3,1c1.7,0,3.5-0.4,5.3-1l0.7-0.2v3.1l-1.6,0.6c-2.9,1-6,1-8.9,0l-1.5-0.6V93.1z M85.7,98.8l0.7,0.2
		c1.7,0.6,3.5,1,5.3,1c1.7,0,3.5-0.4,5.3-1l0.7-0.2v3.2l-1.6,0.6c-2.9,1.1-6,1.1-8.9,0l-1.5-0.6V98.8z M100.1,62.1H154v2.6h-53.9
		V62.1z M168.5,96.2l-1.6,0.6c-2.9,1-6,1-8.9,0l-1.5-0.6V93l0.7,0.2c1.7,0.6,3.5,1,5.3,1c1.7,0,3.5-0.4,5.3-1l0.7-0.2V96.2z
		 M168.5,90.4l-1.6,0.6c-2.9,1-6,1-8.9,0l-1.6-0.6v-3.2l0.7,0.2c1.7,0.6,3.5,1,5.3,1c1.7,0,3.5-0.4,5.3-1l0.7-0.2v3.2H168.5z
		 M168.5,84.7l-1.6,0.6c-2.9,1.1-6,1.1-8.9,0l-1.6-0.6v-3.2l0.7,0.2c1.7,0.6,3.5,1,5.3,1c1.7,0,3.5-0.4,5.3-1l0.7-0.2v3.2H168.5z
		 M156.5,98.8l0.7,0.2c1.7,0.6,3.5,1,5.3,1c1.7,0,3.5-0.4,5.3-1l0.7-0.2v3.2l-1.6,0.6c-2.9,1.1-6,1.1-8.9,0l-1.6-0.6v-3.2H156.5z
		 M159.3,77h6.4c1.2,0,2.3,0.9,2.7,2l-1.5,0.5c-2.9,1-6,1-8.9,0l-1.3-0.4C157,77.9,158.1,77,159.3,77z M125.1,19.6
		c0-1.2,1-2.1,2.1-2.1s2.1,1,2.1,2.1c0,1.1-1,2.1-2.1,2.1S125.1,20.8,125.1,19.6z M127,31.5c14.9,0,27,12.1,27,27v1.2h-53.9v-1.2
		C100.1,43.6,112.2,31.5,127,31.5z M88.5,77h6.4c1.2,0,2.3,0.9,2.7,2l-1.5,0.5c-2.9,1.1-6,1-8.9,0l-1.3-0.4
		C86.2,77.9,87.2,77,88.5,77z M82.9,93c0-0.4,0.1-0.6,0.4-0.9v1.7C83,93.6,82.9,93.4,82.9,93z M94.8,109h-6.4
		c-1.6,0-2.8-1.2-2.8-2.8v-1.6l0.7,0.2c1.7,0.6,3.5,1,5.3,1c1.7,0,3.5-0.4,5.3-1l0.7-0.2v1.6C97.7,107.7,96.3,109,94.8,109z
		 M141.3,109h-28.6c-7,0-12.7-5.6-12.7-12.7V79.9V67.1h53.9v12.8v16.5C154,103.3,148.4,109,141.3,109z M165.6,109h-6.4
		c-1.6,0-2.8-1.2-2.8-2.8v-1.6l0.7,0.2c1.7,0.6,3.5,1,5.3,1c1.7,0,3.5-0.4,5.3-1l0.7-0.2v1.6C168.5,107.7,167.1,109,165.6,109z
		 M170.9,93.9v-1.7c0.2,0.2,0.4,0.5,0.4,0.9S171.1,93.6,170.9,93.9z"/>
</g>
</svg>
