<?xml version="1.0" encoding="utf-8"?>
<!-- Generator: Adobe Illustrator 19.0.0, SVG Export Plug-In . SVG Version: 6.00 Build 0)  -->
<svg version="1.1" id="Layer_1" xmlns="http://www.w3.org/2000/svg" xmlns:xlink="http://www.w3.org/1999/xlink" x="0px" y="0px"
	 viewBox="0 0 7.9 14.9" style="enable-background:new 0 0 7.9 14.9;" xml:space="preserve">
<style type="text/css">
	.st0{fill:#58595B;}
	.st1{fill:#E52D27;}
	.st2{fill:url(#XMLID_57_);}
	.st3{fill:url(#XMLID_58_);}
	.st4{fill:url(#XMLID_67_);}
	.st5{fill:#2DB400;}
</style>
<g id="XMLID_22_">
	<g id="XMLID_59_">
		<path id="XMLID_64_" class="st0" d="M-153.8,90c2,0,2.2,0,3,0c0.7,0,1.1,0.2,1.4,0.3c0.3,0.1,0.6,0.3,0.9,0.6
			c0.3,0.3,0.4,0.5,0.6,0.9c0.1,0.3,0.2,0.7,0.3,1.4c0,0.8,0,1,0,3c0,2,0,2.2,0,3c0,0.7-0.2,1.1-0.3,1.4c-0.1,0.3-0.3,0.6-0.6,0.9
			c-0.3,0.3-0.5,0.4-0.9,0.6c-0.3,0.1-0.7,0.2-1.4,0.3c-0.8,0-1,0-3,0s-2.2,0-3,0c-0.7,0-1.1-0.2-1.4-0.3c-0.3-0.1-0.6-0.3-0.9-0.6
			s-0.4-0.5-0.6-0.9c-0.1-0.3-0.2-0.7-0.3-1.4c0-0.8,0-1,0-3c0-2,0-2.2,0-3c0-0.7,0.2-1.1,0.3-1.4c0.1-0.3,0.3-0.6,0.6-0.9
			c0.3-0.3,0.5-0.4,0.9-0.6c0.3-0.1,0.7-0.2,1.4-0.3C-156,90-155.8,90-153.8,90 M-153.8,88.7c-2,0-2.3,0-3.1,0
			c-0.8,0-1.3,0.2-1.8,0.3c-0.5,0.2-0.9,0.4-1.3,0.9c-0.4,0.4-0.7,0.8-0.9,1.3c-0.2,0.5-0.3,1-0.3,1.8c0,0.8,0,1,0,3.1
			c0,2,0,2.3,0,3.1c0,0.8,0.2,1.3,0.3,1.8c0.2,0.5,0.4,0.9,0.9,1.3c0.4,0.4,0.8,0.7,1.3,0.9c0.5,0.2,1,0.3,1.8,0.3c0.8,0,1,0,3.1,0
			s2.3,0,3.1,0c0.8,0,1.3-0.2,1.8-0.3c0.5-0.2,0.9-0.4,1.3-0.9c0.4-0.4,0.7-0.8,0.9-1.3c0.2-0.5,0.3-1,0.3-1.8c0-0.8,0-1,0-3.1
			c0-2,0-2.3,0-3.1c0-0.8-0.2-1.3-0.3-1.8c-0.2-0.5-0.4-0.9-0.9-1.3c-0.4-0.4-0.8-0.7-1.3-0.9c-0.5-0.2-1-0.3-1.8-0.3
			C-151.5,88.7-151.7,88.7-153.8,88.7L-153.8,88.7z"/>
		<path id="XMLID_61_" class="st0" d="M-153.8,92.3c-2.1,0-3.8,1.7-3.8,3.8s1.7,3.8,3.8,3.8s3.8-1.7,3.8-3.8S-151.7,92.3-153.8,92.3
			z M-153.8,98.6c-1.4,0-2.5-1.1-2.5-2.5c0-1.4,1.1-2.5,2.5-2.5c1.4,0,2.5,1.1,2.5,2.5C-151.3,97.5-152.4,98.6-153.8,98.6z"/>
		<circle id="XMLID_60_" class="st0" cx="-149.8" cy="92.1" r="0.9"/>
	</g>
</g>
<path id="XMLID_19_" class="st0" d="M-127.5,96.9v-2.7h2.3v-2c0-2.3,1.4-3.6,3.5-3.6c1,0,1.8,0.1,2.1,0.1v2.4l-1.4,0
	c-1.1,0-1.3,0.5-1.3,1.3v1.7h2.7l-0.3,2.7h-2.3v6.7h-2.8v-6.7H-127.5z"/>
<path id="youtube_1_" class="st1" d="M-83.9,99.5c0,1.3-1.1,2.4-2.4,2.4h-12c-1.3,0-2.4-1.1-2.4-2.4v-6.7c0-1.3,1.1-2.4,2.4-2.4h12
	c1.3,0,2.4,1.1,2.4,2.4V99.5z M-94.1,98.2l4.5-2.4l-4.5-2.4V98.2z"/>
<path id="XMLID_16_" class="st0" d="M0,8.2V5.5h2.3v-2C2.3,1.3,3.7,0,5.8,0c1,0,1.8,0.1,2.1,0.1v2.4l-1.4,0C5.3,2.5,5.1,3,5.1,3.8
	v1.7h2.7L7.4,8.2H5.1v6.7H2.3V8.2H0z"/>
<path id="youtube_2_" class="st1" d="M-53.6,66.5c0,1.3-1.1,2.4-2.4,2.4h-12c-1.3,0-2.4-1.1-2.4-2.4v-6.7c0-1.3,1.1-2.4,2.4-2.4h12
	c1.3,0,2.4,1.1,2.4,2.4V66.5z M-63.7,65.2l4.5-2.4l-4.5-2.4V65.2z"/>
<g id="XMLID_6_">
	<linearGradient id="XMLID_57_" gradientUnits="userSpaceOnUse" x1="-117.519" y1="57.6868" x2="-108.366" y2="64.8306">
		<stop  offset="0" style="stop-color:#ED2B66"/>
		<stop  offset="1" style="stop-color:#A50266"/>
	</linearGradient>
	<path id="XMLID_11_" class="st2" d="M-110.5,57c2,0,2.2,0,3,0c0.7,0,1.1,0.2,1.4,0.3c0.3,0.1,0.6,0.3,0.9,0.6
		c0.3,0.3,0.4,0.5,0.6,0.9c0.1,0.3,0.2,0.7,0.3,1.4c0,0.8,0,1,0,3s0,2.2,0,3c0,0.7-0.2,1.1-0.3,1.4c-0.1,0.3-0.3,0.6-0.6,0.9
		c-0.3,0.3-0.5,0.4-0.9,0.6c-0.3,0.1-0.7,0.2-1.4,0.3c-0.8,0-1,0-3,0s-2.2,0-3,0c-0.7,0-1.1-0.2-1.4-0.3c-0.3-0.1-0.6-0.3-0.9-0.6
		c-0.3-0.3-0.4-0.5-0.6-0.9c-0.1-0.3-0.2-0.7-0.3-1.4c0-0.8,0-1,0-3s0-2.2,0-3c0-0.7,0.2-1.1,0.3-1.4c0.1-0.3,0.3-0.6,0.6-0.9
		c0.3-0.3,0.5-0.4,0.9-0.6c0.3-0.1,0.7-0.2,1.4-0.3C-112.8,57-112.5,57-110.5,57 M-110.5,55.7c-2,0-2.3,0-3.1,0
		c-0.8,0-1.3,0.2-1.8,0.3c-0.5,0.2-0.9,0.4-1.3,0.9c-0.4,0.4-0.7,0.8-0.9,1.3c-0.2,0.5-0.3,1-0.3,1.8c0,0.8,0,1,0,3.1
		c0,2,0,2.3,0,3.1c0,0.8,0.2,1.3,0.3,1.8c0.2,0.5,0.4,0.9,0.9,1.3c0.4,0.4,0.8,0.7,1.3,0.9c0.5,0.2,1,0.3,1.8,0.3c0.8,0,1,0,3.1,0
		s2.3,0,3.1,0c0.8,0,1.3-0.2,1.8-0.3c0.5-0.2,0.9-0.4,1.3-0.9c0.4-0.4,0.7-0.8,0.9-1.3c0.2-0.5,0.3-1,0.3-1.8c0-0.8,0-1,0-3.1
		c0-2,0-2.3,0-3.1c0-0.8-0.2-1.3-0.3-1.8c-0.2-0.5-0.4-0.9-0.9-1.3c-0.4-0.4-0.8-0.7-1.3-0.9c-0.5-0.2-1-0.3-1.8-0.3
		C-108.2,55.7-108.5,55.7-110.5,55.7L-110.5,55.7z"/>
	<linearGradient id="XMLID_58_" gradientUnits="userSpaceOnUse" x1="-117.519" y1="57.6868" x2="-108.366" y2="64.8306">
		<stop  offset="0" style="stop-color:#ED2B66"/>
		<stop  offset="1" style="stop-color:#A50266"/>
	</linearGradient>
	<path id="XMLID_8_" class="st3" d="M-110.5,59.3c-2.1,0-3.8,1.7-3.8,3.8c0,2.1,1.7,3.8,3.8,3.8s3.8-1.7,3.8-3.8
		C-106.7,61-108.4,59.3-110.5,59.3z M-110.5,65.6c-1.4,0-2.5-1.1-2.5-2.5c0-1.4,1.1-2.5,2.5-2.5s2.5,1.1,2.5,2.5
		C-108,64.5-109.2,65.6-110.5,65.6z"/>
	<linearGradient id="XMLID_67_" gradientUnits="userSpaceOnUse" x1="-114.0813" y1="53.2823" x2="-104.9283" y2="60.4261">
		<stop  offset="0" style="stop-color:#ED2B66"/>
		<stop  offset="1" style="stop-color:#A50266"/>
	</linearGradient>
	<circle id="XMLID_7_" class="st4" cx="-106.5" cy="59.2" r="0.9"/>
</g>
<polygon id="XMLID_3_" class="st0" points="-55.6,88.7 -55.6,96.2 -60.7,88.7 -66.3,88.7 -66.3,103.6 -60.7,103.6 -60.7,96 
	-55.6,103.6 -50,103.6 -50,88.7 "/>
<polygon id="XMLID_2_" class="st5" points="-137.2,55.4 -137.2,62.9 -142.4,55.4 -148,55.4 -148,70.3 -142.4,70.3 -142.4,62.8 
	-137.3,70.3 -131.7,70.3 -131.7,55.4 "/>
</svg>
