<?xml version="1.0" encoding="utf-8"?>
<!-- Generator: Adobe Illustrator 19.0.0, SVG Export Plug-In . SVG Version: 6.00 Build 0)  -->
<svg version="1.1" id="Layer_1" xmlns="http://www.w3.org/2000/svg" xmlns:xlink="http://www.w3.org/1999/xlink" x="0px" y="0px"
	 viewBox="0 0 14.9 14.9" style="enable-background:new 0 0 14.9 14.9;" xml:space="preserve">
<style type="text/css">
	.st0{fill:#58595B;}
	.st1{fill:url(#XMLID_109_);}
	.st2{fill:url(#XMLID_110_);}
	.st3{fill:url(#XMLID_111_);}
	.st4{fill:#2DB400;}
</style>
<g id="XMLID_22_">
	<g id="XMLID_59_">
		<path id="XMLID_64_" class="st0" d="M-35.8,34.3c2,0,2.2,0,3,0c0.7,0,1.1,0.2,1.4,0.3c0.3,0.1,0.6,0.3,0.9,0.6
			c0.3,0.3,0.4,0.5,0.6,0.9c0.1,0.3,0.2,0.7,0.3,1.4c0,0.8,0,1,0,3s0,2.2,0,3c0,0.7-0.2,1.1-0.3,1.4c-0.1,0.3-0.3,0.6-0.6,0.9
			c-0.3,0.3-0.5,0.4-0.9,0.6c-0.3,0.1-0.7,0.2-1.4,0.3c-0.8,0-1,0-3,0c-2,0-2.2,0-3,0c-0.7,0-1.1-0.2-1.4-0.3
			c-0.3-0.1-0.6-0.3-0.9-0.6c-0.3-0.3-0.4-0.5-0.6-0.9c-0.1-0.3-0.2-0.7-0.3-1.4c0-0.8,0-1,0-3s0-2.2,0-3c0-0.7,0.2-1.1,0.3-1.4
			c0.1-0.3,0.3-0.6,0.6-0.9c0.3-0.3,0.5-0.4,0.9-0.6c0.3-0.1,0.7-0.2,1.4-0.3C-38,34.3-37.8,34.3-35.8,34.3 M-35.8,33
			c-2,0-2.3,0-3.1,0c-0.8,0-1.3,0.2-1.8,0.3c-0.5,0.2-0.9,0.4-1.3,0.9c-0.4,0.4-0.7,0.8-0.9,1.3c-0.2,0.5-0.3,1-0.3,1.8
			c0,0.8,0,1,0,3.1c0,2,0,2.3,0,3.1c0,0.8,0.2,1.3,0.3,1.8c0.2,0.5,0.4,0.9,0.9,1.3c0.4,0.4,0.8,0.7,1.3,0.9c0.5,0.2,1,0.3,1.8,0.3
			c0.8,0,1,0,3.1,0c2,0,2.3,0,3.1,0c0.8,0,1.3-0.2,1.8-0.3c0.5-0.2,0.9-0.4,1.3-0.9c0.4-0.4,0.7-0.8,0.9-1.3c0.2-0.5,0.3-1,0.3-1.8
			c0-0.8,0-1,0-3.1s0-2.3,0-3.1c0-0.8-0.2-1.3-0.3-1.8c-0.2-0.5-0.4-0.9-0.9-1.3c-0.4-0.4-0.8-0.7-1.3-0.9c-0.5-0.2-1-0.3-1.8-0.3
			C-33.5,33-33.8,33-35.8,33L-35.8,33z"/>
		<path id="XMLID_61_" class="st0" d="M-35.8,36.6c-2.1,0-3.8,1.7-3.8,3.8s1.7,3.8,3.8,3.8c2.1,0,3.8-1.7,3.8-3.8
			S-33.7,36.6-35.8,36.6z M-35.8,42.9c-1.4,0-2.5-1.1-2.5-2.5c0-1.4,1.1-2.5,2.5-2.5s2.5,1.1,2.5,2.5
			C-33.3,41.8-34.4,42.9-35.8,42.9z"/>
		<circle id="XMLID_60_" class="st0" cx="-31.8" cy="36.4" r="0.9"/>
	</g>
</g>
<g id="XMLID_6_">
	<linearGradient id="XMLID_109_" gradientUnits="userSpaceOnUse" x1="0.4613" y1="1.997" x2="9.6143" y2="9.1408">
		<stop  offset="0" style="stop-color:#ED2B66"/>
		<stop  offset="1" style="stop-color:#A50266"/>
	</linearGradient>
	<path id="XMLID_11_" class="st1" d="M7.5,1.3c2,0,2.2,0,3,0c0.7,0,1.1,0.2,1.4,0.3c0.3,0.1,0.6,0.3,0.9,0.6
		c0.3,0.3,0.4,0.5,0.6,0.9c0.1,0.3,0.2,0.7,0.3,1.4c0,0.8,0,1,0,3s0,2.2,0,3c0,0.7-0.2,1.1-0.3,1.4c-0.1,0.3-0.3,0.6-0.6,0.9
		c-0.3,0.3-0.5,0.4-0.9,0.6c-0.3,0.1-0.7,0.2-1.4,0.3c-0.8,0-1,0-3,0s-2.2,0-3,0c-0.7,0-1.1-0.2-1.4-0.3c-0.3-0.1-0.6-0.3-0.9-0.6
		c-0.3-0.3-0.4-0.5-0.6-0.9c-0.1-0.3-0.2-0.7-0.3-1.4c0-0.8,0-1,0-3s0-2.2,0-3c0-0.7,0.2-1.1,0.3-1.4c0.1-0.3,0.3-0.6,0.6-0.9
		c0.3-0.3,0.5-0.4,0.9-0.6c0.3-0.1,0.7-0.2,1.4-0.3C5.2,1.4,5.5,1.3,7.5,1.3 M7.5,0c-2,0-2.3,0-3.1,0C3.6,0.1,3,0.2,2.6,0.4
		C2.1,0.6,1.7,0.8,1.3,1.3C0.8,1.7,0.6,2.1,0.4,2.6C0.2,3,0.1,3.6,0,4.4c0,0.8,0,1,0,3.1c0,2,0,2.3,0,3.1c0,0.8,0.2,1.3,0.3,1.8
		c0.2,0.5,0.4,0.9,0.9,1.3c0.4,0.4,0.8,0.7,1.3,0.9c0.5,0.2,1,0.3,1.8,0.3c0.8,0,1,0,3.1,0s2.3,0,3.1,0c0.8,0,1.3-0.2,1.8-0.3
		c0.5-0.2,0.9-0.4,1.3-0.9c0.4-0.4,0.7-0.8,0.9-1.3c0.2-0.5,0.3-1,0.3-1.8c0-0.8,0-1,0-3.1s0-2.3,0-3.1c0-0.8-0.2-1.3-0.3-1.8
		c-0.2-0.5-0.4-0.9-0.9-1.3c-0.4-0.4-0.8-0.7-1.3-0.9c-0.5-0.2-1-0.3-1.8-0.3C9.7,0,9.5,0,7.5,0L7.5,0z"/>
	<linearGradient id="XMLID_110_" gradientUnits="userSpaceOnUse" x1="0.4613" y1="1.997" x2="9.6143" y2="9.1408">
		<stop  offset="0" style="stop-color:#ED2B66"/>
		<stop  offset="1" style="stop-color:#A50266"/>
	</linearGradient>
	<path id="XMLID_8_" class="st2" d="M7.5,3.6c-2.1,0-3.8,1.7-3.8,3.8s1.7,3.8,3.8,3.8s3.8-1.7,3.8-3.8S9.6,3.6,7.5,3.6z M7.5,9.9
		C6.1,9.9,5,8.8,5,7.5C5,6.1,6.1,5,7.5,5c1.4,0,2.5,1.1,2.5,2.5C9.9,8.8,8.8,9.9,7.5,9.9z"/>
	<linearGradient id="XMLID_111_" gradientUnits="userSpaceOnUse" x1="3.899" y1="-2.4075" x2="13.0519" y2="4.7363">
		<stop  offset="0" style="stop-color:#ED2B66"/>
		<stop  offset="1" style="stop-color:#A50266"/>
	</linearGradient>
	<circle id="XMLID_7_" class="st3" cx="11.4" cy="3.5" r="0.9"/>
</g>
<polygon id="XMLID_3_" class="st0" points="20.7,33 20.7,40.5 15.5,33 9.9,33 9.9,47.9 15.5,47.9 15.5,40.4 20.7,47.9 26.2,47.9 
	26.2,33 "/>
<polygon id="XMLID_2_" class="st4" points="-19.3,-0.3 -19.3,7.2 -24.4,-0.3 -30,-0.3 -30,14.6 -24.4,14.6 -24.4,7.1 -19.3,14.6 
	-13.7,14.6 -13.7,-0.3 "/>
</svg>
