<?xml version="1.0" encoding="utf-8"?>
<!-- Generator: Adobe Illustrator 19.0.0, SVG Export Plug-In . SVG Version: 6.00 Build 0)  -->
<svg version="1.1" id="Layer_1" xmlns="http://www.w3.org/2000/svg" xmlns:xlink="http://www.w3.org/1999/xlink" x="0px" y="0px"
	 viewBox="0 0 16.8 11.5" style="enable-background:new 0 0 16.8 11.5;" xml:space="preserve">
<style type="text/css">
	.st0{fill:#58595B;}
	.st1{fill:#E52D27;}
	.st2{fill:url(#XMLID_87_);}
	.st3{fill:url(#XMLID_88_);}
	.st4{fill:url(#XMLID_89_);}
	.st5{fill:#2DB400;}
</style>
<g id="XMLID_22_">
	<g id="XMLID_59_">
		<path id="XMLID_64_" class="st0" d="M-83.3,32.6c2,0,2.2,0,3,0c0.7,0,1.1,0.2,1.4,0.3c0.3,0.1,0.6,0.3,0.9,0.6
			c0.3,0.3,0.4,0.5,0.6,0.9c0.1,0.3,0.2,0.7,0.3,1.4c0,0.8,0,1,0,3s0,2.2,0,3c0,0.7-0.2,1.1-0.3,1.4c-0.1,0.3-0.3,0.6-0.6,0.9
			c-0.3,0.3-0.5,0.4-0.9,0.6c-0.3,0.1-0.7,0.2-1.4,0.3c-0.8,0-1,0-3,0s-2.2,0-3,0c-0.7,0-1.1-0.2-1.4-0.3c-0.3-0.1-0.6-0.3-0.9-0.6
			c-0.3-0.3-0.4-0.5-0.6-0.9c-0.1-0.3-0.2-0.7-0.3-1.4c0-0.8,0-1,0-3s0-2.2,0-3c0-0.7,0.2-1.1,0.3-1.4c0.1-0.3,0.3-0.6,0.6-0.9
			c0.3-0.3,0.5-0.4,0.9-0.6c0.3-0.1,0.7-0.2,1.4-0.3C-85.6,32.6-85.3,32.6-83.3,32.6 M-83.3,31.3c-2,0-2.3,0-3.1,0
			c-0.8,0-1.3,0.2-1.8,0.3c-0.5,0.2-0.9,0.4-1.3,0.9c-0.4,0.4-0.7,0.8-0.9,1.3c-0.2,0.5-0.3,1-0.3,1.8c0,0.8,0,1,0,3.1
			c0,2,0,2.3,0,3.1c0,0.8,0.2,1.3,0.3,1.8c0.2,0.5,0.4,0.9,0.9,1.3c0.4,0.4,0.8,0.7,1.3,0.9c0.5,0.2,1,0.3,1.8,0.3c0.8,0,1,0,3.1,0
			s2.3,0,3.1,0c0.8,0,1.3-0.2,1.8-0.3c0.5-0.2,0.9-0.4,1.3-0.9c0.4-0.4,0.7-0.8,0.9-1.3c0.2-0.5,0.3-1,0.3-1.8c0-0.8,0-1,0-3.1
			s0-2.3,0-3.1c0-0.8-0.2-1.3-0.3-1.8c-0.2-0.5-0.4-0.9-0.9-1.3c-0.4-0.4-0.8-0.7-1.3-0.9c-0.5-0.2-1-0.3-1.8-0.3
			C-81.1,31.3-81.3,31.3-83.3,31.3L-83.3,31.3z"/>
		<path id="XMLID_61_" class="st0" d="M-83.3,34.9c-2.1,0-3.8,1.7-3.8,3.8s1.7,3.8,3.8,3.8s3.8-1.7,3.8-3.8S-81.2,34.9-83.3,34.9z
			 M-83.3,41.2c-1.4,0-2.5-1.1-2.5-2.5c0-1.4,1.1-2.5,2.5-2.5c1.4,0,2.5,1.1,2.5,2.5C-80.9,40.1-82,41.2-83.3,41.2z"/>
		<circle id="XMLID_60_" class="st0" cx="-79.4" cy="34.8" r="0.9"/>
	</g>
</g>
<path id="youtube_1_" class="st1" d="M-13.5,42.1c0,1.3-1.1,2.4-2.4,2.4h-12c-1.3,0-2.4-1.1-2.4-2.4v-6.7c0-1.3,1.1-2.4,2.4-2.4h12
	c1.3,0,2.4,1.1,2.4,2.4V42.1z M-23.7,40.8l4.5-2.4l-4.5-2.4V40.8z"/>
<path id="youtube_2_" class="st0" d="M16.8,9.1c0,1.3-1.1,2.4-2.4,2.4h-12C1.1,11.5,0,10.5,0,9.1V2.4C0,1.1,1.1,0,2.4,0h12
	c1.3,0,2.4,1.1,2.4,2.4V9.1z M6.7,7.8l4.5-2.4L6.7,3.1V7.8z"/>
<g id="XMLID_6_">
	<linearGradient id="XMLID_87_" gradientUnits="userSpaceOnUse" x1="-47.0911" y1="0.3125" x2="-37.9382" y2="7.4563">
		<stop  offset="0" style="stop-color:#ED2B66"/>
		<stop  offset="1" style="stop-color:#A50266"/>
	</linearGradient>
	<path id="XMLID_11_" class="st2" d="M-40.1-0.3c2,0,2.2,0,3,0c0.7,0,1.1,0.2,1.4,0.3c0.3,0.1,0.6,0.3,0.9,0.6
		c0.3,0.3,0.4,0.5,0.6,0.9c0.1,0.3,0.2,0.7,0.3,1.4c0,0.8,0,1,0,3s0,2.2,0,3c0,0.7-0.2,1.1-0.3,1.4c-0.1,0.3-0.3,0.6-0.6,0.9
		c-0.3,0.3-0.5,0.4-0.9,0.6c-0.3,0.1-0.7,0.2-1.4,0.3c-0.8,0-1,0-3,0c-2,0-2.2,0-3,0c-0.7,0-1.1-0.2-1.4-0.3
		c-0.3-0.1-0.6-0.3-0.9-0.6c-0.3-0.3-0.4-0.5-0.6-0.9c-0.1-0.3-0.2-0.7-0.3-1.4c0-0.8,0-1,0-3s0-2.2,0-3c0-0.7,0.2-1.1,0.3-1.4
		c0.1-0.3,0.3-0.6,0.6-0.9c0.3-0.3,0.5-0.4,0.9-0.6c0.3-0.1,0.7-0.2,1.4-0.3C-42.3-0.3-42.1-0.3-40.1-0.3 M-40.1-1.7
		c-2,0-2.3,0-3.1,0c-0.8,0-1.3,0.2-1.8,0.3c-0.5,0.2-0.9,0.4-1.3,0.9C-46.7,0-47,0.4-47.2,0.9c-0.2,0.5-0.3,1-0.3,1.8
		c0,0.8,0,1,0,3.1c0,2,0,2.3,0,3.1c0,0.8,0.2,1.3,0.3,1.8c0.2,0.5,0.4,0.9,0.9,1.3c0.4,0.4,0.8,0.7,1.3,0.9c0.5,0.2,1,0.3,1.8,0.3
		c0.8,0,1,0,3.1,0c2,0,2.3,0,3.1,0c0.8,0,1.3-0.2,1.8-0.3c0.5-0.2,0.9-0.4,1.3-0.9c0.4-0.4,0.7-0.8,0.9-1.3c0.2-0.5,0.3-1,0.3-1.8
		c0-0.8,0-1,0-3.1s0-2.3,0-3.1c0-0.8-0.2-1.3-0.3-1.8c-0.2-0.5-0.4-0.9-0.9-1.3c-0.4-0.4-0.8-0.7-1.3-0.9c-0.5-0.2-1-0.3-1.8-0.3
		C-37.8-1.7-38.1-1.7-40.1-1.7L-40.1-1.7z"/>
	<linearGradient id="XMLID_88_" gradientUnits="userSpaceOnUse" x1="-47.0911" y1="0.3125" x2="-37.9382" y2="7.4563">
		<stop  offset="0" style="stop-color:#ED2B66"/>
		<stop  offset="1" style="stop-color:#A50266"/>
	</linearGradient>
	<path id="XMLID_8_" class="st3" d="M-40.1,1.9c-2.1,0-3.8,1.7-3.8,3.8s1.7,3.8,3.8,3.8s3.8-1.7,3.8-3.8S-38,1.9-40.1,1.9z
		 M-40.1,8.3c-1.4,0-2.5-1.1-2.5-2.5c0-1.4,1.1-2.5,2.5-2.5c1.4,0,2.5,1.1,2.5,2.5C-37.6,7.1-38.7,8.3-40.1,8.3z"/>
	<linearGradient id="XMLID_89_" gradientUnits="userSpaceOnUse" x1="-43.6535" y1="-4.092" x2="-34.5005" y2="3.0518">
		<stop  offset="0" style="stop-color:#ED2B66"/>
		<stop  offset="1" style="stop-color:#A50266"/>
	</linearGradient>
	<circle id="XMLID_7_" class="st4" cx="-36.1" cy="1.8" r="0.9"/>
</g>
<polygon id="XMLID_3_" class="st0" points="14.9,31.3 14.9,38.8 9.7,31.3 4.1,31.3 4.1,46.2 9.7,46.2 9.7,38.7 14.8,46.2 20.4,46.2 
	20.4,31.3 "/>
<polygon id="XMLID_2_" class="st5" points="-66.8,-2 -66.8,5.5 -72,-2 -77.5,-2 -77.5,12.9 -72,12.9 -72,5.4 -66.8,12.9 -61.3,12.9 
	-61.3,-2 "/>
</svg>
