<?xml version="1.0" encoding="utf-8"?>
<!-- Generator: Adobe Illustrator 19.0.0, SVG Export Plug-In . SVG Version: 6.00 Build 0)  -->
<svg version="1.1" id="Layer_1" xmlns="http://www.w3.org/2000/svg" xmlns:xlink="http://www.w3.org/1999/xlink" x="0px" y="0px"
	 viewBox="0 0 1140 790" style="enable-background:new 0 0 1140 790;" xml:space="preserve">
<style type="text/css">
	.st0{fill:#F9F9F9;}
	.st1{fill:#EFEFEF;}
	.st2{fill:#E3E8E8;}
	.st3{fill:#E0E4E3;}
	.st4{fill:#66FF66;}
	.st5{fill:#FF6633;}
	.st6{fill:#48ED48;}
	.st7{enable-background:new    ;}
	.st8{fill:#A3A3A3;}
	.st9{fill:#58595B;}
</style>
<rect id="XMLID_1_" class="st0" width="1140" height="790"/>
<g id="XMLID_71_">
	<g id="XMLID_89_">
		<path id="XMLID_62_" class="st1" d="M909.7,224.8c1.4,0,2.3-0.5,3.2-1.4l18.4-18.4c1.8-1.8,1.8-4.6,0-6.4c-1.8-1.8-4.6-1.8-6.4,0
			L906.5,217c-1.8,1.8-1.8,4.6,0,6.4C907.4,224.3,908.3,224.8,909.7,224.8z"/>
		<path id="XMLID_116_" class="st1" d="M513.1,265.7c1.4,0,2.3-0.5,3.2-1.4l18.4-18.4c1.8-1.8,1.8-4.6,0-6.4c-1.8-1.8-4.6-1.8-6.4,0
			l-18.4,18.4c-1.8,1.8-1.8,4.6,0,6.4C510.8,265.3,511.8,265.7,513.1,265.7z"/>
		<path id="XMLID_130_" class="st1" d="M748.6,87.6c1.4,0,2.3-0.5,3.2-1.4l18.4-18.4c1.8-1.8,1.8-4.6,0-6.4c-1.8-1.8-4.6-1.8-6.4,0
			l-18.4,18.4c-1.8,1.8-1.8,4.6,0,6.4C746.3,87.2,747.2,87.6,748.6,87.6z"/>
		<path id="XMLID_117_" class="st1" d="M631.6,783.8c1.4,0,2.3-0.5,3.2-1.4l18.4-18.4c1.8-1.8,1.8-4.6,0-6.4c-1.8-1.8-4.6-1.8-6.4,0
			L628.4,776c-1.8,1.8-1.8,4.6,0,6.4C629.3,783.4,630.2,783.8,631.6,783.8z"/>
		<path id="XMLID_61_" class="st1" d="M619.6,407.1l-6.4,6.4c-1.8,1.8-1.8,4.6,0,6.4c0.9,0.9,2.3,1.4,3.2,1.4s2.3-0.5,3.2-1.4
			l6.4-6.4c1.8-1.8,1.8-4.6,0-6.4S621,405.2,619.6,407.1z"/>
		<path id="XMLID_109_" class="st1" d="M514.5,680l-6.4,6.4c-1.8,1.8-1.8,4.6,0,6.4c0.9,0.9,2.3,1.4,3.2,1.4c0.9,0,2.3-0.5,3.2-1.4
			l6.4-6.4c1.8-1.8,1.8-4.6,0-6.4C519.1,678.1,515.8,678.1,514.5,680z"/>
		<path id="XMLID_110_" class="st1" d="M857,747.9l-6.4,6.4c-1.8,1.8-1.8,4.6,0,6.4c0.9,0.9,2.3,1.4,3.2,1.4s2.3-0.5,3.2-1.4
			l6.4-6.4c1.8-1.8,1.8-4.6,0-6.4C861.6,746.1,858.3,746.1,857,747.9z"/>
		<path id="XMLID_101_" class="st1" d="M36.3,755.8l-6.4,6.4c-1.8,1.8-1.8,4.6,0,6.4c0.9,0.9,2.3,1.4,3.2,1.4s2.3-0.5,3.2-1.4
			l6.4-6.4c1.8-1.8,1.8-4.6,0-6.4C40.9,753.9,37.7,753.9,36.3,755.8z"/>
		<path id="XMLID_94_" class="st1" d="M1090.2,366.8l-6.4,6.4c-1.8,1.8-1.8,4.6,0,6.4c0.9,0.9,2.3,1.4,3.2,1.4s2.3-0.5,3.2-1.4
			l6.4-6.4c1.8-1.8,1.8-4.6,0-6.4C1094.8,365,1091.6,365,1090.2,366.8z"/>
		<path id="XMLID_60_" class="st1" d="M805.6,176.9l-6.4,6.4c-1.8,1.8-1.8,4.6,0,6.4c0.9,0.9,2.3,1.4,3.2,1.4s2.3-0.5,3.2-1.4
			l6.4-6.4c1.8-1.8,1.8-4.6,0-6.4C810.2,175,807,175,805.6,176.9z"/>
		<path id="XMLID_59_" class="st1" d="M993.9,337.6c-1.8-1.8-4.6-1.8-6.4,0l-6.4,6.4c-1.8,1.8-1.8,4.6,0,6.4
			c0.9,0.9,2.3,1.4,3.2,1.4s2.3-0.5,3.2-1.4l6.4-6.4C995.8,342.6,995.8,339.4,993.9,337.6z"/>
		<path id="XMLID_129_" class="st1" d="M1073.6,204.5c-1.8-1.8-4.6-1.8-6.4,0l-6.4,6.4c-1.8,1.8-1.8,4.6,0,6.4
			c0.9,0.9,2.3,1.4,3.2,1.4c0.9,0,2.3-0.5,3.2-1.4l6.4-6.4C1075.5,209.6,1075.5,206.3,1073.6,204.5z"/>
		<path id="XMLID_90_" class="st1" d="M1109.5,112.5c-1.8-1.8-4.6-1.8-6.4,0l-6.4,6.4c-1.8,1.8-1.8,4.6,0,6.4
			c0.9,0.9,2.3,1.4,3.2,1.4s2.3-0.5,3.2-1.4l6.4-6.4C1111.4,117.6,1111.4,114.4,1109.5,112.5z"/>
		<path id="XMLID_91_" class="st1" d="M451.7,19c-1.8-1.8-4.6-1.8-6.4,0l-6.4,6.4c-1.8,1.8-1.8,4.6,0,6.4c0.9,0.9,2.3,1.4,3.2,1.4
			s2.3-0.5,3.2-1.4l6.4-6.4C453.5,24.1,453.5,20.9,451.7,19z"/>
		<path id="XMLID_181_" class="st1" d="M30.3,480.1c-1.8-1.8-4.6-1.8-6.4,0l-6.4,6.4c-1.8,1.8-1.8,4.6,0,6.4
			c0.9,0.9,2.3,1.4,3.2,1.4c0.9,0,2.3-0.5,3.2-1.4l6.4-6.4C32.2,485.1,32.2,481.9,30.3,480.1z"/>
		<path id="XMLID_92_" class="st1" d="M1039.9,730c-1.8-1.8-4.6-1.8-6.4,0l-6.4,6.4c-1.8,1.8-1.8,4.6,0,6.4c0.9,0.9,2.3,1.4,3.2,1.4
			s2.3-0.5,3.2-1.4l6.4-6.4C1041.8,735,1041.8,731.8,1039.9,730z"/>
		<path id="XMLID_93_" class="st1" d="M243.8,690.1c-1.8-1.8-4.6-1.8-6.4,0l-6.4,6.4c-1.8,1.8-1.8,4.6,0,6.4
			c0.9,0.9,2.3,1.4,3.2,1.4s2.3-0.5,3.2-1.4l6.4-6.4C245.7,695.2,245.7,691.9,243.8,690.1z"/>
		<path id="XMLID_58_" class="st1" d="M687.8,237.2c0.9,0.9,2.3,1.4,3.2,1.4s2.3-0.5,3.2-1.4l5.1-5.1l5.1,5.1
			c0.9,0.9,2.3,1.4,3.2,1.4s2.3-0.5,3.2-1.4c1.8-1.8,1.8-4.6,0-6.4l-5.1-5.1l5.1-5.1c1.8-1.8,1.8-4.6,0-6.4c-1.8-1.8-4.6-1.8-6.4,0
			l-5.1,5.1l-5.1-5.1c-1.8-1.8-4.6-1.8-6.4,0s-1.8,4.6,0,6.4l5.1,5.1l-5.1,5.1C685.9,232.6,685.9,235.3,687.8,237.2z"/>
		<path id="XMLID_123_" class="st1" d="M759.2,677.2c0.9,0.9,2.3,1.4,3.2,1.4s2.3-0.5,3.2-1.4l5.1-5.1l5.1,5.1
			c0.9,0.9,2.3,1.4,3.2,1.4s2.3-0.5,3.2-1.4c1.8-1.8,1.8-4.6,0-6.4l-5.1-5.1l5.1-5.1c1.8-1.8,1.8-4.6,0-6.4s-4.6-1.8-6.4,0l-5.1,5.1
			l-5.1-5.1c-1.8-1.8-4.6-1.8-6.4,0c-1.8,1.8-1.8,4.6,0,6.4l5.1,5.1l-5.1,5.1C757.3,672.6,757.3,675.4,759.2,677.2z"/>
		<path id="XMLID_74_" class="st1" d="M172.9,72.4c0.9,0.9,2.3,1.4,3.2,1.4s2.3-0.5,3.2-1.4l5.1-5.1l5.1,5.1
			c0.9,0.9,2.3,1.4,3.2,1.4s2.3-0.5,3.2-1.4c1.8-1.8,1.8-4.6,0-6.4l-5.1-5.1l5.1-5.1c1.8-1.8,1.8-4.6,0-6.4c-1.8-1.8-4.6-1.8-6.4,0
			l-5.1,5.1l-5.1-5.1c-1.8-1.8-4.6-1.8-6.4,0c-1.8,1.8-1.8,4.6,0,6.4l5.1,5.1l-5.1,5.1C171.1,67.8,171.1,70.6,172.9,72.4z"/>
		<path id="XMLID_57_" class="st1" d="M984.3,181h1.8v1.8c0,2.8,1.8,4.6,4.6,4.6s4.6-1.8,4.6-4.6V181h1.8c2.8,0,4.6-1.8,4.6-4.6
			s-1.8-4.6-4.6-4.6h-1.8V170c0-2.8-1.8-4.6-4.6-4.6s-4.6,1.8-4.6,4.6v1.8h-1.8c-2.8,0-4.6,1.8-4.6,4.6S981.5,181,984.3,181z"/>
		<path id="XMLID_128_" class="st1" d="M1133.6,510.7h1.8v1.8c0,2.8,1.8,4.6,4.6,4.6s4.6-1.8,4.6-4.6v-1.8h1.8
			c2.8,0,4.6-1.8,4.6-4.6s-1.8-4.6-4.6-4.6h-1.8v-1.8c0-2.8-1.8-4.6-4.6-4.6s-4.6,1.8-4.6,4.6v1.8h-1.8c-2.8,0-4.6,1.8-4.6,4.6
			S1130.8,510.7,1133.6,510.7z"/>
		<path id="XMLID_56_" class="st1" d="M976.5,498.7c-1.8-1.8-4.6-1.8-6.4,0l-5.1,5.1l-5.1-5.1c-1.8-1.8-4.6-1.8-6.4,0
			c-1.8,1.8-1.8,4.6,0,6.4l5.1,5.1l-5.1,5.1c-1.8,1.8-1.8,4.6,0,6.4c0.9,0.9,2.3,1.4,3.2,1.4s2.3-0.5,3.2-1.4l5.1-5.1l5.1,5.1
			c0.9,0.9,2.3,1.4,3.2,1.4s2.3-0.5,3.2-1.4c1.8-1.8,1.8-4.6,0-6.4l-5.1-5.1l5.1-5.1C977.8,503.3,977.8,500.5,976.5,498.7z"/>
		<path id="XMLID_81_" class="st1" d="M1101.7,730c-1.8-1.8-4.6-1.8-6.4,0l-5.1,5.1l-5.1-5.1c-1.8-1.8-4.6-1.8-6.4,0s-1.8,4.6,0,6.4
			l5.1,5.1l-5.1,5.1c-1.8,1.8-1.8,4.6,0,6.4c0.9,0.9,2.3,1.4,3.2,1.4c0.9,0,2.3-0.5,3.2-1.4l5.1-5.1l5.1,5.1
			c0.9,0.9,2.3,1.4,3.2,1.4s2.3-0.5,3.2-1.4c1.8-1.8,1.8-4.6,0-6.4l-5.1-5.1l5.1-5.1C1103.1,734.6,1103.1,731.8,1101.7,730z"/>
		<path id="XMLID_55_" class="st1" d="M664.3,510.2h-6.9v-6.9c0-2.8-1.8-4.6-4.6-4.6s-4.6,1.8-4.6,4.6v6.9h-6.9
			c-2.8,0-4.6,1.8-4.6,4.6s1.8,4.6,4.6,4.6h6.9v6.9c0,2.8,1.8,4.6,4.6,4.6s4.6-1.8,4.6-4.6v-6.9h6.9c2.8,0,4.6-1.8,4.6-4.6
			S666.6,510.2,664.3,510.2z"/>
		<path id="XMLID_103_" class="st1" d="M256.7,773.7h-6.9v-6.9c0-2.8-1.8-4.6-4.6-4.6s-4.6,1.8-4.6,4.6v6.9h-6.9
			c-2.8,0-4.6,1.8-4.6,4.6s1.8,4.6,4.6,4.6h6.9v6.9c0,2.8,1.8,4.6,4.6,4.6s4.6-1.8,4.6-4.6v-6.9h6.9c2.8,0,4.6-1.8,4.6-4.6
			S259,773.7,256.7,773.7z"/>
		<path id="XMLID_108_" class="st1" d="M626.1,292.4c0-7.4-6-13.4-13.4-13.4s-13.4,6-13.4,13.4s6,13.4,13.4,13.4
			S626.1,299.8,626.1,292.4z M608.6,292.4c0-2.3,1.8-4.1,4.1-4.1s4.1,1.8,4.1,4.1s-1.8,4.1-4.1,4.1S608.6,294.7,608.6,292.4z"/>
		<path id="XMLID_78_" class="st1" d="M36.3,29.6c0-7.4-6-13.4-13.4-13.4s-13.4,6-13.4,13.4S15.6,43,22.9,43S36.3,37,36.3,29.6z
			 M18.8,29.6c0-2.3,1.8-4.1,4.1-4.1s4.1,1.8,4.1,4.1s-1.8,4.1-4.1,4.1S18.8,31.9,18.8,29.6z"/>
		<path id="XMLID_105_" class="st1" d="M969.1,248.2c-7.4,0-13.4,6-13.4,13.4c0,7.4,6,13.4,13.4,13.4s13.4-6,13.4-13.4
			C982.4,253.8,976.5,248.2,969.1,248.2z M969.1,265.3c-2.3,0-4.1-1.8-4.1-4.1s1.8-4.1,4.1-4.1s4.1,1.8,4.1,4.1
			S971.4,265.3,969.1,265.3z"/>
		<path id="XMLID_113_" class="st1" d="M483.8,126.8c-7.4,0-13.4,6-13.4,13.4s6,13.4,13.4,13.4s13.4-6,13.4-13.4
			C497.1,132.3,491.2,126.8,483.8,126.8z M483.8,143.8c-2.3,0-4.1-1.8-4.1-4.1s1.8-4.1,4.1-4.1s4.1,1.8,4.1,4.1
			S486.1,143.8,483.8,143.8z"/>
		<path id="XMLID_97_" class="st1" d="M969.1,20c-7.4,0-13.4,6-13.4,13.4s6,13.4,13.4,13.4s13.4-6,13.4-13.4
			C982.4,25.5,976.5,20,969.1,20z M969.1,37c-2.3,0-4.1-1.8-4.1-4.1s1.8-4.1,4.1-4.1s4.1,1.8,4.1,4.1S971.4,37,969.1,37z"/>
		<path id="XMLID_102_" class="st1" d="M625.6,161.2c-7.4,0-13.4,6-13.4,13.4s6,13.4,13.4,13.4s13.4-6,13.4-13.4
			S633,161.2,625.6,161.2z M625.6,178.3c-2.3,0-4.1-1.8-4.1-4.1s1.8-4.1,4.1-4.1s4.1,1.8,4.1,4.1S627.9,178.3,625.6,178.3z"/>
		<path id="XMLID_132_" class="st1" d="M839.5-13.4c-7.4,0-13.4,6-13.4,13.4s6,13.4,13.4,13.4s13.4-6,13.4-13.4
			S846.9-13.4,839.5-13.4z M839.5,3.7c-2.3,0-4.1-1.8-4.1-4.1s1.8-4.1,4.1-4.1s4.1,1.8,4.1,4.1S841.8,3.7,839.5,3.7z"/>
		<circle id="XMLID_48_" class="st1" cx="645.9" cy="353.7" r="5.1"/>
		<circle id="XMLID_111_" class="st1" cx="679.2" cy="53.1" r="5.1"/>
		<circle id="XMLID_112_" class="st1" cx="351.6" cy="187.5" r="5.1"/>
		<circle id="XMLID_76_" class="st1" cx="1072.2" cy="48" r="5.1"/>
		<circle id="XMLID_47_" class="st1" cx="726.5" cy="165.8" r="5.1"/>
		<circle id="XMLID_100_" class="st1" cx="564.9" cy="32.8" r="5.1"/>
		<circle id="XMLID_75_" class="st1" cx="96.1" cy="691.5" r="5.1"/>
		<circle id="XMLID_46_" class="st1" cx="896.8" cy="165.8" r="5.1"/>
		<path id="XMLID_45_" class="st1" d="M877.8,563.2h1.8v1.8c0,2.8,1.8,4.6,4.6,4.6s4.6-1.8,4.6-4.6v-1.8h1.8c2.8,0,4.6-1.8,4.6-4.6
			s-1.8-4.6-4.6-4.6h-1.8v-1.8c0-2.8-1.8-4.6-4.6-4.6s-4.6,1.8-4.6,4.6v1.8h-1.8c-2.8,0-4.6,1.8-4.6,4.6S875,563.2,877.8,563.2z"/>
		<path id="XMLID_118_" class="st1" d="M639.4,638.6h1.8v1.8c0,2.8,1.8,4.6,4.6,4.6s4.6-1.8,4.6-4.6v-1.8h1.8c2.8,0,4.6-1.8,4.6-4.6
			s-1.8-4.6-4.6-4.6h-1.8v-1.8c0-2.8-1.8-4.6-4.6-4.6s-4.6,1.8-4.6,4.6v1.8h-1.8c-2.8,0-4.6,1.8-4.6,4.6S636.7,638.6,639.4,638.6z"
			/>
		<path id="XMLID_192_" class="st1" d="M460.6,505.1h1.8v1.8c0,2.8,1.8,4.6,4.6,4.6s4.6-1.8,4.6-4.6v-1.8h1.8c2.8,0,4.6-1.8,4.6-4.6
			c0-2.8-1.8-4.6-4.6-4.6h-1.8v-1.8c0-2.8-1.8-4.6-4.6-4.6s-4.6,1.8-4.6,4.6v1.8h-1.8c-2.8,0-4.6,1.8-4.6,4.6
			S457.8,505.1,460.6,505.1z"/>
		<path id="XMLID_121_" class="st1" d="M311,73.4h1.8v1.8c0,2.8,1.8,4.6,4.6,4.6s4.6-1.8,4.6-4.6v-1.8h1.8c2.8,0,4.6-1.8,4.6-4.6
			s-1.8-4.6-4.6-4.6H322v-1.8c0-2.8-1.8-4.6-4.6-4.6s-4.6,1.8-4.6,4.6v1.8H311c-2.8,0-4.6,1.8-4.6,4.6
			C306.4,71.5,308.2,73.4,311,73.4z"/>
		<path id="XMLID_122_" class="st1" d="M919.4,95.5h1.8v1.8c0,2.8,1.8,4.6,4.6,4.6s4.6-1.8,4.6-4.6v-1.8h1.8c2.8,0,4.6-1.8,4.6-4.6
			c0-2.8-1.8-4.6-4.6-4.6h-1.8v-1.8c0-2.8-1.8-4.6-4.6-4.6s-4.6,1.8-4.6,4.6v1.8h-1.8c-2.8,0-4.6,1.8-4.6,4.6
			C914.8,93.6,916.6,95.5,919.4,95.5z"/>
		<path id="XMLID_82_" class="st1" d="M952.2,627.5h1.8v1.8c0,2.8,1.8,4.6,4.6,4.6s4.6-1.8,4.6-4.6v-1.8h1.8c2.8,0,4.6-1.8,4.6-4.6
			s-1.8-4.6-4.6-4.6h-1.8v-1.8c0-2.8-1.8-4.6-4.6-4.6s-4.6,1.8-4.6,4.6v1.8h-1.8c-2.8,0-4.6,1.8-4.6,4.6S949.4,627.5,952.2,627.5z"
			/>
		<path id="XMLID_131_" class="st1" d="M568.6,106.5h1.8v1.8c0,2.8,1.8,4.6,4.6,4.6s4.6-1.8,4.6-4.6v-1.8h1.8c2.8,0,4.6-1.8,4.6-4.6
			s-1.8-4.6-4.6-4.6h-1.8v-1.8c0-2.8-1.8-4.6-4.6-4.6s-4.6,1.8-4.6,4.6v1.8h-1.8c-2.8,0-4.6,1.8-4.6,4.6S565.9,106.5,568.6,106.5z"
			/>
		<path id="XMLID_172_" class="st1" d="M220.9,142.7c1.4,0,2.3-0.5,3.2-1.4l18.4-18.4c1.8-1.8,1.8-4.6,0-6.4s-4.6-1.8-6.4,0
			l-18.4,18.4c-1.8,1.8-1.8,4.6,0,6.4C218.6,142.2,219.5,142.7,220.9,142.7z"/>
		<circle id="XMLID_171_" class="st1" cx="151.5" cy="108.1" r="5.1"/>
		<path id="XMLID_170_" class="st1" d="M40.9,161.5h1.8v1.8c0,2.8,1.8,4.6,4.6,4.6s4.6-1.8,4.6-4.6v-1.8h1.8c2.8,0,4.6-1.8,4.6-4.6
			s-1.8-4.6-4.6-4.6H52v-1.8c0-2.8-1.8-4.6-4.6-4.6s-4.6,1.8-4.6,4.6v1.8H41c-2.8,0-4.6,1.8-4.6,4.6S38.1,161.5,40.9,161.5z"/>
		<path id="XMLID_175_" class="st1" d="M560.4,609.7c1.4,0,2.3-0.5,3.2-1.4l18.4-18.4c1.8-1.8,1.8-4.6,0-6.4c-1.8-1.8-4.6-1.8-6.4,0
			l-18.4,18.4c-1.8,1.8-1.8,4.6,0,6.4C558.1,609.3,559,609.7,560.4,609.7z"/>
		<circle id="XMLID_174_" class="st1" cx="491" cy="575.2" r="5.1"/>
		<path id="XMLID_173_" class="st1" d="M380.5,628.6h1.8v1.8c0,2.8,1.8,4.6,4.6,4.6s4.6-1.8,4.6-4.6v-1.8h1.8c2.8,0,4.6-1.8,4.6-4.6
			s-1.8-4.6-4.6-4.6h-1.8v-1.8c0-2.8-1.8-4.6-4.6-4.6s-4.6,1.8-4.6,4.6v1.8h-1.8c-2.8,0-4.6,1.8-4.6,4.6S377.7,628.6,380.5,628.6z"
			/>
		<path id="XMLID_191_" class="st1" d="M145.1,665.2h1.8v1.8c0,2.8,1.8,4.6,4.6,4.6s4.6-1.8,4.6-4.6v-1.8h1.8c2.8,0,4.6-1.8,4.6-4.6
			s-1.8-4.6-4.6-4.6h-1.8v-1.8c0-2.8-1.8-4.6-4.6-4.6s-4.6,1.8-4.6,4.6v1.8h-1.8c-2.8,0-4.6,1.8-4.6,4.6S142.3,665.2,145.1,665.2z"
			/>
		<path id="XMLID_95_" class="st1" d="M723.7,543.4c-7.4,0-13.4,6-13.4,13.4s6,13.4,13.4,13.4s13.4-6,13.4-13.4
			C737,549.4,731.1,543.4,723.7,543.4z M723.7,560.5c-2.3,0-4.1-1.8-4.1-4.1s1.8-4.1,4.1-4.1s4.1,1.8,4.1,4.1S726,560.5,723.7,560.5
			z"/>
		<path id="XMLID_104_" class="st1" d="M392.7,715.2c-7.4,0-13.4,6-13.4,13.4s6,13.4,13.4,13.4s13.4-6,13.4-13.4
			S400.1,715.2,392.7,715.2z M392.7,732.3c-2.3,0-4.1-1.8-4.1-4.1s1.8-4.1,4.1-4.1c2.3,0,4.1,1.8,4.1,4.1S395,732.3,392.7,732.3z"/>
		<path id="XMLID_185_" class="st1" d="M0,621.7c-7.4,0-13.4,6-13.4,13.4s6,13.4,13.4,13.4s13.4-6,13.4-13.4S7.4,621.7,0,621.7z
			 M0,638.7c-2.3,0-4.1-1.8-4.1-4.1s1.8-4.1,4.1-4.1s4.1,1.8,4.1,4.1S2.3,638.7,0,638.7z"/>
		<circle id="XMLID_42_" class="st1" cx="824.5" cy="548" r="5.1"/>
		<circle id="XMLID_124_" class="st1" cx="895.3" cy="686.4" r="5.1"/>
		<circle id="XMLID_125_" class="st1" cx="735.5" cy="746.5" r="5.1"/>
		<circle id="XMLID_126_" class="st1" cx="1105.9" cy="570.1" r="5.1"/>
		<circle id="XMLID_127_" class="st1" cx="1077.3" cy="665.7" r="5.1"/>
		<circle id="XMLID_41_" class="st1" cx="616.9" cy="563.6" r="5.1"/>
		<circle id="XMLID_176_" class="st1" cx="536.2" cy="500.5" r="5.1"/>
		<circle id="XMLID_178_" class="st1" cx="86" cy="87.6" r="5.1"/>
		<circle id="XMLID_179_" class="st1" cx="18.8" cy="274.9" r="5.1"/>
		<circle id="XMLID_83_" class="st1" cx="570" cy="715.8" r="5.1"/>
		<circle id="XMLID_84_" class="st1" cx="1090.2" cy="456" r="5.1"/>
		<circle id="XMLID_85_" class="st1" cx="834.5" cy="73.8" r="5.1"/>
		<circle id="XMLID_86_" class="st1" cx="412.7" cy="113.9" r="5.1"/>
		<circle id="XMLID_87_" class="st1" cx="91" cy="29.6" r="5.1"/>
		<circle id="XMLID_88_" class="st1" cx="166.5" cy="741.5" r="5.1"/>
		<circle id="XMLID_40_" class="st1" cx="1006.8" cy="561.3" r="5.1"/>
		<circle id="XMLID_39_" class="st1" cx="997.2" cy="425" r="5.1"/>
		<circle id="XMLID_96_" class="st1" cx="1110.9" cy="257" r="5.1"/>
		<circle id="XMLID_38_" class="st1" cx="914.3" cy="495.5" r="5.1"/>
	</g>
</g>
<g id="XMLID_2_">
	<circle id="XMLID_22_" class="st2" cx="864.8" cy="1175.1" r="82.3"/>
	<path id="XMLID_21_" class="st3" d="M892.1,1097.5c0,0.4,0.1,0.8,0.4,1.2l1.6,2.5c0.8,1.2,0.4,2.8-0.8,3.6l-7.2,4.6
		c-1.2,0.8-1.6,2.4-0.8,3.6l1,1.6c0.8,1.2,2.4,1.6,3.6,0.8l7.2-4.6c1.2-0.8,2.8-0.4,3.6,0.8l0.7,1c0.8,1.2,0.4,2.8-0.8,3.6
		l-26.6,16.9c-1.2,0.8-1.6,2.4-0.8,3.6l1,1.6c0.8,1.2,2.4,1.6,3.6,0.8l26.6-16.9c1.2-0.8,2.8-0.4,3.6,0.8l0.7,1
		c0.8,1.2,0.4,2.8-0.8,3.6l-11.3,7.2c-1.2,0.8-1.6,2.4-0.8,3.6l1,1.6c0.8,1.2,2.4,1.6,3.6,0.8l11.3-7.2c1.2-0.8,2.8-0.4,3.6,0.8
		l0.7,1c0.8,1.2,0.4,2.8-0.8,3.6l-20.6,13.1c-1.2,0.8-1.6,2.4-0.8,3.6l1,1.6c0.8,1.2,2.4,1.6,3.6,0.8L919,1145
		c1.2-0.8,2.8-0.4,3.6,0.8l0.7,1c0.8,1.2,0.4,2.8-0.8,3.6l-5.7,3.6c-1.2,0.8-1.6,2.4-0.8,3.6l1,1.6c0.8,1.2,2.4,1.6,3.6,0.8l5.7-3.6
		c1.2-0.8,2.8-0.4,3.6,0.8l0.7,1c0.8,1.2,0.4,2.8-0.8,3.6l-20.6,13.1c-1.2,0.8-1.6,2.4-0.8,3.6l1,1.6c0.8,1.2,2.4,1.6,3.6,0.8
		l20.6-13.1c1.2-0.8,2.8-0.4,3.6,0.8l0.7,1c0.8,1.2,0.4,2.8-0.8,3.6l-12.5,8c-1.2,0.8-1.6,2.4-0.8,3.6l1,1.6
		c0.8,1.2,2.4,1.6,3.6,0.8l12.5-8c1.2-0.8,2.8-0.4,3.6,0.8c0.7,1,2,1.4,3.1,1c1.1-16.8-2.9-34.2-12.7-49.5
		C923.9,1114.7,908.9,1103.4,892.1,1097.5z"/>
	<path id="XMLID_20_" class="st3" d="M837.4,1252.5c0-0.4-0.1-0.8-0.4-1.2l-1.6-2.5c-0.8-1.2-0.4-2.8,0.8-3.6l7.2-4.6
		c1.2-0.8,1.6-2.4,0.8-3.6l-1-1.6c-0.8-1.2-2.4-1.6-3.6-0.8l-7.2,4.6c-1.2,0.8-2.8,0.4-3.6-0.8l-0.7-1c-0.8-1.2-0.4-2.8,0.8-3.6
		l26.6-16.9c1.2-0.8,1.6-2.4,0.8-3.6l-1-1.6c-0.8-1.2-2.4-1.6-3.6-0.8l-26.6,16.9c-1.2,0.8-2.8,0.4-3.6-0.8l-0.7-1
		c-0.8-1.2-0.4-2.8,0.8-3.6l11.3-7.2c1.2-0.8,1.6-2.4,0.8-3.6l-1-1.6c-0.8-1.2-2.4-1.6-3.6-0.8l-11.3,7.2c-1.2,0.8-2.8,0.4-3.6-0.8
		l-0.7-1c-0.8-1.2-0.4-2.8,0.8-3.6l20.6-13.1c1.2-0.8,1.6-2.4,0.8-3.6l-1-1.6c-0.8-1.2-2.4-1.6-3.6-0.8l-20.6,13.1
		c-1.2,0.8-2.8,0.4-3.6-0.8l-0.7-1c-0.8-1.2-0.4-2.8,0.8-3.6l5.7-3.6c1.2-0.8,1.6-2.4,0.8-3.6l-1-1.6c-0.8-1.2-2.4-1.6-3.6-0.8
		l-5.7,3.6c-1.2,0.8-2.8,0.4-3.6-0.8l-0.7-1c-0.8-1.2-0.4-2.8,0.8-3.6l20.6-13.1c1.2-0.8,1.6-2.4,0.8-3.6l-1-1.6
		c-0.8-1.2-2.4-1.6-3.6-0.8l-20.6,13.1c-1.2,0.8-2.8,0.4-3.6-0.8l-0.7-1c-0.8-1.2-0.4-2.8,0.8-3.6l12.5-8c1.2-0.8,1.6-2.4,0.8-3.6
		l-1-1.6c-0.8-1.2-2.4-1.6-3.6-0.8l-12.5,8c-1.2,0.8-2.8,0.4-3.6-0.8c-0.7-1-2-1.4-3.1-1c-1.1,16.8,2.9,34.2,12.7,49.5
		C805.6,1235.3,820.6,1246.6,837.4,1252.5z"/>
	<circle id="XMLID_19_" class="st3" cx="917.6" cy="1188.7" r="3.2"/>
	<circle id="XMLID_18_" class="st3" cx="843.1" cy="1190.2" r="3.2"/>
	<circle id="XMLID_17_" class="st3" cx="876.8" cy="1118.5" r="3.2"/>
	<circle id="XMLID_16_" class="st3" cx="838.3" cy="1122.8" r="3.2"/>
	<circle id="XMLID_15_" class="st3" cx="799.3" cy="1153.1" r="3.2"/>
	<circle id="XMLID_14_" class="st3" cx="854.6" cy="1183.7" r="3.2"/>
	<circle id="XMLID_13_" class="st3" cx="886.6" cy="1145.4" r="3.2"/>
	<circle id="XMLID_12_" class="st3" cx="852.5" cy="1231.4" r="3.2"/>
	<circle id="XMLID_11_" class="st3" cx="892.4" cy="1237" r="3.2"/>
	<g id="XMLID_9_">
		<path id="XMLID_10_" class="st3" d="M910.8,1229l-9.5,5.8c-1.4,0.9-3.4,0.2-4.4-1.4l0,0c-1-1.7-0.7-3.7,0.7-4.6l9.5-5.8
			c1.4-0.9,3.4-0.2,4.4,1.4l0,0C912.6,1226.1,912.3,1228.1,910.8,1229z"/>
	</g>
	<g id="XMLID_7_">
		<path id="XMLID_8_" class="st3" d="M845.4,1161l-9.5,5.8c-1.4,0.9-3.4,0.2-4.4-1.4l0,0c-1-1.7-0.7-3.7,0.7-4.6l9.5-5.8
			c1.4-0.9,3.4-0.2,4.4,1.4l0,0C847.1,1158.1,846.8,1160.1,845.4,1161z"/>
	</g>
	<g id="XMLID_5_">
		<path id="XMLID_6_" class="st3" d="M819.8,1143.8l-9.5,5.8c-1.4,0.9-3.4,0.2-4.4-1.4l0,0c-1-1.7-0.7-3.7,0.7-4.6l9.5-5.8
			c1.4-0.9,3.4-0.2,4.4,1.4l0,0C821.5,1140.9,821.2,1142.9,819.8,1143.8z"/>
	</g>
	<g id="XMLID_3_">
		<path id="XMLID_4_" class="st3" d="M845,1112.3l-9.5,5.8c-1.4,0.9-3.4,0.2-4.4-1.4l0,0c-1-1.7-0.7-3.7,0.7-4.6l9.5-5.8
			c1.4-0.9,3.4-0.2,4.4,1.4l0,0C846.7,1109.4,846.4,1111.5,845,1112.3z"/>
	</g>
</g>
<g id="XMLID_67_">
	<g id="XMLID_164_">
		<g id="XMLID_194_">
			<path id="XMLID_195_" d="M932.8,504.7c2.5,2.5,6.8,2.5,9.3,0l15.8-15.8l15.8,15.8c2.5,2.5,6.8,2.5,9.3,0s2.5-6.8,0-9.3
				l-15.8-15.8l15.8-15.8c2.5-2.5,2.5-6.8,0-9.3l-21.1-21.1l21.4-21.4l21.1,21.1c2.5,2.5,6.8,2.5,9.3,0l16.1-16.1l15.8,15.8
				c2.5,2.5,6.8,2.5,9.3,0s2.5-6.8,0-9.3l-15.8-15.8l15.8-15.8c2.5-2.5,2.5-6.8,0-9.3l-21.1-21.1l26-26c2.5-2.5,2.5-6.8,0-9.3
				l-46.2-46.2c-1.2-1.2-3.1-1.9-5-1.9s-3.4,0.9-5,2.5c-0.6,0.6-1.2,1.2-2.2,2.2c-10.2,10.2-26.6,9.9-36.6,0
				c-9.9-9.9-9.9-26.6,0-36.6c0.6-0.6,1.2-1.2,2.2-2.2c1.2-1.2,2.2-2.8,2.5-5c0-1.9-0.6-3.7-1.9-5l-46.2-46.2
				c-2.5-2.5-6.8-2.5-9.3,0l-26,26L865.3,193c-2.5-2.5-6.8-2.5-9.3,0l-15.8,15.8L824.4,193c-2.5-2.5-6.8-2.5-9.3,0s-2.5,6.8,0,9.3
				l15.8,15.8l-15.8,15.8c-2.5,2.5-2.5,6.8,0,9.3l21.1,21.1l-21.4,21.4l-21.1-21.1c-2.5-2.5-6.8-2.5-9.3,0l-15.8,15.8l-15.8-15.8
				c-2.5-2.5-6.8-2.5-9.3,0s-2.5,6.8,0,9.3l15.8,15.8l-15.8,15.8c-2.5,2.5-2.5,6.8,0,9.3l21.1,21.1L738,362.5l-21.1-21.1
				c-2.5-2.5-6.8-2.5-9.3,0l-16.1,16.1l-15.8-15.8c-2.5-2.5-6.8-2.5-9.3,0s-2.5,6.8,0,9.3l15.8,15.8l-15.8,15.8
				c-2.5,2.5-2.5,6.8,0,9.3l21.1,21.1L646,454.5c-2.5,2.5-2.5,6.8,0,9.3l46.2,46.2c1.2,1.2,3.1,1.9,5,1.9s3.4-0.9,5-2.5
				c0.6-0.6,1.2-1.2,2.2-2.2c10.2-10.2,26.6-9.9,36.6,0c9.9,9.9,9.9,26.6,0,36.6c-0.6,0.6-1.2,1.2-2.2,2.2c-1.2,1.2-2.2,2.8-2.5,5
				c0,1.9,0.6,3.7,1.9,5l46.2,46.2c2.5,2.5,6.8,2.5,9.3,0l41.5-41.5l21.1,21.1c2.5,2.5,6.8,2.5,9.3,0l15.8-15.8l15.8,15.8
				c2.5,2.5,6.8,2.5,9.3,0s2.5-6.8,0-9.3l-15.8-15.8l15.8-15.8c2.5-2.5,2.5-6.8,0-9.3l-21.1-21.1l26.6-26.6L932.8,504.7z
				 M969.1,459.1l-31.6,31.6L921,474.3l31.6-31.6L969.1,459.1z M1040.9,387.3l-31.6,31.6l-16.4-16.4l31.6-31.6L1040.9,387.3z
				 M828.7,238.9l31.9-31.9l16.4,16.4L845.5,255L829,238.6L828.7,238.9z M757.2,310.4l31.6-31.6l16.4,16.4l-31.6,31.6L757.2,310.4z
				 M680.3,387.3l31.6-31.6l16.4,16.4l-31.6,31.6L680.3,387.3z M788.8,588l-36.9-36.9c13.3-15.2,12.7-38.7-1.9-53.3
				c-14.6-14.6-38.1-15.2-53.3-1.9L659.8,459l41.5-41.5l40.9-40.9l35.9-35.9l40.9-40.9l30.7-30.7L891,228l26-26l36.9,36.9
				c-13.3,15.2-12.7,38.7,1.9,53.3s38.1,15.2,53.3,1.9L1046,331l-26,26l-41,40.8l-30.7,30.7l-40.9,40.9l-35.9,35.9l-40.9,40.9
				L788.8,588z M892.2,536l-31.6,31.6l-16.4-16.4l31.6-31.6L892.2,536z"/>
		</g>
	</g>
	<path id="XMLID_163_" class="st4" d="M788.8,588l-36.9-36.9c13.3-15.2,12.7-38.7-1.9-53.3c-14.6-14.6-38.1-15.2-53.3-1.9L659.8,459
		l41.5-41.5l40.9-40.9l35.9-35.9l40.9-40.9l30.7-30.7L891,228l26-26l36.9,36.9c-13.3,15.2-12.7,38.7,1.9,53.3
		c14.6,14.6,38.1,15.2,53.3,1.9L1046,331l-26,26l-41,40.8l-30.7,30.7l-40.9,40.9l-35.9,35.9l-40.9,40.9L788.8,588z"/>
	
		<rect id="XMLID_162_" x="682" y="368" transform="matrix(0.7071 -0.7071 0.7071 0.7071 -62.1554 609.2279)" class="st5" width="44.7" height="23.2"/>
	
		<rect id="XMLID_143_" x="845.9" y="532" transform="matrix(0.7071 -0.7071 0.7071 0.7071 -130.0736 773.1541)" class="st5" width="44.7" height="23.2"/>
	
		<rect id="XMLID_142_" x="922.7" y="455.1" transform="matrix(0.7071 -0.7071 0.7071 0.7071 -53.2188 804.9655)" class="st5" width="44.7" height="23.2"/>
	
		<rect id="XMLID_141_" x="994.6" y="383.4" transform="matrix(0.7071 -0.7071 0.7071 0.7071 18.5265 834.7607)" class="st5" width="44.7" height="23.2"/>
	
		<rect id="XMLID_140_" x="758.9" y="291.2" transform="matrix(0.7071 -0.7071 0.7071 0.7071 14.6701 641.1099)" class="st5" width="44.7" height="23.2"/>
	
		<rect id="XMLID_139_" x="830.6" y="219.3" transform="matrix(0.7071 -0.7071 0.7071 0.7071 86.5275 670.7246)" class="st5" width="44.7" height="23.2"/>
	<g id="XMLID_120_">
		<path id="XMLID_138_" class="st6" d="M782,463.5c1.3-1.3,1.3-3.4,0-4.6l-3.9-3.9c-1.3-1.3-3.4-1.3-4.6,0l-34.9,34.9
			c3.7,1.7,7.2,3.9,10.4,6.8L782,463.5z"/>
		<path id="XMLID_137_" class="st6" d="M785.7,488c1.3-1.3,1.3-3.4,0-4.6l-3.9-3.9c-1.3-1.3-3.4-1.3-4.6,0l-23,23
			c2.6,3.5,4.5,7.4,5.8,11.4L785.7,488z"/>
		<path id="XMLID_136_" class="st6" d="M822.7,546.3l-20.5,20.5c-1.3,1.3-3.4,1.3-4.6,0l-0.8-0.8c-1.3-1.3-1.3-3.4,0-4.6l35.5-35.5
			c1.3-1.3,1.3-3.4,0-4.6l-3.9-3.9c-1.3-1.3-3.4-1.3-4.6,0l-35.5,35.5c-1.3,1.3-3.4,1.3-4.6,0l-0.8-0.8c-1.3-1.3-1.3-3.4,0-4.6
			l14.2-14.2c1.3-1.3,1.3-3.4,0-4.6l-3.9-3.9c-1.3-1.3-3.4-1.3-4.6,0L774.4,539c-1.3,1.3-3.4,1.3-4.6,0l-0.8-0.8
			c-1.3-1.3-1.3-3.4,0-4.6l6.2-6.2c1.3-1.3,1.3-3.4,0-4.6l-3.9-3.9c-1.3-1.3-3.4-1.3-4.6,0l-4.8,4.8c0.6,10-2.5,20.1-9.4,28
			l36.9,36.9l40-40l-1.6-1.6C826,545,823.9,545,822.7,546.3z"/>
		<path id="XMLID_135_" class="st6" d="M660,459.1l36.9,36.9c9.3-8.2,21.7-11.1,33.3-8.8l9-9c1.3-1.3,1.3-3.4,0-4.6l-3.9-3.9
			c-1.3-1.3-3.4-1.3-4.6,0l-12.8,12.8c-1.3,1.3-3.4,1.3-4.6,0l-0.8-0.8c-1.3-1.3-1.3-3.4,0-4.6l41.5-41.5c1.3-1.3,1.3-3.4,0-4.6
			l-3.9-3.9c-1.3-1.3-3.4-1.3-4.6,0L704,468.6c-1.3,1.3-3.4,1.3-4.6,0l-0.8-0.8c-1.3-1.3-1.3-3.4,0-4.6l46.7-46.7
			c1.3-1.3,1.3-3.4,0-4.6l-3.9-3.9c-1.3-1.3-3.4-1.3-4.6,0l-46.7,46.7c-1.3,1.3-3.4,1.3-4.6,0l-0.8-0.8c-1.3-1.3-1.3-3.4,0-4.6
			l31.1-31.1c1.3-1.3,1.3-3.4,0-4.6l-3.9-3.9c-0.2-0.2-0.5-0.4-0.8-0.5l-9.1,9.1L660,459.1z"/>
	</g>
	<g id="XMLID_70_">
		<path id="XMLID_119_" class="st6" d="M923.9,326.5c-1.3,1.3-1.3,3.4,0,4.6l3.9,3.9c1.3,1.3,3.4,1.3,4.6,0l34.9-34.9
			c-3.7-1.7-7.2-3.9-10.4-6.8L923.9,326.5z"/>
		<path id="XMLID_77_" class="st6" d="M920.3,302c-1.3,1.3-1.3,3.4,0,4.6l3.9,3.9c1.3,1.3,3.4,1.3,4.6,0l23-23
			c-2.6-3.5-4.5-7.4-5.8-11.4L920.3,302z"/>
		<path id="XMLID_73_" class="st6" d="M883.2,243.6l20.5-20.5c1.3-1.3,3.4-1.3,4.6,0l0.8,0.8c1.3,1.3,1.3,3.4,0,4.6L873.6,264
			c-1.3,1.3-1.3,3.4,0,4.6l3.9,3.9c1.3,1.3,3.4,1.3,4.6,0l35.5-35.5c1.3-1.3,3.4-1.3,4.6,0l0.8,0.8c1.3,1.3,1.3,3.4,0,4.6
			l-14.2,14.2c-1.3,1.3-1.3,3.4,0,4.6l3.9,3.9c1.3,1.3,3.4,1.3,4.6,0l14.2-14.2c1.3-1.3,3.4-1.3,4.6,0l0.8,0.8
			c1.3,1.3,1.3,3.4,0,4.6l-6.2,6.2c-1.3,1.3-1.3,3.4,0,4.6l3.9,3.9c1.3,1.3,3.4,1.3,4.6,0l4.8-4.8c-0.6-10,2.5-20.1,9.4-28L917,202
			l-40,40l1.6,1.6C879.9,244.9,882,244.9,883.2,243.6z"/>
		<path id="XMLID_72_" class="st6" d="M1045.9,330.8L1009,294c-9.3,8.2-21.7,11.1-33.3,8.8l-9,9c-1.3,1.3-1.3,3.4,0,4.6l3.9,3.9
			c1.3,1.3,3.4,1.3,4.6,0l12.8-12.8c1.3-1.3,3.4-1.3,4.6,0l0.8,0.8c1.3,1.3,1.3,3.4,0,4.6L952,354.6c-1.3,1.3-1.3,3.4,0,4.6l3.9,3.9
			c1.3,1.3,3.4,1.3,4.6,0l41.5-41.5c1.3-1.3,3.4-1.3,4.6,0l0.8,0.8c1.3,1.3,1.3,3.4,0,4.6l-46.7,46.7c-1.3,1.3-1.3,3.4,0,4.6
			l3.9,3.9c1.3,1.3,3.4,1.3,4.6,0l46.7-46.7c1.3-1.3,3.4-1.3,4.6,0l0.8,0.8c1.3,1.3,1.3,3.4,0,4.6L990.2,372c-1.3,1.3-1.3,3.4,0,4.6
			l3.9,3.9c0.2,0.2,0.5,0.4,0.8,0.5l9.1-9.1L1045.9,330.8z"/>
	</g>
</g>
<g id="XMLID_166_">
	<g class="st7">
		<path class="st8" d="M64.1,225.7v-10.6c0-2.8,0.7-4.8,2.2-6.2c1.5-1.3,3.5-2,5.9-2c2.5,0,4.5,0.7,6,2c1.5,1.3,2.2,3.4,2.2,6.2
			v10.6c0,2.8-0.7,4.8-2.2,6.2c-1.5,1.3-3.5,2-6,2c-2.5,0-4.5-0.7-5.9-2C64.8,230.6,64.1,228.5,64.1,225.7z M68,225.7
			c0,3.1,1.4,4.7,4.3,4.7c1.4,0,2.5-0.4,3.2-1.2c0.8-0.8,1.1-2,1.1-3.5v-10.6c0-1.6-0.4-2.8-1.1-3.5c-0.8-0.8-1.8-1.2-3.2-1.2
			c-2.9,0-4.3,1.6-4.3,4.7V225.7z"/>
		<path class="st8" d="M84.8,225.7v-17.5c0-0.4,0.2-0.7,0.6-0.9c0.4-0.2,0.8-0.3,1.4-0.3c0.5,0,1,0.1,1.4,0.3
			c0.4,0.2,0.6,0.5,0.6,0.9v17.5c0,1.6,0.4,2.8,1.2,3.5c0.8,0.8,1.9,1.2,3.3,1.2c3,0,4.5-1.6,4.5-4.7v-17.5c0-0.4,0.2-0.7,0.6-0.9
			c0.4-0.2,0.8-0.3,1.4-0.3c0.5,0,1,0.1,1.4,0.3c0.4,0.2,0.6,0.5,0.6,0.9v17.5c0,2.8-0.8,4.8-2.3,6.2c-1.5,1.3-3.5,2-6.1,2
			c-2.5,0-4.5-0.7-6-2C85.6,230.6,84.8,228.5,84.8,225.7z"/>
		<path class="st8" d="M106.2,232.3v-24.1c0-0.3,0.1-0.6,0.4-0.9c0.2-0.2,0.5-0.4,0.9-0.4h6.9c5.6,0,8.4,2.5,8.4,7.4
			c0,2.1-0.5,3.7-1.4,4.8c-0.9,1.2-2.2,2-3.8,2.3l5.1,9.6c0.1,0.2,0.1,0.4,0.1,0.5c0,0.5-0.2,0.9-0.7,1.4s-1,0.6-1.6,0.6
			c-0.6,0-1.1-0.4-1.5-1.1l-5.3-10.4H110v10.2c0,0.4-0.2,0.7-0.6,0.9s-0.8,0.3-1.4,0.3c-0.5,0-1-0.1-1.3-0.3
			C106.4,233,106.2,232.7,106.2,232.3z M110,219.1h4.4c3,0,4.5-1.4,4.5-4.3c0-2.9-1.5-4.3-4.5-4.3H110V219.1z"/>
		<path class="st8" d="M133.8,232.3v-24.1c0-0.8,0.6-1.3,1.9-1.3c0.7,0,1.2,0.2,1.6,0.5c0.4,0.3,0.8,0.9,1.3,1.7l8.1,15.8v-16.7
			c0-0.4,0.2-0.7,0.6-0.9c0.4-0.2,0.8-0.3,1.4-0.3c0.5,0,1,0.1,1.4,0.3c0.4,0.2,0.6,0.5,0.6,0.9v24.1c0,0.4-0.2,0.7-0.6,0.9
			c-0.4,0.2-0.8,0.3-1.4,0.3c-1,0-1.8-0.5-2.3-1.4l-8.7-16.6v16.7c0,0.4-0.2,0.7-0.6,0.9c-0.4,0.2-0.8,0.3-1.4,0.3
			c-0.5,0-1-0.1-1.3-0.3C134,233,133.8,232.7,133.8,232.3z"/>
		<path class="st8" d="M155.4,232.3v-24.1c0-0.4,0.2-0.7,0.5-0.9c0.3-0.2,0.7-0.3,1.2-0.3h13c0.4,0,0.7,0.2,0.9,0.5
			c0.2,0.3,0.3,0.7,0.3,1.2c0,0.5-0.1,0.9-0.3,1.2c-0.2,0.3-0.5,0.5-0.9,0.5h-10.8v8.3h5.6c0.4,0,0.7,0.2,0.9,0.5
			c0.2,0.3,0.3,0.7,0.3,1.1c0,0.4-0.1,0.7-0.3,1c-0.2,0.3-0.5,0.5-0.9,0.5h-5.6v8.4h10.8c0.4,0,0.7,0.2,0.9,0.5
			c0.2,0.3,0.3,0.8,0.3,1.2c0,0.4-0.1,0.8-0.3,1.2c-0.2,0.3-0.5,0.5-0.9,0.5h-13c-0.5,0-0.9-0.1-1.2-0.3
			C155.6,233,155.4,232.7,155.4,232.3z"/>
		<path class="st8" d="M172.6,208.6c0-0.4,0.3-0.8,0.8-1.1c0.5-0.3,1.1-0.5,1.6-0.5c0.8,0,1.2,0.3,1.3,0.8l6,20.8l3.3-13
			c0.2-0.8,0.8-1.1,1.9-1.1c1,0,1.7,0.4,1.9,1.2l3.3,13l5.9-20.8c0.1-0.5,0.6-0.8,1.3-0.8c0.6,0,1.1,0.1,1.6,0.4
			c0.5,0.3,0.8,0.7,0.8,1.1c0,0.2,0,0.3,0,0.4l-7.2,23.6c-0.1,0.4-0.4,0.7-0.9,1c-0.5,0.2-1,0.4-1.5,0.4c-0.6,0-1.1-0.1-1.5-0.3
			s-0.7-0.5-0.8-1l-2.8-11l-2.8,11c-0.1,0.4-0.4,0.7-0.8,1c-0.5,0.2-1,0.3-1.6,0.3c-0.6,0-1.1-0.1-1.6-0.3c-0.5-0.2-0.8-0.6-0.9-1
			l-7.2-23.6C172.6,208.9,172.6,208.7,172.6,208.6z"/>
		<path class="st8" d="M205.3,232.3v-24.1c0-0.4,0.2-0.7,0.5-0.9c0.3-0.2,0.7-0.3,1.2-0.3h13c0.4,0,0.7,0.2,0.9,0.5
			c0.2,0.3,0.3,0.7,0.3,1.2c0,0.5-0.1,0.9-0.3,1.2c-0.2,0.3-0.5,0.5-0.9,0.5h-10.8v8.3h5.6c0.4,0,0.7,0.2,0.9,0.5
			c0.2,0.3,0.3,0.7,0.3,1.1c0,0.4-0.1,0.7-0.3,1c-0.2,0.3-0.5,0.5-0.9,0.5h-5.6v8.4H220c0.4,0,0.7,0.2,0.9,0.5
			c0.2,0.3,0.3,0.8,0.3,1.2c0,0.4-0.1,0.8-0.3,1.2c-0.2,0.3-0.5,0.5-0.9,0.5h-13c-0.5,0-0.9-0.1-1.2-0.3
			C205.5,233,205.3,232.7,205.3,232.3z"/>
		<path class="st8" d="M223,229.6c0-0.5,0.2-0.9,0.5-1.4c0.3-0.5,0.7-0.7,1.2-0.7c0.3,0,0.6,0.2,1,0.5c0.4,0.3,0.7,0.6,1.1,1
			c0.4,0.4,0.9,0.7,1.7,1c0.7,0.3,1.6,0.5,2.5,0.5c1.4,0,2.5-0.3,3.3-1c0.8-0.7,1.3-1.6,1.3-2.9c0-1.2-0.4-2.1-1.2-2.9
			c-0.8-0.8-1.8-1.4-2.9-1.9c-1.2-0.5-2.3-1-3.5-1.5s-2.2-1.3-3-2.4c-0.8-1.1-1.2-2.4-1.2-4c0-1.3,0.2-2.4,0.7-3.3
			c0.5-0.9,1.2-1.7,2-2.2c0.8-0.5,1.7-0.9,2.7-1.1c0.9-0.2,1.9-0.3,3-0.3c0.7,0,1.3,0,2.1,0.1c0.7,0.1,1.4,0.2,2.1,0.4
			c0.7,0.2,1.3,0.5,1.7,0.8c0.5,0.4,0.7,0.8,0.7,1.2s-0.1,0.9-0.4,1.4c-0.3,0.5-0.7,0.7-1.2,0.7c-0.2,0-0.6-0.1-1-0.3
			c-0.4-0.2-1-0.5-1.7-0.7c-0.7-0.2-1.5-0.3-2.4-0.3c-1.4,0-2.5,0.3-3.3,0.8s-1.2,1.4-1.2,2.5c0,0.7,0.2,1.4,0.7,1.9
			c0.4,0.5,1,1,1.7,1.3c0.7,0.3,1.5,0.7,2.3,1c0.8,0.3,1.7,0.7,2.5,1.2s1.6,0.9,2.3,1.5c0.7,0.6,1.3,1.4,1.7,2.4
			c0.4,1,0.7,2.2,0.7,3.5c0,2.5-0.8,4.4-2.3,5.7c-1.5,1.3-3.5,2-6,2c-2.2,0-4.1-0.5-5.7-1.4C223.8,231.6,223,230.6,223,229.6z"/>
		<path class="st8" d="M241.1,208.8c0-0.5,0.1-0.9,0.3-1.2c0.2-0.4,0.5-0.5,0.9-0.5h15.1c0.4,0,0.7,0.2,0.9,0.5
			c0.2,0.3,0.3,0.7,0.3,1.2c0,0.5-0.1,1-0.3,1.3c-0.2,0.4-0.5,0.5-0.9,0.5h-5.6v21.8c0,0.4-0.2,0.7-0.6,0.9
			c-0.4,0.2-0.8,0.3-1.3,0.3c-0.5,0-1-0.1-1.4-0.3c-0.4-0.2-0.6-0.5-0.6-0.9v-21.8h-5.6c-0.4,0-0.7-0.2-0.9-0.5
			C241.2,209.7,241.1,209.3,241.1,208.8z"/>
		<path class="st8" d="M268.7,225.7v-10.6c0-2.8,0.7-4.8,2.2-6.2c1.5-1.3,3.4-2,5.8-2c2.5,0,4.5,0.6,6,1.8c1.5,1.2,2.3,2.8,2.3,4.8
			c0,0.8-0.1,1.3-0.4,1.6c-0.3,0.3-0.8,0.4-1.5,0.4c-1.3,0-1.9-0.4-1.9-1.3c-0.1-2.6-1.6-3.9-4.3-3.9c-2.9,0-4.4,1.6-4.4,4.7v10.6
			c0,3.1,1.5,4.7,4.4,4.7c0.9,0,1.6-0.1,2.2-0.4s1-0.6,1.3-1.1c0.3-0.5,0.4-0.9,0.5-1.3c0.1-0.4,0.2-0.8,0.2-1.3
			c0.1-0.8,0.7-1.3,1.9-1.3c0.7,0,1.2,0.1,1.5,0.4c0.3,0.3,0.5,0.8,0.5,1.6c0,2-0.8,3.7-2.3,4.9c-1.5,1.3-3.5,1.9-6,1.9
			c-2.4,0-4.3-0.7-5.8-2C269.4,230.6,268.7,228.5,268.7,225.7z"/>
		<path class="st8" d="M288.6,232.3v-24.1c0-0.4,0.2-0.7,0.6-0.9c0.4-0.2,0.8-0.3,1.4-0.3c0.5,0,1,0.1,1.4,0.3
			c0.4,0.2,0.6,0.5,0.6,0.9v22h9.5c0.4,0,0.6,0.2,0.9,0.5c0.2,0.3,0.3,0.7,0.3,1.2s-0.1,0.9-0.3,1.2c-0.2,0.3-0.5,0.5-0.9,0.5h-11.6
			c-0.5,0-0.9-0.1-1.2-0.3C288.8,233,288.6,232.7,288.6,232.3z"/>
		<path class="st8" d="M304.1,232c0-0.1,0-0.3,0-0.3l7.2-23.6c0.3-0.9,1.2-1.3,2.6-1.3c1.4,0,2.3,0.4,2.6,1.2l7.2,23.6
			c0,0.2,0.1,0.3,0.1,0.3c0,0.5-0.3,0.9-0.8,1.2c-0.6,0.3-1.2,0.5-1.8,0.5c-0.8,0-1.2-0.3-1.4-0.8l-1.5-5.2h-9l-1.5,5.2
			c-0.2,0.5-0.6,0.8-1.3,0.8c-0.6,0-1.1-0.2-1.6-0.5C304.4,232.8,304.1,232.5,304.1,232z M310.2,224.5h7.2l-3.7-12.5L310.2,224.5z"
			/>
		<path class="st8" d="M325.1,229.6c0-0.5,0.2-0.9,0.5-1.4c0.3-0.5,0.7-0.7,1.2-0.7c0.3,0,0.6,0.2,1,0.5c0.4,0.3,0.7,0.6,1.1,1
			c0.4,0.4,0.9,0.7,1.7,1c0.7,0.3,1.6,0.5,2.5,0.5c1.4,0,2.5-0.3,3.3-1c0.8-0.7,1.3-1.6,1.3-2.9c0-1.2-0.4-2.1-1.2-2.9
			c-0.8-0.8-1.8-1.4-2.9-1.9c-1.2-0.5-2.3-1-3.5-1.5s-2.2-1.3-3-2.4c-0.8-1.1-1.2-2.4-1.2-4c0-1.3,0.2-2.4,0.7-3.3
			c0.5-0.9,1.2-1.7,2-2.2c0.8-0.5,1.7-0.9,2.7-1.1c0.9-0.2,1.9-0.3,3-0.3c0.7,0,1.3,0,2.1,0.1c0.7,0.1,1.4,0.2,2.1,0.4
			c0.7,0.2,1.3,0.5,1.7,0.8c0.5,0.4,0.7,0.8,0.7,1.2s-0.1,0.9-0.4,1.4c-0.3,0.5-0.7,0.7-1.2,0.7c-0.2,0-0.6-0.1-1-0.3
			c-0.4-0.2-1-0.5-1.7-0.7c-0.7-0.2-1.5-0.3-2.4-0.3c-1.4,0-2.5,0.3-3.3,0.8s-1.2,1.4-1.2,2.5c0,0.7,0.2,1.4,0.7,1.9
			c0.4,0.5,1,1,1.7,1.3c0.7,0.3,1.5,0.7,2.3,1c0.8,0.3,1.7,0.7,2.5,1.2s1.6,0.9,2.3,1.5c0.7,0.6,1.3,1.4,1.7,2.4
			c0.4,1,0.7,2.2,0.7,3.5c0,2.5-0.8,4.4-2.3,5.7c-1.5,1.3-3.5,2-6,2c-2.2,0-4.1-0.5-5.7-1.4C325.9,231.6,325.1,230.6,325.1,229.6z"
			/>
		<path class="st8" d="M343.8,229.6c0-0.5,0.2-0.9,0.5-1.4c0.3-0.5,0.7-0.7,1.2-0.7c0.3,0,0.6,0.2,1,0.5c0.4,0.3,0.7,0.6,1.1,1
			c0.4,0.4,0.9,0.7,1.7,1c0.7,0.3,1.6,0.5,2.5,0.5c1.4,0,2.5-0.3,3.3-1c0.8-0.7,1.3-1.6,1.3-2.9c0-1.2-0.4-2.1-1.2-2.9
			c-0.8-0.8-1.8-1.4-2.9-1.9c-1.2-0.5-2.3-1-3.5-1.5s-2.2-1.3-3-2.4c-0.8-1.1-1.2-2.4-1.2-4c0-1.3,0.2-2.4,0.7-3.3
			c0.5-0.9,1.2-1.7,2-2.2c0.8-0.5,1.7-0.9,2.7-1.1c0.9-0.2,1.9-0.3,3-0.3c0.7,0,1.3,0,2.1,0.1c0.7,0.1,1.4,0.2,2.1,0.4
			c0.7,0.2,1.3,0.5,1.7,0.8c0.5,0.4,0.7,0.8,0.7,1.2s-0.1,0.9-0.4,1.4c-0.3,0.5-0.7,0.7-1.2,0.7c-0.2,0-0.6-0.1-1-0.3
			c-0.4-0.2-1-0.5-1.7-0.7c-0.7-0.2-1.5-0.3-2.4-0.3c-1.4,0-2.5,0.3-3.3,0.8s-1.2,1.4-1.2,2.5c0,0.7,0.2,1.4,0.7,1.9
			c0.4,0.5,1,1,1.7,1.3c0.7,0.3,1.5,0.7,2.3,1c0.8,0.3,1.7,0.7,2.5,1.2s1.6,0.9,2.3,1.5c0.7,0.6,1.3,1.4,1.7,2.4
			c0.4,1,0.7,2.2,0.7,3.5c0,2.5-0.8,4.4-2.3,5.7c-1.5,1.3-3.5,2-6,2c-2.2,0-4.1-0.5-5.7-1.4C344.6,231.6,343.8,230.6,343.8,229.6z"
			/>
		<path class="st8" d="M363,231.8c0-0.6,0.2-1,0.7-1.4c0.5-0.4,1-0.6,1.7-0.6c0.6,0,1.1,0.2,1.5,0.6c0.4,0.4,0.6,0.9,0.6,1.4
			c0,0.5-0.2,1-0.6,1.4c-0.4,0.4-0.9,0.6-1.5,0.6c-0.6,0-1.2-0.2-1.7-0.6C363.3,232.8,363,232.4,363,231.8z M363.3,208.5
			c0-0.6,0.2-1,0.6-1.3s0.9-0.5,1.5-0.5s1.1,0.2,1.4,0.5c0.3,0.3,0.4,0.8,0.4,1.3c0,1.8,0,4.7-0.1,8.7c-0.1,4-0.1,6.9-0.1,8.7
			c0,0.4-0.2,0.7-0.5,0.9c-0.3,0.2-0.7,0.3-1.1,0.3c-1.1,0-1.6-0.4-1.6-1.2c0-1.8-0.1-4.7-0.2-8.7
			C363.3,213.2,363.3,210.3,363.3,208.5z"/>
	</g>
	<g class="st7">
		<path class="st8" d="M64.1,527.7v-10.6c0-2.8,0.7-4.8,2.2-6.2c1.5-1.3,3.4-2,5.8-2c2.5,0,4.5,0.6,6,1.8c1.5,1.2,2.3,2.8,2.3,4.8
			c0,0.8-0.1,1.3-0.4,1.6c-0.3,0.3-0.8,0.4-1.5,0.4c-1.3,0-1.9-0.4-1.9-1.3c-0.1-2.6-1.6-3.9-4.3-3.9c-2.9,0-4.4,1.6-4.4,4.7v10.6
			c0,3.1,1.5,4.7,4.4,4.7c0.9,0,1.6-0.1,2.2-0.4s1-0.6,1.3-1.1c0.3-0.5,0.4-0.9,0.5-1.3c0.1-0.4,0.2-0.8,0.2-1.3
			c0.1-0.8,0.7-1.3,1.9-1.3c0.7,0,1.2,0.1,1.5,0.4c0.3,0.3,0.5,0.8,0.5,1.6c0,2-0.8,3.7-2.3,4.9c-1.5,1.3-3.5,1.9-6,1.9
			c-2.4,0-4.3-0.7-5.8-2C64.8,532.5,64.1,530.5,64.1,527.7z"/>
		<path class="st8" d="M84,534.3v-24.1c0-0.4,0.2-0.7,0.6-0.9c0.4-0.2,0.8-0.3,1.4-0.3c0.5,0,1,0.1,1.4,0.3c0.4,0.2,0.6,0.5,0.6,0.9
			v22h9.5c0.4,0,0.6,0.2,0.9,0.5c0.2,0.3,0.3,0.7,0.3,1.2s-0.1,0.9-0.3,1.2c-0.2,0.3-0.5,0.5-0.9,0.5H85.8c-0.5,0-0.9-0.1-1.2-0.3
			C84.2,535,84,534.7,84,534.3z"/>
		<path class="st8" d="M101.4,534.3v-24.1c0-0.4,0.2-0.7,0.6-0.9c0.4-0.2,0.8-0.3,1.4-0.3c0.5,0,1,0.1,1.4,0.3
			c0.4,0.2,0.6,0.5,0.6,0.9v24.1c0,0.4-0.2,0.7-0.6,0.9c-0.4,0.2-0.8,0.3-1.4,0.3c-0.5,0-1-0.1-1.3-0.3
			C101.6,535,101.4,534.7,101.4,534.3z"/>
		<path class="st8" d="M109.8,527.7v-10.6c0-2.8,0.7-4.8,2.2-6.2c1.5-1.3,3.4-2,5.8-2c2.5,0,4.5,0.6,6,1.8c1.5,1.2,2.3,2.8,2.3,4.8
			c0,0.8-0.1,1.3-0.4,1.6c-0.3,0.3-0.8,0.4-1.5,0.4c-1.3,0-1.9-0.4-1.9-1.3c-0.1-2.6-1.6-3.9-4.3-3.9c-2.9,0-4.4,1.6-4.4,4.7v10.6
			c0,3.1,1.5,4.7,4.4,4.7c0.9,0,1.6-0.1,2.2-0.4s1-0.6,1.3-1.1c0.3-0.5,0.4-0.9,0.5-1.3c0.1-0.4,0.2-0.8,0.2-1.3
			c0.1-0.8,0.7-1.3,1.9-1.3c0.7,0,1.2,0.1,1.5,0.4c0.3,0.3,0.5,0.8,0.5,1.6c0,2-0.8,3.7-2.3,4.9c-1.5,1.3-3.5,1.9-6,1.9
			c-2.4,0-4.3-0.7-5.8-2C110.6,532.5,109.8,530.5,109.8,527.7z"/>
		<path class="st8" d="M129.8,534.3v-24.1c0-0.4,0.2-0.7,0.6-0.9c0.4-0.2,0.8-0.3,1.4-0.3c0.5,0,1,0.1,1.4,0.3
			c0.4,0.2,0.6,0.5,0.6,0.9v11.1l8.9-11.8c0.2-0.4,0.6-0.5,1.1-0.5c0.5,0,1,0.2,1.5,0.6c0.5,0.4,0.7,0.9,0.7,1.4
			c0,0.3-0.1,0.5-0.3,0.8l-7,8.7l8.3,12.6c0.1,0.2,0.2,0.5,0.2,0.7c0,0.5-0.2,0.9-0.7,1.3c-0.5,0.4-1,0.6-1.5,0.6
			c-0.6,0-1.1-0.2-1.4-0.7l-7.4-11.3l-2.4,3v7.6c0,0.4-0.2,0.7-0.6,0.9c-0.4,0.2-0.8,0.3-1.4,0.3c-0.5,0-1-0.1-1.3-0.3
			C130,535,129.8,534.7,129.8,534.3z"/>
	</g>
	<g class="st7">
		<path class="st8" d="M154.9,510.7c0-0.5,0.1-0.9,0.3-1.2c0.2-0.4,0.5-0.5,0.9-0.5h15.1c0.4,0,0.7,0.2,0.9,0.5
			c0.2,0.3,0.3,0.7,0.3,1.2c0,0.5-0.1,1-0.3,1.3c-0.2,0.4-0.5,0.5-0.9,0.5h-5.6v21.8c0,0.4-0.2,0.7-0.6,0.9
			c-0.4,0.2-0.8,0.3-1.3,0.3c-0.5,0-1-0.1-1.4-0.3c-0.4-0.2-0.6-0.5-0.6-0.9v-21.8h-5.6c-0.4,0-0.7-0.2-0.9-0.5
			C155,511.6,154.9,511.2,154.9,510.7z"/>
	</g>
	<g class="st7">
		<path class="st8" d="M174.7,527.7v-10.6c0-2.8,0.7-4.8,2.2-6.2c1.5-1.3,3.5-2,5.9-2c2.5,0,4.5,0.7,6,2c1.5,1.3,2.2,3.4,2.2,6.2
			v10.6c0,2.8-0.7,4.8-2.2,6.2c-1.5,1.3-3.5,2-6,2c-2.5,0-4.5-0.7-5.9-2C175.4,532.5,174.7,530.5,174.7,527.7z M178.6,527.7
			c0,3.1,1.4,4.7,4.3,4.7c1.4,0,2.5-0.4,3.2-1.2c0.8-0.8,1.1-2,1.1-3.5v-10.6c0-1.6-0.4-2.8-1.1-3.5c-0.8-0.8-1.8-1.2-3.2-1.2
			c-2.9,0-4.3,1.6-4.3,4.7V527.7z"/>
		<path class="st8" d="M202.8,534.3v-24.1c0-0.4,0.2-0.7,0.6-0.9c0.4-0.2,0.8-0.3,1.4-0.3c0.5,0,1,0.1,1.4,0.3
			c0.4,0.2,0.6,0.5,0.6,0.9v22h9.5c0.4,0,0.6,0.2,0.9,0.5c0.2,0.3,0.3,0.7,0.3,1.2s-0.1,0.9-0.3,1.2c-0.2,0.3-0.5,0.5-0.9,0.5h-11.6
			c-0.5,0-0.9-0.1-1.2-0.3C203,535,202.8,534.7,202.8,534.3z"/>
		<path class="st8" d="M220.2,534.3v-24.1c0-0.4,0.2-0.7,0.5-0.9c0.3-0.2,0.7-0.3,1.2-0.3h13c0.4,0,0.7,0.2,0.9,0.5
			c0.2,0.3,0.3,0.7,0.3,1.2c0,0.5-0.1,0.9-0.3,1.2c-0.2,0.3-0.5,0.5-0.9,0.5h-10.8v8.3h5.6c0.4,0,0.7,0.2,0.9,0.5
			c0.2,0.3,0.3,0.7,0.3,1.1c0,0.4-0.1,0.7-0.3,1c-0.2,0.3-0.5,0.5-0.9,0.5h-5.6v8.4h10.8c0.4,0,0.7,0.2,0.9,0.5
			c0.2,0.3,0.3,0.8,0.3,1.2c0,0.4-0.1,0.8-0.3,1.2c-0.2,0.3-0.5,0.5-0.9,0.5h-13c-0.5,0-0.9-0.1-1.2-0.3
			C220.4,535,220.2,534.7,220.2,534.3z"/>
		<path class="st8" d="M237.4,534c0-0.1,0-0.3,0-0.3l7.2-23.6c0.3-0.9,1.2-1.3,2.6-1.3c1.4,0,2.3,0.4,2.6,1.2l7.2,23.6
			c0,0.2,0.1,0.3,0.1,0.3c0,0.5-0.3,0.9-0.8,1.2c-0.6,0.3-1.2,0.5-1.8,0.5c-0.8,0-1.2-0.3-1.4-0.8l-1.5-5.2h-9l-1.5,5.2
			c-0.2,0.5-0.6,0.8-1.3,0.8c-0.6,0-1.1-0.2-1.6-0.5C237.6,534.8,237.4,534.4,237.4,534z M243.5,526.5h7.2l-3.7-12.5L243.5,526.5z"
			/>
		<path class="st8" d="M259.7,534.3v-24.1c0-0.3,0.1-0.6,0.4-0.9c0.2-0.2,0.5-0.4,0.9-0.4h6.9c5.6,0,8.4,2.5,8.4,7.4
			c0,2.1-0.5,3.7-1.4,4.8c-0.9,1.2-2.2,2-3.8,2.3l5.1,9.6c0.1,0.2,0.1,0.4,0.1,0.5c0,0.5-0.2,0.9-0.7,1.4s-1,0.6-1.6,0.6
			c-0.6,0-1.1-0.4-1.5-1.1l-5.3-10.4h-3.7v10.2c0,0.4-0.2,0.7-0.6,0.9s-0.8,0.3-1.4,0.3c-0.5,0-1-0.1-1.3-0.3
			C259.9,535,259.7,534.7,259.7,534.3z M263.5,521h4.4c3,0,4.5-1.4,4.5-4.3c0-2.9-1.5-4.3-4.5-4.3h-4.4V521z"/>
		<path class="st8" d="M280.1,534.3v-24.1c0-0.8,0.6-1.3,1.9-1.3c0.7,0,1.2,0.2,1.6,0.5c0.4,0.3,0.8,0.9,1.3,1.7l8.1,15.8v-16.7
			c0-0.4,0.2-0.7,0.6-0.9c0.4-0.2,0.8-0.3,1.4-0.3c0.5,0,1,0.1,1.4,0.3c0.4,0.2,0.6,0.5,0.6,0.9v24.1c0,0.4-0.2,0.7-0.6,0.9
			c-0.4,0.2-0.8,0.3-1.4,0.3c-1,0-1.8-0.5-2.3-1.4l-8.7-16.6v16.7c0,0.4-0.2,0.7-0.6,0.9c-0.4,0.2-0.8,0.3-1.4,0.3
			c-0.5,0-1-0.1-1.3-0.3C280.3,535,280.1,534.7,280.1,534.3z"/>
		<path class="st8" d="M308.9,534.3v-23.4c0-0.7,0.2-1.1,0.5-1.5c0.4-0.3,0.8-0.5,1.4-0.5c0.7,0,1.3,0.2,1.7,0.5
			c0.4,0.3,0.9,0.9,1.3,1.7l5.1,9.6l5.2-9.6c0.4-0.8,0.9-1.4,1.3-1.7c0.4-0.3,1-0.5,1.7-0.5c0.6,0,1,0.2,1.4,0.5s0.5,0.8,0.5,1.5
			v23.4c0,0.4-0.2,0.7-0.6,0.9c-0.4,0.2-0.8,0.3-1.4,0.3c-0.5,0-1-0.1-1.3-0.3c-0.4-0.2-0.6-0.5-0.6-0.9v-17.5l-4.9,9
			c-0.4,0.6-0.8,0.9-1.4,0.9c-0.6,0-1-0.3-1.3-0.9l-4.9-9.2v17.7c0,0.4-0.2,0.7-0.6,0.9c-0.4,0.2-0.8,0.3-1.4,0.3
			c-0.5,0-1-0.1-1.3-0.3C309.1,535,308.9,534.7,308.9,534.3z"/>
		<path class="st8" d="M333.7,527.7v-10.6c0-2.8,0.7-4.8,2.2-6.2c1.5-1.3,3.5-2,5.9-2c2.5,0,4.5,0.7,6,2c1.5,1.3,2.2,3.4,2.2,6.2
			v10.6c0,2.8-0.7,4.8-2.2,6.2c-1.5,1.3-3.5,2-6,2c-2.5,0-4.5-0.7-5.9-2C334.4,532.5,333.7,530.5,333.7,527.7z M337.6,527.7
			c0,3.1,1.4,4.7,4.3,4.7c1.4,0,2.5-0.4,3.2-1.2c0.8-0.8,1.1-2,1.1-3.5v-10.6c0-1.6-0.4-2.8-1.1-3.5c-0.8-0.8-1.8-1.2-3.2-1.2
			c-2.9,0-4.3,1.6-4.3,4.7V527.7z"/>
		<path class="st8" d="M354.6,534.3v-24.1c0-0.3,0.1-0.6,0.4-0.9c0.2-0.2,0.5-0.4,0.9-0.4h6.9c5.6,0,8.4,2.5,8.4,7.4
			c0,2.1-0.5,3.7-1.4,4.8c-0.9,1.2-2.2,2-3.8,2.3l5.1,9.6c0.1,0.2,0.1,0.4,0.1,0.5c0,0.5-0.2,0.9-0.7,1.4s-1,0.6-1.6,0.6
			c-0.6,0-1.1-0.4-1.5-1.1l-5.3-10.4h-3.7v10.2c0,0.4-0.2,0.7-0.6,0.9s-0.8,0.3-1.4,0.3c-0.5,0-1-0.1-1.3-0.3
			C354.8,535,354.6,534.7,354.6,534.3z M358.4,521h4.4c3,0,4.5-1.4,4.5-4.3c0-2.9-1.5-4.3-4.5-4.3h-4.4V521z"/>
		<path class="st8" d="M374.9,534.3v-24.1c0-0.4,0.2-0.7,0.5-0.9c0.3-0.2,0.7-0.3,1.2-0.3h13c0.4,0,0.7,0.2,0.9,0.5
			c0.2,0.3,0.3,0.7,0.3,1.2c0,0.5-0.1,0.9-0.3,1.2c-0.2,0.3-0.5,0.5-0.9,0.5h-10.8v8.3h5.6c0.4,0,0.7,0.2,0.9,0.5
			c0.2,0.3,0.3,0.7,0.3,1.1c0,0.4-0.1,0.7-0.3,1c-0.2,0.3-0.5,0.5-0.9,0.5h-5.6v8.4h10.8c0.4,0,0.7,0.2,0.9,0.5
			c0.2,0.3,0.3,0.8,0.3,1.2c0,0.4-0.1,0.8-0.3,1.2c-0.2,0.3-0.5,0.5-0.9,0.5h-13c-0.5,0-0.9-0.1-1.2-0.3
			C375.1,535,374.9,534.7,374.9,534.3z"/>
	</g>
	<g class="st7">
		<path class="st8" d="M62.5,577.7c0-0.1,0-0.3,0-0.3l7.2-23.6c0.3-0.9,1.2-1.3,2.6-1.3c1.4,0,2.3,0.4,2.6,1.2l7.2,23.6
			c0,0.2,0.1,0.3,0.1,0.3c0,0.5-0.3,0.9-0.8,1.2c-0.6,0.3-1.2,0.5-1.8,0.5c-0.8,0-1.2-0.3-1.4-0.8l-1.5-5.2h-9l-1.5,5.2
			c-0.2,0.5-0.6,0.8-1.3,0.8c-0.6,0-1.1-0.2-1.6-0.5C62.7,578.5,62.5,578.1,62.5,577.7z M68.6,570.2h7.2l-3.7-12.5L68.6,570.2z"/>
		<path class="st8" d="M84.8,578v-24.1c0-0.4,0.2-0.7,0.5-0.9c0.3-0.2,0.7-0.3,1.2-0.3h6.6c2.2,0,4,0.5,5.4,1.4c1.3,0.9,2,2.6,2,4.9
			c0,3-1,5-3.1,5.9c1.2,0.5,2.2,1.2,2.8,2.1c0.6,0.9,0.9,2.2,0.9,4v0.7c0,2.7-0.7,4.6-2,5.8c-1.3,1.2-3.1,1.8-5.3,1.8h-7.4
			c-0.5,0-0.9-0.1-1.2-0.4C85,578.7,84.8,578.4,84.8,578z M88.6,563.3H93c2.5,0,3.7-1.2,3.7-3.8c0-2.3-1.3-3.5-3.8-3.5h-4.3V563.3z
			 M88.6,575.9h4.6c2.7,0,4.1-1.5,4.1-4.5v-0.6c0-1.6-0.3-2.7-1-3.4c-0.7-0.7-1.7-1-3.1-1h-4.6V575.9z"/>
		<path class="st8" d="M104.7,571.4v-10.6c0-2.8,0.7-4.8,2.2-6.2c1.5-1.3,3.5-2,5.9-2c2.5,0,4.5,0.7,6,2c1.5,1.3,2.2,3.4,2.2,6.2
			v10.6c0,2.8-0.7,4.8-2.2,6.2c-1.5,1.3-3.5,2-6,2c-2.5,0-4.5-0.7-5.9-2C105.4,576.2,104.7,574.2,104.7,571.4z M108.6,571.4
			c0,3.1,1.4,4.7,4.3,4.7c1.4,0,2.5-0.4,3.2-1.2c0.8-0.8,1.1-2,1.1-3.5v-10.6c0-1.6-0.4-2.8-1.1-3.5c-0.8-0.8-1.8-1.2-3.2-1.2
			c-2.9,0-4.3,1.6-4.3,4.7V571.4z"/>
		<path class="st8" d="M125.4,571.4v-17.5c0-0.4,0.2-0.7,0.6-0.9c0.4-0.2,0.8-0.3,1.4-0.3c0.5,0,1,0.1,1.4,0.3
			c0.4,0.2,0.6,0.5,0.6,0.9v17.5c0,1.6,0.4,2.8,1.2,3.5c0.8,0.8,1.9,1.2,3.3,1.2c3,0,4.5-1.6,4.5-4.7v-17.5c0-0.4,0.2-0.7,0.6-0.9
			c0.4-0.2,0.8-0.3,1.4-0.3c0.5,0,1,0.1,1.4,0.3c0.4,0.2,0.6,0.5,0.6,0.9v17.5c0,2.8-0.8,4.8-2.3,6.2c-1.5,1.3-3.5,2-6.1,2
			c-2.5,0-4.5-0.7-6-2C126.2,576.2,125.4,574.2,125.4,571.4z"/>
		<path class="st8" d="M144.9,554.4c0-0.5,0.1-0.9,0.3-1.2c0.2-0.4,0.5-0.5,0.9-0.5h15.1c0.4,0,0.7,0.2,0.9,0.5
			c0.2,0.3,0.3,0.7,0.3,1.2c0,0.5-0.1,1-0.3,1.3c-0.2,0.4-0.5,0.5-0.9,0.5h-5.6V578c0,0.4-0.2,0.7-0.6,0.9c-0.4,0.2-0.8,0.3-1.3,0.3
			c-0.5,0-1-0.1-1.4-0.3c-0.4-0.2-0.6-0.5-0.6-0.9v-21.8h-5.6c-0.4,0-0.7-0.2-0.9-0.5C145,555.3,144.9,554.9,144.9,554.4z"/>
		<path class="st8" d="M170.9,554.4c0-0.5,0.1-0.9,0.3-1.2c0.2-0.4,0.5-0.5,0.9-0.5h15.1c0.4,0,0.7,0.2,0.9,0.5
			c0.2,0.3,0.3,0.7,0.3,1.2c0,0.5-0.1,1-0.3,1.3c-0.2,0.4-0.5,0.5-0.9,0.5h-5.6V578c0,0.4-0.2,0.7-0.6,0.9c-0.4,0.2-0.8,0.3-1.3,0.3
			c-0.5,0-1-0.1-1.4-0.3c-0.4-0.2-0.6-0.5-0.6-0.9v-21.8h-5.6c-0.4,0-0.7-0.2-0.9-0.5C171,555.3,170.9,554.9,170.9,554.4z"/>
		<path class="st8" d="M191.4,578v-24.1c0-0.4,0.2-0.7,0.6-0.9c0.4-0.2,0.8-0.3,1.4-0.3c0.5,0,1,0.1,1.4,0.3
			c0.4,0.2,0.6,0.5,0.6,0.9v10h9.1v-10c0-0.4,0.2-0.7,0.6-0.9c0.4-0.2,0.8-0.3,1.4-0.3c0.5,0,1,0.1,1.4,0.3c0.4,0.2,0.6,0.5,0.6,0.9
			V578c0,0.4-0.2,0.7-0.6,0.9c-0.4,0.2-0.8,0.3-1.4,0.3c-0.5,0-1-0.1-1.3-0.3c-0.4-0.2-0.6-0.5-0.6-0.9v-11h-9.1v11
			c0,0.4-0.2,0.7-0.6,0.9c-0.4,0.2-0.8,0.3-1.4,0.3c-0.5,0-1-0.1-1.3-0.3C191.6,578.7,191.4,578.4,191.4,578z"/>
		<path class="st8" d="M213,578v-24.1c0-0.4,0.2-0.7,0.5-0.9c0.3-0.2,0.7-0.3,1.2-0.3h13c0.4,0,0.7,0.2,0.9,0.5
			c0.2,0.3,0.3,0.7,0.3,1.2c0,0.5-0.1,0.9-0.3,1.2c-0.2,0.3-0.5,0.5-0.9,0.5h-10.8v8.3h5.6c0.4,0,0.7,0.2,0.9,0.5
			c0.2,0.3,0.3,0.7,0.3,1.1c0,0.4-0.1,0.7-0.3,1c-0.2,0.3-0.5,0.5-0.9,0.5h-5.6v8.4h10.8c0.4,0,0.7,0.2,0.9,0.5
			c0.2,0.3,0.3,0.8,0.3,1.2c0,0.4-0.1,0.8-0.3,1.2c-0.2,0.3-0.5,0.5-0.9,0.5h-13c-0.5,0-0.9-0.1-1.2-0.3
			C213.2,578.7,213,578.4,213,578z"/>
		<path class="st8" d="M239.1,571.4v-10.6c0-2.8,0.7-4.8,2.2-6.2c1.5-1.3,3.4-2,5.8-2c2.5,0,4.5,0.6,6,1.8c1.5,1.2,2.3,2.8,2.3,4.8
			c0,0.8-0.1,1.3-0.4,1.6c-0.3,0.3-0.8,0.4-1.5,0.4c-1.3,0-1.9-0.4-1.9-1.3c-0.1-2.6-1.6-3.9-4.3-3.9c-2.9,0-4.4,1.6-4.4,4.7v10.6
			c0,3.1,1.5,4.7,4.4,4.7c0.9,0,1.6-0.1,2.2-0.4s1-0.6,1.3-1.1c0.3-0.5,0.4-0.9,0.5-1.3c0.1-0.4,0.2-0.8,0.2-1.3
			c0.1-0.8,0.7-1.3,1.9-1.3c0.7,0,1.2,0.1,1.5,0.4c0.3,0.3,0.5,0.8,0.5,1.6c0,2-0.8,3.7-2.3,4.9c-1.5,1.3-3.5,1.9-6,1.9
			c-2.4,0-4.3-0.7-5.8-2C239.8,576.2,239.1,574.2,239.1,571.4z"/>
		<path class="st8" d="M259,578v-24.1c0-0.4,0.2-0.7,0.6-0.9c0.4-0.2,0.8-0.3,1.4-0.3c0.5,0,1,0.1,1.4,0.3c0.4,0.2,0.6,0.5,0.6,0.9
			v22h9.5c0.4,0,0.6,0.2,0.9,0.5c0.2,0.3,0.3,0.7,0.3,1.2s-0.1,0.9-0.3,1.2c-0.2,0.3-0.5,0.5-0.9,0.5h-11.6c-0.5,0-0.9-0.1-1.2-0.3
			C259.2,578.7,259,578.4,259,578z"/>
		<path class="st8" d="M274.5,577.7c0-0.1,0-0.3,0-0.3l7.2-23.6c0.3-0.9,1.2-1.3,2.6-1.3c1.4,0,2.3,0.4,2.6,1.2l7.2,23.6
			c0,0.2,0.1,0.3,0.1,0.3c0,0.5-0.3,0.9-0.8,1.2c-0.6,0.3-1.2,0.5-1.8,0.5c-0.8,0-1.2-0.3-1.4-0.8l-1.5-5.2h-9l-1.5,5.2
			c-0.2,0.5-0.6,0.8-1.3,0.8c-0.6,0-1.1-0.2-1.6-0.5C274.8,578.5,274.5,578.1,274.5,577.7z M280.6,570.2h7.2l-3.7-12.5L280.6,570.2z
			"/>
		<path class="st8" d="M295.5,575.3c0-0.5,0.2-0.9,0.5-1.4c0.3-0.5,0.7-0.7,1.2-0.7c0.3,0,0.6,0.2,1,0.5c0.4,0.3,0.7,0.6,1.1,1
			c0.4,0.4,0.9,0.7,1.7,1c0.7,0.3,1.6,0.5,2.5,0.5c1.4,0,2.5-0.3,3.3-1c0.8-0.7,1.3-1.6,1.3-2.9c0-1.2-0.4-2.1-1.2-2.9
			c-0.8-0.8-1.8-1.4-2.9-1.9c-1.2-0.5-2.3-1-3.5-1.5s-2.2-1.3-3-2.4c-0.8-1.1-1.2-2.4-1.2-4c0-1.3,0.2-2.4,0.7-3.3
			c0.5-0.9,1.2-1.7,2-2.2c0.8-0.5,1.7-0.9,2.7-1.1c0.9-0.2,1.9-0.3,3-0.3c0.7,0,1.3,0,2.1,0.1c0.7,0.1,1.4,0.2,2.1,0.4
			c0.7,0.2,1.3,0.5,1.7,0.8c0.5,0.4,0.7,0.8,0.7,1.2s-0.1,0.9-0.4,1.4c-0.3,0.5-0.7,0.7-1.2,0.7c-0.2,0-0.6-0.1-1-0.3
			c-0.4-0.2-1-0.5-1.7-0.7c-0.7-0.2-1.5-0.3-2.4-0.3c-1.4,0-2.5,0.3-3.3,0.8s-1.2,1.4-1.2,2.5c0,0.7,0.2,1.4,0.7,1.9
			c0.4,0.5,1,1,1.7,1.3c0.7,0.3,1.5,0.7,2.3,1c0.8,0.3,1.7,0.7,2.5,1.2s1.6,0.9,2.3,1.5c0.7,0.6,1.3,1.4,1.7,2.4
			c0.4,1,0.7,2.2,0.7,3.5c0,2.5-0.8,4.4-2.3,5.7c-1.5,1.3-3.5,2-6,2c-2.2,0-4.1-0.5-5.7-1.4C296.3,577.2,295.5,576.3,295.5,575.3z"
			/>
		<path class="st8" d="M314.2,575.3c0-0.5,0.2-0.9,0.5-1.4c0.3-0.5,0.7-0.7,1.2-0.7c0.3,0,0.6,0.2,1,0.5c0.4,0.3,0.7,0.6,1.1,1
			c0.4,0.4,0.9,0.7,1.7,1c0.7,0.3,1.6,0.5,2.5,0.5c1.4,0,2.5-0.3,3.3-1c0.8-0.7,1.3-1.6,1.3-2.9c0-1.2-0.4-2.1-1.2-2.9
			c-0.8-0.8-1.8-1.4-2.9-1.9c-1.2-0.5-2.3-1-3.5-1.5s-2.2-1.3-3-2.4c-0.8-1.1-1.2-2.4-1.2-4c0-1.3,0.2-2.4,0.7-3.3
			c0.5-0.9,1.2-1.7,2-2.2c0.8-0.5,1.7-0.9,2.7-1.1c0.9-0.2,1.9-0.3,3-0.3c0.7,0,1.3,0,2.1,0.1c0.7,0.1,1.4,0.2,2.1,0.4
			c0.7,0.2,1.3,0.5,1.7,0.8c0.5,0.4,0.7,0.8,0.7,1.2s-0.1,0.9-0.4,1.4c-0.3,0.5-0.7,0.7-1.2,0.7c-0.2,0-0.6-0.1-1-0.3
			c-0.4-0.2-1-0.5-1.7-0.7c-0.7-0.2-1.5-0.3-2.4-0.3c-1.4,0-2.5,0.3-3.3,0.8s-1.2,1.4-1.2,2.5c0,0.7,0.2,1.4,0.7,1.9
			c0.4,0.5,1,1,1.7,1.3c0.7,0.3,1.5,0.7,2.3,1c0.8,0.3,1.7,0.7,2.5,1.2s1.6,0.9,2.3,1.5c0.7,0.6,1.3,1.4,1.7,2.4
			c0.4,1,0.7,2.2,0.7,3.5c0,2.5-0.8,4.4-2.3,5.7c-1.5,1.3-3.5,2-6,2c-2.2,0-4.1-0.5-5.7-1.4C315,577.2,314.2,576.3,314.2,575.3z"/>
		<path class="st8" d="M333.4,577.5c0-0.6,0.2-1,0.7-1.4c0.5-0.4,1-0.6,1.7-0.6c0.6,0,1.1,0.2,1.5,0.6c0.4,0.4,0.6,0.9,0.6,1.4
			c0,0.5-0.2,1-0.6,1.4c-0.4,0.4-0.9,0.6-1.5,0.6c-0.6,0-1.2-0.2-1.7-0.6C333.7,578.5,333.4,578,333.4,577.5z M333.7,554.2
			c0-0.6,0.2-1,0.6-1.3s0.9-0.5,1.5-0.5s1.1,0.2,1.4,0.5c0.3,0.3,0.4,0.8,0.4,1.3c0,1.8,0,4.7-0.1,8.7c-0.1,4-0.1,6.9-0.1,8.7
			c0,0.4-0.2,0.7-0.5,0.9c-0.3,0.2-0.7,0.3-1.1,0.3c-1.1,0-1.6-0.4-1.6-1.2c0-1.8-0.1-4.7-0.2-8.7
			C333.7,558.9,333.7,556,333.7,554.2z"/>
	</g>
	<g id="XMLID_167_">
		<g class="st7">
			<path class="st4" d="M67.1,342.7v-52.2c0-0.9,0.4-1.6,1.2-2c0.8-0.4,1.8-0.7,3-0.7c1.2,0,2.1,0.2,3,0.7c0.8,0.4,1.2,1.1,1.2,2
				v52.2c0,0.8-0.4,1.5-1.2,2c-0.8,0.5-1.8,0.7-3,0.7c-1.1,0-2.1-0.2-2.9-0.7C67.6,344.2,67.1,343.5,67.1,342.7z"/>
			<path class="st4" d="M85.9,342.7v-52.1c0-1.8,1.4-2.8,4.2-2.8c1.5,0,2.7,0.3,3.6,1c0.9,0.7,1.8,1.9,2.8,3.7l17.5,34.2v-36.2
				c0-0.9,0.4-1.6,1.2-2c0.8-0.4,1.8-0.7,3-0.7c1.2,0,2.1,0.2,3,0.7c0.8,0.4,1.2,1.1,1.2,2v52.2c0,0.8-0.4,1.5-1.2,2
				c-0.8,0.5-1.8,0.7-3,0.7c-2.2,0-3.9-1-5-3.1l-18.9-35.9v36.2c0,0.8-0.4,1.5-1.2,2c-0.8,0.5-1.8,0.7-3,0.7c-1.1,0-2.1-0.2-2.9-0.7
				C86.3,344.2,85.9,343.5,85.9,342.7z"/>
			<path class="st4" d="M128.6,291.6c0-1,0.2-1.9,0.7-2.7c0.5-0.8,1.2-1.2,2.1-1.2h32.7c0.9,0,1.6,0.4,2.1,1.1
				c0.5,0.7,0.7,1.6,0.7,2.6c0,1.1-0.2,2.1-0.7,2.8c-0.5,0.8-1.2,1.2-2,1.2H152v47.2c0,0.8-0.4,1.5-1.3,2c-0.8,0.5-1.8,0.7-2.9,0.7
				c-1.2,0-2.1-0.2-3-0.7c-0.8-0.5-1.2-1.2-1.2-2v-47.2h-12.2c-0.8,0-1.5-0.4-2-1.2C128.9,293.6,128.6,292.7,128.6,291.6z"/>
			<path class="st4" d="M173.2,342.7v-52.2c0-0.7,0.3-1.4,0.8-1.9c0.5-0.5,1.2-0.8,2-0.8h15c12.1,0,18.1,5.4,18.1,16.1
				c0,4.5-1,7.9-3,10.5c-2,2.5-4.7,4.2-8.1,5.1l11,20.8c0.2,0.4,0.3,0.8,0.3,1.2c0,1.1-0.5,2-1.6,2.9c-1.1,0.9-2.2,1.3-3.4,1.3
				c-1.4,0-2.5-0.8-3.3-2.5l-11.5-22.6h-8v22.1c0,0.8-0.4,1.5-1.2,2c-0.8,0.5-1.8,0.8-3,0.8c-1.1,0-2.1-0.2-2.9-0.7
				C173.6,344.2,173.2,343.5,173.2,342.7z M181.5,314h9.5c6.5,0,9.8-3.1,9.8-9.4c0-6.3-3.3-9.4-9.8-9.4h-9.5V314z"/>
			<path class="st4" d="M216.7,328.3v-23c0-6,1.6-10.5,4.8-13.3c3.2-2.8,7.5-4.3,12.9-4.3c5.4,0,9.7,1.4,12.9,4.3
				c3.2,2.8,4.9,7.3,4.9,13.3v23c0,6-1.6,10.5-4.9,13.3c-3.2,2.8-7.5,4.3-12.9,4.3c-5.4,0-9.7-1.4-12.9-4.3
				C218.3,338.8,216.7,334.4,216.7,328.3z M225.1,328.3c0,6.8,3.1,10.2,9.3,10.2c3,0,5.3-0.8,6.9-2.5c1.6-1.7,2.4-4.2,2.4-7.7v-23
				c0-3.4-0.8-6-2.4-7.7c-1.6-1.7-3.9-2.5-6.9-2.5c-6.2,0-9.3,3.4-9.3,10.2V328.3z"/>
		</g>
		<g class="st7">
			<path class="st4" d="M273.6,291.6c0-1,0.2-1.9,0.7-2.7c0.5-0.8,1.2-1.2,2.1-1.2h32.7c0.9,0,1.6,0.4,2.1,1.1
				c0.5,0.7,0.7,1.6,0.7,2.6c0,1.1-0.2,2.1-0.7,2.8c-0.5,0.8-1.2,1.2-2,1.2H297v47.2c0,0.8-0.4,1.5-1.3,2c-0.8,0.5-1.8,0.7-2.9,0.7
				c-1.2,0-2.1-0.2-3-0.7c-0.8-0.5-1.2-1.2-1.2-2v-47.2h-12.2c-0.8,0-1.5-0.4-2-1.2C273.9,293.6,273.6,292.7,273.6,291.6z"/>
		</g>
		<g class="st7">
			<path class="st4" d="M316.6,328.3v-23c0-6,1.6-10.5,4.8-13.3c3.2-2.8,7.5-4.3,12.9-4.3c5.4,0,9.7,1.4,12.9,4.3
				c3.2,2.8,4.9,7.3,4.9,13.3v23c0,6-1.6,10.5-4.9,13.3c-3.2,2.8-7.5,4.3-12.9,4.3c-5.4,0-9.7-1.4-12.9-4.3
				C318.2,338.8,316.6,334.4,316.6,328.3z M325,328.3c0,6.8,3.1,10.2,9.3,10.2c3,0,5.3-0.8,6.9-2.5c1.6-1.7,2.4-4.2,2.4-7.7v-23
				c0-3.4-0.8-6-2.4-7.7c-1.6-1.7-3.9-2.5-6.9-2.5c-6.2,0-9.3,3.4-9.3,10.2V328.3z"/>
			<path class="st4" d="M373.5,291.2c0-0.9,0.6-1.7,1.7-2.4c1.1-0.7,2.3-1,3.6-1c1.6,0,2.6,0.6,2.9,1.7l12.9,45l7.1-28.2
				c0.4-1.6,1.7-2.4,4.1-2.4c2.3,0,3.6,0.8,4,2.5l7.2,28.2l12.9-45.1c0.3-1.1,1.3-1.7,2.9-1.7c1.3,0,2.4,0.3,3.5,1
				c1.1,0.6,1.6,1.4,1.6,2.4c0,0.4,0,0.6-0.1,0.8L422.2,343c-0.3,0.9-1,1.6-2,2.1s-2.1,0.8-3.3,0.8c-1.2,0-2.3-0.2-3.3-0.7
				c-1-0.5-1.6-1.2-1.8-2.1l-6.1-23.9l-6,23.8c-0.2,0.9-0.8,1.6-1.8,2.1c-1,0.5-2.1,0.8-3.4,0.8s-2.4-0.3-3.4-0.8
				c-1-0.5-1.6-1.2-1.9-2.1L373.6,292C373.5,291.8,373.5,291.5,373.5,291.2z"/>
			<path class="st4" d="M444.4,342.7v-52.1c0-0.8,0.4-1.5,1.1-2c0.7-0.5,1.6-0.8,2.6-0.8h28.1c0.9,0,1.6,0.4,2.1,1.1
				c0.5,0.7,0.7,1.6,0.7,2.5c0,1.1-0.2,1.9-0.7,2.7c-0.5,0.7-1.2,1.1-2,1.1h-23.4v18.1h12.1c0.8,0,1.5,0.3,2,1
				c0.5,0.7,0.7,1.5,0.7,2.4c0,0.8-0.2,1.6-0.7,2.2c-0.5,0.7-1.2,1-2.1,1h-12.1V338h23.4c0.8,0,1.5,0.4,2,1.1
				c0.5,0.7,0.7,1.6,0.7,2.7c0,0.9-0.2,1.8-0.7,2.5c-0.5,0.7-1.2,1.1-2.1,1.1h-28.1c-1,0-1.9-0.2-2.6-0.7
				C444.8,344.2,444.4,343.5,444.4,342.7z"/>
			<path class="st4" d="M485.7,342.8v-52.2c0-0.8,0.4-1.5,1.1-2c0.7-0.5,1.6-0.8,2.6-0.8h14.4c4.8,0,8.7,1,11.6,3
				c2.9,2,4.3,5.5,4.3,10.7c0,6.5-2.2,10.8-6.7,12.8c2.7,1.1,4.7,2.6,6.1,4.5c1.4,2,2.1,4.9,2.1,8.6v1.5c0,5.8-1.4,10-4.3,12.6
				s-6.7,3.9-11.4,3.9h-16c-1.1,0-2-0.3-2.7-0.8C486,344.1,485.7,343.5,485.7,342.8z M494,310.9h9.4c5.3,0,8-2.7,8-8.1
				c0-5-2.7-7.6-8.1-7.6H494V310.9z M494,338h9.9c5.9,0,8.9-3.3,8.9-9.8V327c0-3.4-0.7-5.8-2.2-7.3c-1.5-1.5-3.7-2.2-6.7-2.2H494
				V338z"/>
		</g>
		<g class="st7">
			<path class="st4" d="M67.1,437.5v-52.3c0-0.7,0.4-1.4,1.1-1.9c0.7-0.5,1.6-0.8,2.6-0.8h14c5.4,0,9.7,1.4,12.9,4.3
				c3.2,2.8,4.9,7.3,4.9,13.3v22.5c0,6-1.6,10.5-4.9,13.3c-3.2,2.8-7.5,4.3-12.9,4.3h-14c-1.1,0-1.9-0.3-2.6-0.8
				C67.5,438.8,67.1,438.2,67.1,437.5z M75.5,432.7h9.3c6.3,0,9.4-3.4,9.4-10.2v-22.5c0-6.8-3.1-10.2-9.4-10.2h-9.3V432.7z"/>
			<path class="st4" d="M112.4,437.4v-52.1c0-0.8,0.4-1.5,1.1-2c0.7-0.5,1.6-0.8,2.6-0.8h28.1c0.9,0,1.6,0.4,2.1,1.1
				c0.5,0.7,0.7,1.6,0.7,2.5c0,1.1-0.2,1.9-0.7,2.7c-0.5,0.7-1.2,1.1-2,1.1h-23.4V408h12.1c0.8,0,1.5,0.3,2,1
				c0.5,0.7,0.7,1.5,0.7,2.4c0,0.8-0.2,1.6-0.7,2.2c-0.5,0.7-1.2,1-2.1,1h-12.1v18.1h23.4c0.8,0,1.5,0.4,2,1.1
				c0.5,0.7,0.7,1.6,0.7,2.7c0,0.9-0.2,1.8-0.7,2.5c-0.5,0.7-1.2,1.1-2.1,1.1h-28.1c-1,0-1.9-0.2-2.6-0.7
				C112.7,438.9,112.4,438.2,112.4,437.4z"/>
			<path class="st4" d="M149.4,385.9c0-0.9,0.6-1.8,1.7-2.4s2.3-1,3.6-1c1.6,0,2.6,0.6,2.9,1.7l13,45l12.9-45
				c0.4-1.2,1.3-1.7,2.8-1.7c1.3,0,2.4,0.3,3.6,1c1.1,0.7,1.7,1.5,1.7,2.4c0,0.2-0.1,0.4-0.2,0.7l-15.6,51.1
				c-0.3,0.9-0.9,1.6-1.9,2.1c-1,0.5-2.1,0.8-3.4,0.8c-2.9,0-4.7-0.9-5.3-2.8l-15.8-51.1C149.5,386.5,149.4,386.3,149.4,385.9z"/>
			<path class="st4" d="M197.9,437.4v-52.1c0-0.8,0.4-1.5,1.1-2c0.7-0.5,1.6-0.8,2.6-0.8h28.1c0.9,0,1.6,0.4,2.1,1.1
				c0.5,0.7,0.7,1.6,0.7,2.5c0,1.1-0.2,1.9-0.7,2.7c-0.5,0.7-1.2,1.1-2,1.1h-23.4V408h12.1c0.8,0,1.5,0.3,2,1
				c0.5,0.7,0.7,1.5,0.7,2.4c0,0.8-0.2,1.6-0.7,2.2c-0.5,0.7-1.2,1-2.1,1h-12.1v18.1h23.4c0.8,0,1.5,0.4,2,1.1
				c0.5,0.7,0.7,1.6,0.7,2.7c0,0.9-0.2,1.8-0.7,2.5c-0.5,0.7-1.2,1.1-2.1,1.1h-28.1c-1,0-1.9-0.2-2.6-0.7
				C198.2,438.9,197.9,438.2,197.9,437.4z"/>
		</g>
		<g class="st7">
			<path class="st4" d="M239.1,437.4v-52.2c0-0.9,0.4-1.6,1.2-2c0.8-0.4,1.8-0.7,3-0.7c1.2,0,2.1,0.2,3,0.7c0.8,0.4,1.2,1.1,1.2,2
				v47.6H268c0.8,0,1.4,0.4,1.9,1.1c0.4,0.7,0.7,1.6,0.7,2.6c0,1-0.2,1.9-0.7,2.6c-0.4,0.7-1.1,1.1-1.9,1.1h-25.2
				c-1,0-1.9-0.2-2.6-0.7C239.5,438.9,239.1,438.2,239.1,437.4z"/>
		</g>
		<g class="st7">
			<path class="st4" d="M275.3,423v-23c0-6,1.6-10.5,4.8-13.3c3.2-2.8,7.5-4.3,12.9-4.3c5.4,0,9.7,1.4,12.9,4.3
				c3.2,2.8,4.9,7.3,4.9,13.3v23c0,6-1.6,10.5-4.9,13.3c-3.2,2.8-7.5,4.3-12.9,4.3c-5.4,0-9.7-1.4-12.9-4.3
				C276.9,433.5,275.3,429.1,275.3,423z M283.7,423c0,6.8,3.1,10.2,9.3,10.2c3,0,5.3-0.8,6.9-2.5c1.6-1.7,2.4-4.2,2.4-7.7v-23
				c0-3.4-0.8-6-2.4-7.7c-1.6-1.7-3.9-2.5-6.9-2.5c-6.2,0-9.3,3.4-9.3,10.2V423z"/>
			<path class="st4" d="M320.5,437.4v-52.2c0-0.7,0.3-1.4,0.9-1.9c0.6-0.5,1.4-0.8,2.3-0.8h15.4c5.3,0,9.5,1.4,12.6,4.2
				c3.1,2.8,4.7,7.2,4.7,13.2v0.6c0,6-1.6,10.4-4.9,13.2c-3.2,2.8-7.5,4.2-12.9,4.2h-9.8v19.5c0,0.8-0.4,1.5-1.2,2
				c-0.8,0.5-1.8,0.7-3,0.7c-1.1,0-2.1-0.2-2.9-0.7C320.9,438.9,320.5,438.2,320.5,437.4z M328.9,411.3h9.8c3,0,5.3-0.9,6.9-2.6
				c1.6-1.7,2.4-4.3,2.4-7.7v-0.9c0-3.4-0.8-6-2.4-7.7c-1.6-1.7-3.9-2.5-6.9-2.5h-9.8V411.3z"/>
			<path class="st4" d="M363.5,437.4v-50.7c0-1.4,0.4-2.5,1.2-3.2s1.8-1,3-1c1.5,0,2.8,0.3,3.7,1c1,0.7,1.9,1.9,2.9,3.7l11,20.9
				l11.2-20.9c0.9-1.8,1.9-3.1,2.8-3.7c0.9-0.7,2.2-1,3.7-1c1.2,0,2.2,0.3,3,1s1.2,1.7,1.2,3.2v50.7c0,0.8-0.4,1.5-1.2,2
				c-0.8,0.5-1.8,0.7-3,0.7c-1.1,0-2.1-0.2-2.9-0.7c-0.8-0.5-1.3-1.2-1.3-2v-37.9l-10.6,19.6c-0.8,1.3-1.8,1.9-3.1,1.9
				c-1.3,0-2.2-0.6-2.8-1.9l-10.6-20v38.3c0,0.8-0.4,1.5-1.2,2c-0.8,0.5-1.8,0.7-3,0.7c-1.1,0-2.1-0.2-2.9-0.7
				C363.9,438.9,363.5,438.2,363.5,437.4z"/>
			<path class="st4" d="M417.7,437.4v-52.1c0-0.8,0.4-1.5,1.1-2c0.7-0.5,1.6-0.8,2.6-0.8h28.1c0.9,0,1.6,0.4,2.1,1.1
				c0.5,0.7,0.7,1.6,0.7,2.5c0,1.1-0.2,1.9-0.7,2.7c-0.5,0.7-1.2,1.1-2,1.1h-23.4V408h12.1c0.8,0,1.5,0.3,2,1
				c0.5,0.7,0.7,1.5,0.7,2.4c0,0.8-0.2,1.6-0.7,2.2c-0.5,0.7-1.2,1-2.1,1h-12.1v18.1h23.4c0.8,0,1.5,0.4,2,1.1
				c0.5,0.7,0.7,1.6,0.7,2.7c0,0.9-0.2,1.8-0.7,2.5c-0.5,0.7-1.2,1.1-2.1,1.1h-28.1c-1,0-1.9-0.2-2.6-0.7
				C418.1,438.9,417.7,438.2,417.7,437.4z"/>
			<path class="st4" d="M459,437.4v-52.1c0-1.8,1.4-2.8,4.2-2.8c1.5,0,2.7,0.3,3.6,1c0.9,0.7,1.8,1.9,2.8,3.7l17.5,34.2v-36.2
				c0-0.9,0.4-1.6,1.2-2c0.8-0.4,1.8-0.7,3-0.7c1.2,0,2.1,0.2,3,0.7c0.8,0.4,1.2,1.1,1.2,2v52.2c0,0.8-0.4,1.5-1.2,2
				c-0.8,0.5-1.8,0.7-3,0.7c-2.2,0-3.9-1-5-3.1l-18.9-35.9v36.2c0,0.8-0.4,1.5-1.2,2c-0.8,0.5-1.8,0.7-3,0.7c-1.1,0-2.1-0.2-2.9-0.7
				C459.4,438.9,459,438.2,459,437.4z"/>
			<path class="st4" d="M501.6,386.3c0-1,0.2-1.9,0.7-2.7c0.5-0.8,1.2-1.2,2.1-1.2h32.7c0.9,0,1.6,0.4,2.1,1.1
				c0.5,0.7,0.7,1.6,0.7,2.6c0,1.1-0.2,2.1-0.7,2.8c-0.5,0.8-1.2,1.2-2,1.2H525v47.2c0,0.8-0.4,1.5-1.3,2c-0.8,0.5-1.8,0.7-2.9,0.7
				c-1.2,0-2.1-0.2-3-0.7c-0.8-0.5-1.2-1.2-1.2-2v-47.2h-12.2c-0.8,0-1.5-0.4-2-1.2C501.9,388.3,501.6,387.4,501.6,386.3z"/>
		</g>
	</g>
</g>
<g>
	
		<text id="XMLID_180_" transform="matrix(1 0 0 1 7.1877 875.1666)" class="st9" style="font-family:'Dosis-SemiBold'; font-size:65px;">ABOUT</text>
</g>
</svg>
